<?xml version="1.0" encoding="UTF-8" standalone="no"?>
<svg
   id="svg"
   width="400"
   height="392.3076923076923"
   viewBox="0, 0, 400,392.3076923076923"
   version="1.1"
   sodipodi:docname="!.svg"
   inkscape:version="1.1.1 (3bf5ae0d25, 2021-09-20)"
   xmlns:inkscape="http://www.inkscape.org/namespaces/inkscape"
   xmlns:sodipodi="http://sodipodi.sourceforge.net/DTD/sodipodi-0.dtd"
   xmlns="http://www.w3.org/2000/svg"
   xmlns:svg="http://www.w3.org/2000/svg">
  <defs
     id="defs8" />
  <sodipodi:namedview
     id="namedview6"
     pagecolor="#505050"
     bordercolor="#ffffff"
     borderopacity="1"
     inkscape:pageshadow="0"
     inkscape:pageopacity="0"
     inkscape:pagecheckerboard="1"
     showgrid="false"
     inkscape:zoom="2.0443138"
     inkscape:cx="199.82255"
     inkscape:cy="196.39842"
     inkscape:window-width="1920"
     inkscape:window-height="991"
     inkscape:window-x="-9"
     inkscape:window-y="-9"
     inkscape:window-maximized="1"
     inkscape:current-layer="svg" />
  <path
     id="path0"
     d="m 197.01055,0.03221706 c -5.5678,0.23681158 -14.95271,1.28820534 -15.22176,1.70355554 -0.14989,0.2306123 -1.44601,0.8368995 -2.87973,1.3464784 -1.43495,0.5095788 -2.70282,1.2187737 -2.82076,1.5770907 -0.11671,0.3570772 -1.22978,1.6353637 -2.47184,2.8404991 -1.2433,1.2051354 -2.40305,2.5937692 -2.57751,3.0884692 -0.17445,0.493461 -0.73467,1.007999 -1.24452,1.143143 -0.51108,0.133904 -1.0455,0.551734 -1.18801,0.926169 -0.14374,0.375675 -0.55776,0.683158 -0.92141,0.683158 -0.36366,0 -0.90299,0.535616 -1.19784,1.190257 -0.29608,0.654642 -1.08973,1.554774 -1.76298,2.00112 -0.71133,0.469904 -1.47057,1.652722 -1.81211,2.823141 -0.32434,1.108427 -0.86859,2.304884 -1.2089,2.658241 -0.34153,0.353358 -0.62041,1.057594 -0.62041,1.564693 0,1.377474 -1.44355,5.402031 -2.21754,6.183138 -0.37225,0.375675 -0.67693,0.983202 -0.67693,1.350198 0,0.366996 -0.37963,0.953445 -0.84279,1.304323 -0.46439,0.349638 -1.25312,1.402272 -1.75315,2.338359 -0.49879,0.937328 -1.15361,1.92301 -1.45583,2.190817 -0.60076,0.533136 -2.21754,5.442947 -2.21754,6.734872 0,0.445107 -0.16462,0.808383 -0.36488,0.808383 -0.20148,0 -0.86613,1.405991 -1.47672,3.123185 -0.60936,1.717194 -1.42512,3.244691 -1.81088,3.393473 -0.38577,0.150022 -0.91036,0.825741 -1.16467,1.50146 -0.25431,0.675719 -0.68553,1.228692 -0.95704,1.228692 -0.27274,0 -0.49511,0.302524 -0.49511,0.67076 0,0.369476 -0.32557,0.943527 -0.72239,1.277047 -0.39805,0.33228 -0.72361,0.99808 -0.72361,1.479142 0,0.479823 -0.20272,0.946007 -0.45088,1.035276 -0.24817,0.08927 -0.91405,1.910611 -1.47918,4.046874 -0.56636,2.137504 -1.20644,3.99852 -1.42389,4.137384 -0.21746,0.137623 -0.73468,1.072471 -1.1487,2.07675 -0.41402,1.00304 -0.9423,1.825061 -1.1745,1.825061 -0.23219,0 -0.89807,0.963365 -1.48163,2.141223 -0.58233,1.179099 -1.35878,2.259009 -1.72489,2.400352 -0.36611,0.141343 -0.81576,1.153062 -0.99881,2.247851 -0.18305,1.094788 -0.63885,2.298684 -1.01233,2.675598 -0.37348,0.376915 -0.67939,1.035276 -0.67939,1.463025 0,1.066272 -1.8244,6.221573 -2.32196,6.561292 -0.22237,0.151262 -0.8133,0.986922 -1.31455,1.856058 -0.50125,0.870375 -1.03198,1.58205 -1.17941,1.58205 -0.14743,0 -0.80593,1.040235 -1.46321,2.312322 -0.6585,1.270848 -1.30595,2.42143 -1.43986,2.555334 -0.38945,0.388073 -1.35755,3.487701 -1.71015,5.475179 -0.17814,1.00304 -0.4951,1.82506 -0.70396,1.82506 -0.20885,0 -0.77644,1.11339 -1.26172,2.47599 -0.48528,1.36135 -1.26664,2.68304 -1.73717,2.9372 -0.46931,0.25293 -0.85385,0.73276 -0.85385,1.06504 0,0.33228 -0.6413,1.31424 -1.42635,2.1809 -0.78381,0.86665 -1.56763,2.33959 -1.74085,3.27196 -0.17446,0.93237 -0.48528,1.69612 -0.69291,1.69612 -0.20639,0 -0.74696,1.52378 -1.19907,3.38727 -0.4521,1.8635 -1.23469,3.86709 -1.73963,4.45478 -0.50493,0.58645 -0.91772,1.3502 -0.91772,1.69488 0,0.34592 -0.37963,0.91501 -0.84402,1.26465 -0.46316,0.34963 -1.25189,1.40227 -1.75191,2.3396 -0.4988,0.93608 -1.15484,1.92177 -1.45584,2.18957 -0.60076,0.53314 -2.21754,5.44295 -2.21754,6.73487 0,0.44511 -0.17199,0.80839 -0.38208,0.80839 -0.21008,0 -0.79118,1.21505 -1.2912,2.69915 -0.81945,2.43259 -1.33667,3.26205 -3.860116,6.18314 -0.404193,0.46867 -0.735903,1.04396 -0.735903,1.27953 0,0.23433 -0.302223,0.68068 -0.672018,0.99064 -0.371022,0.30996 -0.820673,1.35392 -1.000041,2.31976 -0.179369,0.96584 -0.609362,2.04204 -0.957042,2.39167 -0.346452,0.34964 -0.777674,1.62917 -0.958271,2.84422 -0.180597,1.21506 -0.624105,2.50822 -0.986528,2.87398 -0.362423,0.36575 -0.971785,1.42087 -1.353864,2.34456 -0.383309,0.92369 -1.267866,2.30116 -1.965684,3.06243 -0.697818,0.76003 -1.269095,1.67008 -1.269095,2.02344 0,0.35335 -0.414022,0.86541 -0.921414,1.13942 -0.557763,0.30128 -1.050412,1.27085 -1.249438,2.45986 -0.180597,1.07991 -0.595847,2.23298 -0.923871,2.56402 -0.328023,0.33104 -0.745731,1.36631 -0.930014,2.3024 -0.480364,2.44747 -1.821943,5.83846 -2.309678,5.83846 -0.22974,0 -0.420165,0.27277 -0.425079,0.60753 -0.0037,0.33476 -0.606905,1.2944 -1.340351,2.13378 -0.733446,0.83814 -1.760515,2.37184 -2.28265,3.40711 -0.523363,1.03404 -1.060241,1.9912 -1.194153,2.12511 -0.389451,0.38807 -1.35755,3.4877 -1.710145,5.47518 -0.17814,1.00304 -0.495106,1.82506 -0.70396,1.82506 -0.208854,0 -0.777674,1.11463 -1.262952,2.47598 -0.48405,1.36136 -1.265409,2.68304 -1.735944,2.93721 -0.469307,0.25417 -0.853844,0.72779 -0.855073,1.05263 0,0.32484 -0.640076,1.34524 -1.421435,2.26769 -0.781359,0.92245 -1.669602,2.73015 -1.975512,4.01588 -0.305909,1.28573 -0.751874,2.33836 -0.990213,2.33836 -0.238339,0 -0.433679,0.39923 -0.433679,0.88649 0,1.35888 -1.481634,5.44047 -1.975512,5.44047 -0.239568,0 -0.436136,0.33848 -0.436136,0.75135 0,0.41411 -0.504935,1.26217 -1.121668,1.88333 -0.615505,0.62241 -1.490234,1.91929 -1.94357,2.88266 -0.453336,0.96336 -1.09464,1.92301 -1.425121,2.13254 -0.621647,0.39303 -2.261765,5.19994 -2.261765,6.62825 0,0.4451 -0.171997,0.80962 -0.382079,0.80962 -0.210083,0 -0.791188,1.21381 -1.291209,2.69916 -0.819444,2.43134 -1.336665,3.2608 -3.860111,6.18189 -0.404194,0.46867 -0.735903,1.04396 -0.735903,1.27953 0,0.23433 -0.302224,0.68068 -0.673247,0.99064 -0.369794,0.30996 -0.819444,1.35392 -0.998813,2.31976 -0.179368,0.96585 -0.61059,2.04204 -0.957042,2.39168 -0.346452,0.34963 -0.777674,1.6304 -0.958271,2.84421 -0.180597,1.21506 -0.586019,2.48467 -0.901757,2.82315 -0.315738,0.33723 -1.060241,1.65396 -1.653631,2.92604 -0.593391,1.27085 -1.271552,2.31109 -1.508663,2.31109 -0.235882,0 -0.702732,0.6658 -1.036898,1.47914 -0.332938,0.81334 -0.991442,1.6862 -1.461977,1.94037 -0.487735,0.26408 -0.995127,1.30432 -1.183096,2.42391 -0.180597,1.07991 -0.633933,2.2714 -1.007413,2.64956 -0.374708,0.37691 -0.679389,1.03527 -0.679389,1.46178 0,1.01048 -1.809658,6.20422 -2.286336,6.56129 -0.394365,0.29633 -1.384579,1.80771 -1.888285,2.8839 -0.170769,0.36327 -0.825587,1.22249 -1.455834,1.90813 -0.629019,0.68688 -1.271552,1.75811 -1.42635,2.38051 -0.154797,0.62365 -0.422622,1.13323 -0.594619,1.13323 -0.36488,0 -1.286294,2.85537 -1.766658,5.47518 -0.184283,1.00428 -0.506164,1.82506 -0.715018,1.82506 -0.208854,0 -0.777673,1.11463 -1.262951,2.47598 -0.485279,1.36136 -1.266638,2.68304 -1.735945,2.93721 -0.469307,0.25417 -0.855072,0.72779 -0.855072,1.05264 -0.0012,0.32484 -0.613048,1.31424 -1.362465,2.19825 -0.748188,0.88402 -1.635203,2.69048 -1.971826,4.01464 -0.336623,1.3254 -0.808388,2.40903 -1.049184,2.40903 -0.240796,0 -0.438593,0.39923 -0.438593,0.88649 0,1.28325 -1.46812,5.44047 -1.921456,5.44047 -0.211311,0 -0.511078,0.49222 -0.665875,1.09479 -0.154798,0.60257 -0.937386,1.86226 -1.73963,2.79834 -0.801016,0.93733 -1.458292,1.96517 -1.458292,2.28505 -0.0012,0.31864 -0.385765,0.86666 -0.856301,1.21629 -0.826815,0.61621 -2.520989,5.23962 -2.520989,6.88366 0,0.4451 -0.1719972,0.80962 -0.3820797,0.80962 -0.2100824,0 -0.7862735,1.19894 -1.2801515,2.6632 -0.8501582,2.52434 -1.8514283,4.16962 -3.7630557,6.1819 -0.4643927,0.4885 -0.8440154,1.08115 -0.8440154,1.31548 0,0.23433 -0.3022239,0.68068 -0.6732467,0.99064 -0.3697942,0.30997 -0.82313,1.37624 -1.0086414,2.3706 -0.1842828,0.99312 -0.515992,1.91929 -0.7371314,2.05691 -1.98411194,1.23737 -1.90179894,38.44407 0.085999,38.44407 0.2223679,0 0.4041937,0.40543 0.4041937,0.90261 0,0.91749 2.3109069,3.18022 4.1402212,4.05307 0.5528486,0.26409 1.3477219,1.06379 1.7654297,1.77795 0.4189363,0.71291 1.2334665,1.84366 1.8096575,2.51318 0.5774197,0.66952 1.2101237,1.50518 1.4054637,1.85605 0.212539,0.38312 2.474304,0.94849 5.624312,1.40724 2.898155,0.42155 5.377374,0.92864 5.510057,1.12702 1.503748,2.24165 346.722031,2.23049 348.190151,-0.0124 0.13268,-0.20209 2.73353,-0.71167 5.77911,-1.13074 3.04558,-0.42031 5.61326,-0.99436 5.70663,-1.27581 0.0921,-0.28145 0.43982,-0.51082 0.77153,-0.51082 0.33293,0 1.13886,-0.60257 1.79368,-1.33904 0.94599,-1.06379 4.15128,-3.92537 6.13416,-5.47518 0.58971,-0.46122 1.99886,-3.31536 1.99886,-4.04935 0,-0.40544 0.16217,-0.80963 0.36119,-0.8989 0.19903,-0.0893 0.79611,-1.03775 1.32684,-2.10774 1.01233,-2.04328 3.7348,-5.11067 4.53582,-5.11067 0.77398,0 1.25312,-4.25765 1.20643,-10.71231 -0.043,-5.73432 -0.71624,-9.72912 -1.64134,-9.72912 -0.22237,0 -0.77768,-0.98568 -1.23347,-2.19081 -0.45579,-1.2039 -0.96687,-2.18958 -1.13641,-2.18958 -0.16831,0 -0.82436,-1.5337 -1.45583,-3.40711 -0.63271,-1.87342 -1.30841,-3.40711 -1.50252,-3.40711 -0.19534,0 -0.74451,-1.47791 -1.22118,-3.28437 -0.47791,-1.8077 -0.99022,-3.39471 -1.13887,-3.52862 -0.42385,-0.38063 -1.43249,-2.08171 -1.94849,-3.2856 -0.25799,-0.60257 -0.63761,-1.09727 -0.84278,-1.10099 -0.20517,-0.002 -0.80593,-0.93361 -1.33421,-2.06807 -0.52828,-1.13446 -1.19784,-2.31604 -1.48655,-2.62477 -0.28994,-0.30872 -0.9079,-1.78662 -1.37475,-3.2856 -0.46685,-1.49774 -1.03321,-2.72271 -1.25681,-2.72271 -0.22482,0 -0.55899,-1.0142 -0.74327,-2.25529 -0.18429,-1.23986 -0.74696,-2.67064 -1.25067,-3.18022 -0.50493,-0.50834 -1.36492,-1.79283 -1.91408,-2.85414 -0.54794,-1.06255 -1.16958,-1.93045 -1.38212,-1.93045 -0.21132,0 -0.77522,-1.09603 -1.2519,-2.43383 -0.47668,-1.33904 -1.0283,-2.43382 -1.22487,-2.43382 -0.19779,0 -0.74573,-1.31425 -1.21749,-2.91985 -0.47299,-1.60561 -1.0283,-2.91985 -1.2347,-2.91985 -0.20639,0 -0.37593,-0.46371 -0.37593,-1.02908 0,-1.04519 -1.87109,-4.81186 -2.38954,-4.81186 -0.15602,0 -0.71133,-0.82078 -1.23346,-1.82506 -0.52214,-1.00304 -1.08604,-1.93417 -1.25436,-2.06807 -0.16831,-0.13391 -0.8133,-1.44815 -1.43249,-2.91985 -0.62042,-1.47295 -1.37966,-2.93969 -1.68926,-3.26081 -0.30959,-0.32112 -0.82804,-2.00236 -1.15238,-3.73815 -0.32434,-1.7358 -0.8821,-3.26825 -1.23961,-3.40712 -0.35751,-0.13886 -1.01601,-0.97452 -1.4632,-1.85853 -0.44843,-0.88402 -1.07253,-1.76059 -1.38704,-1.94781 -0.31574,-0.18722 -0.86367,-1.22745 -1.2175,-2.31232 -0.35505,-1.08363 -0.80101,-1.97012 -0.99144,-1.97012 -0.19042,0 -0.8477,-1.3688 -1.45952,-3.04136 -0.61182,-1.6738 -1.26295,-3.1517 -1.446,-3.28561 -0.18306,-0.1339 -0.48774,-1.17537 -0.67694,-2.3148 -0.18796,-1.13818 -0.70396,-2.34332 -1.14623,-2.67684 -0.44228,-0.33228 -1.23101,-1.42707 -1.75438,-2.4301 -0.52336,-1.00428 -1.0799,-1.82507 -1.23592,-1.82507 -0.15603,0 -0.79487,-1.25968 -1.42021,-2.79834 -0.62533,-1.5399 -1.30963,-2.91737 -1.52095,-3.06243 -0.51599,-0.35336 -1.86002,-4.25145 -1.86002,-5.39459 0,-0.50214 -0.21746,-0.91254 -0.48282,-0.91254 -0.26414,0 -0.4816,-0.41039 -0.4816,-0.91377 0,-0.50214 -0.32556,-1.18653 -0.72361,-1.52005 -0.39806,-0.33228 -0.72362,-0.91377 -0.72362,-1.29069 0,-0.37691 -0.27888,-0.79474 -0.62042,-0.92617 -0.34154,-0.13266 -1.04673,-1.21877 -1.56763,-2.41399 -0.51968,-1.19521 -1.08236,-2.1747 -1.24944,-2.17718 -0.16586,-0.002 -0.78996,-1.3192 -1.38458,-2.92481 -0.59585,-1.60684 -1.24452,-2.92108 -1.44355,-2.92108 -0.1978,0 -0.6155,-1.30805 -0.92756,-2.90746 -0.31082,-1.60064 -0.85998,-3.07855 -1.21749,-3.2856 -0.35874,-0.20706 -1.13027,-1.30804 -1.71506,-2.44499 -0.58479,-1.13818 -1.22855,-2.06931 -1.43126,-2.06931 -0.20271,0 -0.76171,-1.03899 -1.2433,-2.31108 -0.48036,-1.27085 -1.13395,-2.57269 -1.45092,-2.89258 -0.31696,-0.31988 -0.86858,-1.57957 -1.22487,-2.79958 -0.35628,-1.21877 -0.81821,-2.21685 -1.02584,-2.21685 -0.20762,0 -0.37716,-0.47859 -0.37716,-1.06256 0,-1.17413 -1.82194,-5.2644 -2.34408,-5.2644 -0.18183,0 -0.75679,-0.82079 -1.27892,-1.82506 -0.52214,-1.00428 -1.09587,-1.93665 -1.27647,-2.07304 -0.1806,-0.13638 -0.78381,-1.41591 -1.34158,-2.84421 -0.55776,-1.42831 -1.30349,-2.88762 -1.65731,-3.2447 -0.3526,-0.35707 -0.91159,-2.02715 -1.23961,-3.71211 -0.38208,-1.95772 -0.92879,-3.29924 -1.51604,-3.71335 -0.50616,-0.35832 -0.92018,-0.93609 -0.92018,-1.28697 0,-0.34964 -0.51108,-1.15802 -1.13764,-1.79654 -0.62534,-0.63977 -1.42881,-1.98253 -1.78509,-2.98681 -0.35505,-1.00427 -0.79364,-1.82506 -0.97301,-1.82506 -0.17937,0 -0.82805,-1.36879 -1.43987,-3.04135 -0.61181,-1.6738 -1.26295,-3.1517 -1.446,-3.28561 -0.18428,-0.1339 -0.48774,-1.17538 -0.67693,-2.3148 -0.18797,-1.13942 -0.73591,-2.34828 -1.21504,-2.688 -0.47914,-0.33848 -1.37107,-1.59693 -1.98043,-2.79586 -0.60936,-1.1977 -1.23224,-2.28877 -1.38335,-2.42267 -0.15111,-0.13266 -0.70519,-1.17166 -1.23101,-2.30612 -0.52705,-1.13447 -1.09832,-2.06436 -1.27155,-2.06808 -0.172,-0.002 -0.70273,-1.10098 -1.17941,-2.43878 -0.47791,-1.33904 -1.04181,-2.43383 -1.25435,-2.43383 -0.21254,0 -0.387,-0.24921 -0.387,-0.55421 0,-0.69184 -1.99148,-4.84906 -2.67455,-5.58677 -0.27766,-0.29881 -0.81453,-1.50394 -1.19416,-2.67684 -0.37839,-1.1729 -1.04058,-2.52186 -1.4718,-2.99672 -0.43,-0.47611 -1.06761,-1.73455 -1.41529,-2.79835 -0.34768,-1.06379 -0.79734,-1.93416 -0.99882,-1.93416 -0.20148,0 -0.7445,-1.15059 -1.20521,-2.55534 -0.46193,-1.40599 -1.10078,-2.77479 -1.41898,-3.04135 -0.31942,-0.26781 -0.98898,-1.52626 -1.49023,-2.79711 -0.50125,-1.27084 -1.06515,-2.31107 -1.25435,-2.31231 -0.18797,0 -0.57374,-0.8679 -0.8563,-1.92673 -0.28257,-1.05884 -0.83542,-2.24909 -1.22978,-2.64708 -0.39314,-0.39676 -1.17696,-1.94037 -1.74209,-3.42819 -0.56391,-1.48906 -1.21258,-2.7066 -1.44109,-2.7066 -0.22851,0 -0.41525,-0.34964 -0.41525,-0.77615 0,-0.80218 -1.30473,-3.40959 -2.19297,-4.38287 -0.27765,-0.30376 -0.79979,-1.45806 -1.16221,-2.56401 -0.36119,-1.10595 -0.84033,-2.01104 -1.0627,-2.01104 -0.22236,0 -0.40542,-0.24921 -0.40542,-0.55545 0,-0.71044 -2.00008,-4.86022 -2.71141,-5.622729 -0.29854,-0.319881 -0.83419,-1.57957 -1.19047,-2.798344 -0.35628,-1.220014 -0.78136,-2.216854 -0.94353,-2.216854 -0.16217,0 -0.81944,-1.150582 -1.46198,-2.555333 -0.6413,-1.405991 -1.317,-2.623525 -1.50006,-2.707835 -0.18305,-0.08431 -0.70642,-1.288206 -1.16221,-2.676839 -0.45579,-1.388633 -1.08973,-2.743791 -1.40915,-3.011599 -0.31819,-0.266568 -0.98898,-1.525017 -1.49023,-2.795864 -0.50002,-1.270847 -1.07007,-2.311083 -1.26541,-2.312322 -0.19534,-0.0012 -0.60445,-1.00552 -0.91159,-2.232972 -0.30591,-1.227453 -0.8305,-2.33836 -1.16589,-2.467304 -0.3354,-0.130185 -1.09096,-1.534936 -1.67943,-3.121946 -0.58848,-1.588249 -1.2605,-2.886373 -1.4927,-2.886373 -0.23342,0 -0.42385,-0.349638 -0.42385,-0.777387 0,-0.815822 -1.46566,-3.743111 -1.99885,-3.992321 -0.172,-0.07935 -0.80962,-1.5027 -1.41652,-3.16286 -0.60814,-1.660161 -1.22855,-3.128145 -1.38089,-3.262049 -0.15234,-0.133904 -0.70888,-1.115866 -1.23593,-2.182138 -0.52828,-1.066272 -1.20398,-2.204455 -1.50252,-2.528056 -0.29731,-0.323602 -0.83296,-1.58701 -1.19046,-2.805784 -0.35628,-1.220013 -0.78014,-2.216854 -0.9423,-2.216854 -0.16217,0 -0.82068,-1.150582 -1.46198,-2.555333 -0.64253,-1.405991 -1.31824,-2.624765 -1.50129,-2.707835 -0.18306,-0.08431 -0.70642,-1.288205 -1.16221,-2.676839 -0.4558,-1.388633 -1.09341,-2.74379 -1.41652,-3.011598 -0.32311,-0.267808 -0.9681,-1.526257 -1.43495,-2.798345 -0.46562,-1.270847 -1.03199,-2.311082 -1.25804,-2.311082 -0.22483,0 -0.65973,-1.00428 -0.96564,-2.231732 -0.30714,-1.227453 -0.83173,-2.33836 -1.16713,-2.467304 -0.33539,-0.130185 -1.09095,-1.534936 -1.67943,-3.123185 -0.58725,-1.58701 -1.25926,-2.885134 -1.49269,-2.885134 -0.2322,0 -0.42262,-0.404192 -0.42262,-0.897652 0,-0.844339 -1.38212,-2.509459 -2.0824,-2.509459 -0.74696,0 -6.11696,-5.0672726 -6.11696,-5.7727479 0,-1.3316002 -2.78881,-3.4306683 -5.50146,-4.1386233 -1.5664,-0.4091509 -2.98784,-0.9708035 -3.15738,-1.2472903 -0.5209,-0.8505379 -10.34563,-1.89201291 -15.69475,-1.66264044 M 240.10079,110.50792 c 4.57882,4.22913 5.37738,6.1447 5.37738,12.90189 0,2.54417 0.19656,4.30352 0.48159,4.30352 0.31696,0 0.48282,13.13994 0.48282,38.44902 0,25.30785 -0.16586,38.44779 -0.48282,38.44779 -0.28625,0 -0.48282,1.82754 -0.48528,4.5019 -0.002,4.6172 -0.54916,7.6412 -1.58238,8.74467 -0.32188,0.34344 -0.89561,1.28201 -1.27646,2.08419 -0.37962,0.80342 -1.18064,1.89821 -1.78017,2.43383 -1.14256,1.02163 -2.09837,5.25573 -2.10574,9.32864 -0.002,1.11462 -0.17691,2.10031 -0.38822,2.18957 -0.47791,0.2021 -2.50871,9.92377 -2.50871,12.01292 0,0.8431 -0.21745,1.5337 -0.48282,1.5337 -0.26537,0 -0.48159,0.72779 -0.48159,1.61676 0,1.81267 -1.34158,6.17074 -1.89934,6.17074 -0.19903,0 -0.88333,1.58701 -1.52218,3.52862 -0.63762,1.94037 -1.29489,3.63772 -1.45952,3.77163 -0.1634,0.1339 -0.45211,1.99492 -0.64008,4.13614 -0.4005,4.5515 -1.16835,8.03052 -1.77034,8.03052 -0.23343,0 -0.42508,0.26037 -0.42508,0.57653 0,3.90925 -5.69925,9.1439 -9.96724,9.15506 -0.57374,10e-4 -1.13519,0.27649 -1.24453,0.61125 -0.36119,1.09231 -35.14519,0.85797 -36.2386,-0.24301 -0.4644,-0.46867 -1.0455,-0.85178 -1.29121,-0.85178 -0.62411,0 -4.30731,-3.66748 -4.30731,-4.28865 0,-0.27896 -0.59585,-0.96832 -1.32561,-1.53121 -3.17949,-2.45367 -3.97928,-3.20874 -3.97928,-3.75923 0,-0.32236 -0.44719,-0.90385 -0.99512,-1.29069 -0.75802,-0.53561 -1.24821,-1.97012 -2.05046,-5.98972 -0.57865,-2.90745 -1.21626,-5.35864 -1.41529,-5.4479 -0.19903,-0.0893 -0.36611,-1.29317 -0.37102,-2.67684 -0.016,-4.04688 -0.84525,-8.77443 -1.64381,-9.36336 -0.40296,-0.29632 -1.20152,-1.77919 -1.77648,-3.29428 -0.57374,-1.5151 -1.21258,-2.75371 -1.41775,-2.75371 -0.2064,0 -0.76416,-1.69736 -1.23961,-3.77163 -0.47668,-2.07551 -1.0111,-3.88198 -1.18801,-4.01588 -0.49634,-0.37443 -2.36988,-11.62856 -2.36988,-14.23597 0,-1.27085 -0.21745,-2.31108 -0.48159,-2.31108 -0.26537,0 -0.48282,-0.66084 -0.48282,-1.46799 0,-1.79406 -1.48164,-7.42423 -2.06151,-7.82966 -2.03694,-1.42707 -1.89197,-92.11474 0.14988,-92.82765 0.25554,-0.0893 0.46439,-0.48602 0.46439,-0.88153 0,-1.56842 1.59466,-5.52602 2.22614,-5.52602 0.36734,0 0.66833,-0.20706 0.66833,-0.45875 0,-0.79226 3.1107,-0.84805 44.12592,-0.80218 l 40.02869,0.0434 1.13272,1.04644 M 238.4447,323.3383 c 1.30473,0.34468 2.8097,1.03776 3.34658,1.54237 0.53565,0.50462 1.21135,0.91625 1.50006,0.91625 0.28871,0 1.11553,0.67944 1.83792,1.51014 l 1.31332,1.51014 v 14.30789 c 0,9.21333 -0.172,14.30664 -0.48282,14.30664 -0.26537,0 -0.48282,0.93113 -0.48528,2.06931 -0.01,7.13782 -3.0591,12.04515 -7.4868,12.04515 -0.61059,0 -1.20029,0.27401 -1.31086,0.60877 -0.27028,0.8183 -76.40367,0.89889 -76.93809,0.0818 -0.1892,-0.29012 -1.64626,-0.78234 -3.23724,-1.09355 -1.71383,-0.33476 -3.09103,-0.89641 -3.37606,-1.37747 -0.26537,-0.44511 -0.8735,-1.22374 -1.35018,-1.72959 -1.3514,-1.42955 -1.77648,-7.24569 -1.7814,-24.31349 -0.004,-17.52405 -0.14251,-16.64376 2.8269,-18.0014 1.22855,-0.56165 2.37602,-1.24853 2.5517,-1.52625 1.15116,-1.82258 76.46264,-2.59873 83.07225,-0.85674"
     stroke="none"
     fill="#efb804"
     fill-rule="evenodd"
     style="stroke-width:1" />
</svg>
