<?xml version="1.0" encoding="UTF-8" standalone="no"?>
<svg
   id="svg"
   width="400"
   height="562.5"
   viewBox="0, 0, 400,562.5"
   version="1.1"
   sodipodi:docname="carret.svg"
   inkscape:version="1.1.1 (3bf5ae0d25, 2021-09-20)"
   xmlns:inkscape="http://www.inkscape.org/namespaces/inkscape"
   xmlns:sodipodi="http://sodipodi.sourceforge.net/DTD/sodipodi-0.dtd"
   xmlns="http://www.w3.org/2000/svg"
   xmlns:svg="http://www.w3.org/2000/svg">
  <defs
     id="defs8" />
  <sodipodi:namedview
     id="namedview6"
     pagecolor="#505050"
     bordercolor="#ffffff"
     borderopacity="1"
     inkscape:pageshadow="0"
     inkscape:pageopacity="0"
     inkscape:pagecheckerboard="1"
     showgrid="false"
     inkscape:zoom="0.71288889"
     inkscape:cx="-98.893391"
     inkscape:cy="174.64152"
     inkscape:window-width="1920"
     inkscape:window-height="991"
     inkscape:window-x="-9"
     inkscape:window-y="-9"
     inkscape:window-maximized="1"
     inkscape:current-layer="svg" />
  <path
     id="path0"
     d="m 62.043487,0.98083626 c 0,0.53945994 -0.213846,0.98083624 -0.475211,0.98083624 -0.261365,0 -0.47521,0.3310322 -0.47521,0.7356272 0,0.4045948 -0.213844,0.735627 -0.475209,0.735627 -0.261365,0 -0.47521,0.4413766 -0.47521,0.9808364 0,0.5394599 -0.213844,0.9808362 -0.475211,0.9808362 -0.261365,0 -0.475209,0.3923346 -0.475209,0.8729442 0,0.4793836 -0.427689,1.1904901 -0.950419,1.5791464 -0.522731,0.3886565 -0.950419,0.995549 -0.950419,1.3486498 0,0.3531013 -2.566134,3.2772183 -5.702517,6.4980393 -3.136385,3.220823 -5.702518,5.98923 -5.702518,6.15107 0,0.161837 -0.267306,0.601989 -0.594012,0.978384 -1.422066,1.635544 -1.782037,2.179908 -1.782037,2.689943 0,0.299156 -1.069222,1.618382 -2.376048,2.931473 -1.306827,1.313097 -2.37605,2.628642 -2.37605,2.921668 0,0.816547 -5.109692,5.905859 -5.929429,5.905859 -0.397988,0 -0.723506,0.348198 -0.723506,0.773636 0,0.810415 -3.559322,4.620965 -4.316094,4.620965 -0.23998,0 -0.436004,0.392333 -0.436004,0.872944 0,0.479384 -0.427688,1.190489 -0.950421,1.579147 -0.522731,0.388655 -0.950419,1.099761 -0.950419,1.579144 0,0.480611 -0.210279,0.872946 -0.465705,0.872946 -0.256614,0 -0.611833,0.597085 -0.788849,1.32658 -0.36591,1.500678 -2.184776,3.5776 -3.134009,3.5776 -0.345715,0 -0.93735,0.441376 -1.313953,0.980837 -0.376605,0.53946 -0.9623,0.980836 -1.300887,0.980836 -0.72232,0 -7.7281,7.106157 -7.7281,7.839335 0,0.273406 -0.213844,0.497774 -0.47521,0.497774 -0.2613639,0 -0.4752077,0.441375 -0.4752077,0.980836 0,0.539458 -0.2138448,0.980835 -0.4752106,0.980835 -0.2613654,0 -0.4752101,0.337163 -0.4752101,0.749116 0,0.410722 -0.9622996,1.740983 -2.1384439,2.954769 -1.1761441,1.213785 -2.1384439,2.421441 -2.1384439,2.685039 0,0.262372 -0.4276887,0.476931 -0.9504195,0.476931 -0.5940122,0 -0.9504194,0.327354 -0.9504194,0.872945 0,0.479383 -0.4276889,1.19049 -0.9504195,1.579147 -0.5227308,0.388656 -0.95041962,1.08137 -0.95041962,1.538687 0,0.457315 -0.26730549,0.925663 -0.59401218,1.042138 -0.37541573,0.132414 -0.0249486,0.761373 0.9504195,1.709106 0.8494374,0.823904 1.5444318,1.851329 1.5444318,2.281671 0,0.510034 0.4158086,0.78467 1.1880243,0.78467 0.6534135,0 1.1880244,0.217009 1.1880244,0.480609 0,0.264826 0.5726277,0.630188 1.2735621,0.811641 1.4149371,0.366588 5.3793753,4.20411 5.3793753,5.207015 0,0.351875 0.427687,0.958768 0.950419,1.347423 0.522731,0.388657 0.950419,1.216237 0.950419,1.837843 0,1.506811 3.887216,5.518429 5.347297,5.518429 0.602329,0 1.404247,0.441377 1.780849,0.980836 0.376604,0.539461 1.018138,0.980837 1.425631,0.980837 0.407491,0 1.054965,0.472026 1.439886,1.048268 0.383731,0.577479 1.179707,1.559529 1.76778,2.184819 0.588071,0.62527 1.06922,1.31799 1.06922,1.54113 0,0.22192 0.42769,0.72215 0.950421,1.1108 0.558371,0.41562 0.950419,1.26897 0.950419,2.06956 0,0.922 0.245921,1.36337 0.760336,1.36337 0.416995,0 1.357912,0.66208 2.090922,1.47125 0.733011,0.80919 1.673927,1.47126 2.090924,1.47126 0.418183,0 0.760335,0.22067 0.760335,0.49041 0,0.26974 0.427689,0.49041 0.950419,0.49041 0.522732,0 0.95042,0.22069 0.95042,0.49042 0,0.26973 0.325519,0.49042 0.723507,0.49042 0.940916,0 5.92943,5.14818 5.92943,6.1192 0,0.41071 0.213845,0.74668 0.47521,0.74668 0.261366,0 0.475209,0.44136 0.475209,0.98082 0,0.53946 0.213845,0.98083 0.475209,0.98083 0.261366,0 0.475211,0.36291 0.475211,0.80552 0,0.9931 2.580389,3.60825 3.559321,3.60825 0.394425,0 0.717566,0.22069 0.717566,0.49041 0,0.26974 0.427689,0.49043 0.950421,0.49043 0.52273,0 0.950419,0.22069 0.950419,0.49041 0,0.26974 0.325518,0.49043 0.723506,0.49043 0.940916,0 5.929431,5.14814 5.929431,6.11918 0,0.41072 0.213844,0.74666 0.475209,0.74666 0.261365,0 0.47521,0.44139 0.47521,0.98084 0,0.53945 0.213844,0.98084 0.47521,0.98084 0.261366,0 0.475209,0.33838 0.475209,0.75154 0,0.97596 3.078172,4.15264 4.023838,4.15264 0.400366,0 0.72826,0.22069 0.72826,0.49042 0,0.26973 0.320767,0.49042 0.712814,0.49042 0.392048,0 0.712815,0.22066 0.712815,0.4904 0,0.26974 0.413433,0.49041 0.918343,0.49041 1.108428,0 5.734594,4.52413 5.734594,5.60794 0,0.42176 0.213844,0.76752 0.475211,0.76752 0.261364,0 0.475208,0.44137 0.475208,0.98083 0,0.53946 0.213844,0.98084 0.475209,0.98084 0.261366,0 0.47521,0.34083 0.47521,0.75769 0,0.98084 2.117061,3.16565 3.067479,3.16565 0.403929,0 0.7342,0.22068 0.7342,0.49043 0,0.26973 0.641534,0.4904 1.425629,0.4904 0.784097,0 1.42563,0.2207 1.42563,0.49042 0,0.26973 0.380167,0.49042 0.845874,0.49042 0.464517,0 1.15951,0.47449 1.544431,1.0544 0.383732,0.57992 1.607396,2.00826 2.7182,3.17423 1.110803,1.1672 2.01964,2.34787 2.01964,2.62374 0,0.2771 0.213845,0.50391 0.475211,0.50391 0.261366,0 0.47521,0.55785 0.47521,1.23952 0,1.6895 3.814745,5.62633 5.451841,5.62633 0.660548,0 1.201098,0.2207 1.201098,0.49041 0,0.26973 0.42768,0.49042 0.950419,0.49042 0.522729,0 0.950418,0.2207 0.950418,0.49042 0,0.26973 0.42769,0.49042 0.950419,0.49042 0.52273,0 0.950419,0.22068 0.950419,0.49043 0,0.26973 0.327894,0.4904 0.728261,0.4904 1.049022,0 3.819492,3.01486 4.196092,4.56579 0.17702,0.72584 0.53106,1.31924 0.78766,1.31924 0.25544,0 0.46572,0.44138 0.46572,0.98084 0,0.53945 0.21384,0.98083 0.4752,0.98083 0.26136,0 0.47521,0.33103 0.47521,0.73564 0,0.40826 0.42294,0.73561 0.95042,0.73561 0.52273,0 0.95042,0.22069 0.95042,0.49042 0,0.26971 0.42769,0.49041 0.95042,0.49041 0.52273,0 0.95042,0.22069 0.95042,0.49043 0,0.26971 0.42768,0.49041 0.95041,0.49041 0.52273,0 0.95043,0.22069 0.95043,0.49044 0,0.26971 0.38016,0.49041 0.84587,0.49041 0.46451,0 1.15357,0.44136 1.53018,0.98084 0.37661,0.53945 0.96823,0.98082 1.31276,0.98082 0.59045,0 5.89972,5.39337 9.61705,9.7679 0.91479,1.07647 1.95193,1.96658 2.30478,1.98008 0.35164,0.0123 1.23911,0.68412 1.97211,1.4933 0.73302,0.80921 1.668,1.47127 2.07904,1.47127 0.41106,0 1.70957,0.9931 2.88571,2.20688 1.17616,1.21378 2.36299,2.20688 2.63624,2.20688 0.76865,0 5.70488,5.27934 5.70488,6.10079 0,0.83005 8.24846,9.5926 9.03137,9.5926 0.5655,0 1.03358,0.37148 3.81475,3.02709 1.03715,0.98943 1.8854,2.04259 1.8854,2.33808 0,0.29546 1.33653,1.95186 2.97005,3.67936 1.63355,1.72748 3.50467,3.813 4.15809,4.63444 0.6534,0.82268 1.46008,1.50069 1.79273,1.50927 0.58451,0.0148 5.81062,5.10771 5.81062,5.66434 0,0.69514 9.18582,9.55334 9.90693,9.55334 0.44671,0 1.1215,0.44138 1.4981,0.98084 0.37662,0.53945 0.96111,0.98084 1.29852,0.98084 0.3386,0 2.63742,2.04135 5.10969,4.53635 5.90568,5.95857 6.76462,6.74326 7.38715,6.74326 0.28749,0 1.52422,1.09485 2.74907,2.43369 3.13759,3.42927 3.41439,3.80565 3.41439,4.65653 0,0.41563 0.21384,0.75646 0.47521,0.75646 1.04666,0 0.59163,17.84141 -0.47521,18.63588 -0.52273,0.38866 -0.95042,1.06543 -0.95042,1.50437 0,1.03111 -1.57888,2.9094 -2.44613,2.9094 -0.36829,0 -0.97895,0.44139 -1.35556,0.98084 -0.37659,0.53946 -1.17732,0.98084 -1.77847,0.98084 -0.69142,0 -2.05409,0.99064 -3.70662,2.6973 -1.43751,1.4835 -2.82275,2.6973 -3.07937,2.6973 -0.25541,0 -0.46452,0.61302 -0.46452,1.36335 0,0.80061 -0.39205,1.65395 -0.95041,2.06958 -0.52273,0.38865 -0.95042,0.99921 -0.95042,1.35599 0,0.84229 -2.14676,3.05776 -2.96294,3.05776 -0.34571,0 -0.93734,0.44137 -1.31396,0.98084 -0.3766,0.53947 -1.08703,0.98083 -1.57768,0.98083 -0.49067,0 -1.49098,0.66208 -2.22399,1.47126 -0.73302,0.80919 -1.57412,1.47126 -1.86994,1.47126 -0.74608,0 -3.83258,3.25636 -3.83258,4.0435 0,0.35432 -0.42768,0.96245 -0.95041,1.35111 -0.52274,0.38864 -0.95043,0.88887 -0.95043,1.11077 0,0.65225 -2.27506,2.81257 -2.96293,2.81257 -0.34572,0 -0.93734,0.44136 -1.31395,0.98084 -0.3766,0.53945 -1.06566,0.98082 -1.53018,0.98082 -0.4657,0 -0.84588,0.22069 -0.84588,0.49042 0,0.26972 -0.41342,0.49042 -0.91833,0.49042 -0.5049,0 -1.05379,0.44138 -1.22011,0.98084 -0.16633,0.53945 -0.71517,0.98084 -1.2201,0.98084 -0.5049,0 -0.91834,0.22067 -0.91834,0.49041 0,0.26974 -0.38017,0.49042 -0.84587,0.49042 -0.46452,0 -1.15357,0.44138 -1.53019,0.98084 -0.37658,0.53945 -0.96111,0.98083 -1.29851,0.98083 -0.86487,0 -9.63131,9.14508 -9.63131,10.04743 0,0.40829 -0.20433,0.74178 -0.45381,0.74178 -0.24949,0 -0.98845,0.55172 -1.64187,1.22604 -0.65341,0.67432 -1.51829,1.22604 -1.9222,1.22604 -0.40394,0 -0.73422,0.21456 -0.73422,0.47692 0,0.72706 -12.24021,13.25478 -12.95065,13.25478 -0.34095,0 -0.92903,0.44139 -1.30565,0.98084 -0.37659,0.53947 -1.06565,0.98085 -1.53015,0.98085 -0.46571,0 -0.84588,0.22067 -0.84588,0.49041 0,0.26974 -0.4277,0.49041 -0.95042,0.49041 -0.52274,0 -0.95043,0.21088 -0.95043,0.46835 0,0.25748 -0.74846,0.61303 -1.66322,0.78957 -1.20348,0.23296 -1.66323,0.5787 -1.66323,1.24935 0,0.50881 -0.21385,0.92567 -0.47521,0.92567 -0.26137,0 -0.47522,0.44137 -0.47522,0.98081 0,0.53949 -0.21384,0.98085 -0.47521,0.98085 -0.26136,0 -0.4752,0.39235 -0.4752,0.87294 0,0.47939 -0.42769,1.19051 -0.95042,1.57916 -0.52273,0.38866 -0.95042,0.99679 -0.95042,1.3511 0,0.83615 -3.10787,4.0435 -3.91811,4.0435 -0.34334,0 -0.9326,0.44137 -1.3092,0.98082 -0.37661,0.53946 -1.06566,0.98084 -1.53017,0.98084 -0.46572,0 -0.84588,0.2207 -0.84588,0.49042 0,0.26973 -0.42769,0.49042 -0.95042,0.49042 -0.52273,0 -0.95042,0.2207 -0.95042,0.49041 0,0.26975 -0.42769,0.49044 -0.95042,0.49044 -0.63322,0 -0.95042,0.32734 -0.95042,0.98082 0,0.53948 -0.21385,0.98083 -0.47521,0.98083 -0.26136,0 -0.4752,0.44139 -0.4752,0.98084 0,0.53946 -0.19008,0.98084 -0.42413,0.98084 -0.23286,0 -0.55719,0.55173 -0.72112,1.22606 -0.16397,0.67431 -0.50849,1.22604 -0.7651,1.22604 -0.25542,0 -0.4657,0.33838 -0.4657,0.75157 0,0.91831 -3.05203,4.1526 -3.918114,4.1526 -0.343336,0 -0.93259,0.44138 -1.309197,0.98085 -0.376607,0.53945 -1.065657,0.98084 -1.53019,0.98084 -0.465697,0 -0.845857,0.22069 -0.845857,0.49042 0,0.26972 -0.42769,0.49042 -0.950427,0.49042 -0.522729,0 -0.950419,0.22066 -0.950419,0.4904 0,0.26972 -0.427689,0.49042 -0.950418,0.49042 -0.633211,0 -0.950416,0.32736 -0.950416,0.98084 0,0.53945 -0.213849,0.98084 -0.475209,0.98084 -0.261369,0 -0.475209,0.44136 -0.475209,0.98085 0,0.53945 -0.213849,0.98082 -0.475209,0.98082 -0.261369,0 -0.475213,0.39234 -0.475213,0.87293 0,0.4794 -0.427689,1.1905 -0.950419,1.57917 -0.522731,0.38864 -0.950421,1.09977 -0.950421,1.57913 0,0.48062 -0.204339,0.87295 -0.453826,0.87295 -0.249482,0 -0.988435,0.5517 -1.641848,1.22605 -0.653413,0.67433 -1.363853,1.22605 -1.580073,1.22605 -0.215032,0 -0.699746,0.44135 -1.07635,0.98083 -0.376604,0.53945 -1.065657,0.98082 -1.530174,0.98082 -0.465707,0 -0.845874,0.22069 -0.845874,0.49043 0,0.26972 -0.427689,0.49041 -0.950419,0.49041 -0.522732,0 -0.950421,0.22069 -0.950421,0.49042 0,0.26974 -0.336209,0.49043 -0.747266,0.49043 -0.959924,0 -2.103992,1.18067 -2.103992,2.17131 0,0.42422 -0.213845,0.77119 -0.47521,0.77119 -0.261365,0 -0.475209,0.39234 -0.475209,0.87295 0,0.47938 -0.427689,1.19049 -0.950421,1.57914 -0.52273,0.38867 -0.950419,0.99556 -0.950419,1.34743 0,0.79203 -4.046411,5.02799 -4.803182,5.02799 -0.302946,0 -0.89577,0.40583 -1.318708,0.90238 -0.422936,0.49656 -1.375731,1.05684 -2.11587,1.24568 -1.501664,0.38252 -3.642484,2.35891 -3.642484,3.36181 0,0.35677 -0.427688,0.96735 -0.950419,1.35601 -0.522731,0.38866 -0.95042,1.09976 -0.95042,1.57912 0,0.51005 -0.351655,0.87295 -0.845872,0.87295 -0.464519,0 -1.153573,0.44139 -1.530176,0.98085 -0.376604,0.53946 -1.065659,0.98084 -1.530176,0.98084 -0.465705,0 -0.845873,0.2207 -0.845873,0.49041 0,0.26975 -0.427689,0.49042 -0.950419,0.49042 -0.522732,0 -0.95042,0.22068 -0.95042,0.49043 0,0.26973 -0.427689,0.4904 -0.950419,0.4904 -0.522731,0 -0.95042,0.2207 -0.95042,0.49042 0,0.26973 -0.801917,0.49656 -1.782037,0.50515 -1.397118,0.0113 -2.038649,0.33592 -2.970061,1.5019 -0.653414,0.81777 -1.669174,2.01562 -2.257247,2.6605 -0.58807,0.64492 -1.069221,1.73486 -1.069221,2.42144 0,0.6866 -0.213845,1.24811 -0.475211,1.24811 -0.261365,0 -0.475209,0.2256 -0.475209,0.50146 0,0.79327 -5.128702,5.87399 -5.929429,5.87399 -0.397989,0 -0.723508,0.2207 -0.723508,0.49041 0,0.26974 -0.594011,0.49042 -1.321083,0.49042 -0.77578,0 -1.602644,0.40461 -2.005385,0.98084 -0.376603,0.53947 -0.965864,0.98083 -1.309202,0.98083 -1.049026,0 -3.918106,3.32014 -3.918106,4.53392 0,0.62406 -0.427688,1.45287 -0.950419,1.84153 -0.52273,0.38865 -0.95042,1.06543 -0.95042,1.50435 0,0.97471 -1.561064,2.90941 -2.346346,2.90941 -0.314827,0 -0.893396,0.33103 -1.285444,0.73562 -0.392047,0.40461 -1.236733,0.73564 -1.87589,0.73564 -1.638286,0 -7.322982,5.89359 -7.322982,7.5929 0,0.67922 -0.213845,1.23462 -0.47521,1.23462 -0.261366,0 -0.475211,0.44136 -0.475211,0.98084 0,0.53945 -0.213844,0.98082 -0.47521,0.98082 -0.2613639,0 -0.4752077,0.33716 -0.4752077,0.74912 0,0.83127 -3.9715667,5.13591 -4.7390303,5.13591 -0.2684937,0 -0.4882782,0.22069 -0.4882782,0.49041 0,0.26975 -0.4276887,0.49042 -0.9504195,0.49042 -0.633217,0 -0.9504194,0.32736 -0.9504194,0.98085 0,0.53945 -0.1805797,0.98082 -0.4027403,0.98082 -0.8137969,0 -2.70275554,2.08796 -2.092111,2.31355 0.32670669,0.12139 0.59401218,0.64367 0.59401218,1.15983 0,0.51741 0.2138444,0.94039 0.47520972,0.94039 0.2613654,0 0.4752099,0.44139 0.4752099,0.98084 0,0.53944 0.2138442,0.98083 0.4752097,0.98083 0.2613653,0 0.4752098,0.34083 0.4752098,0.75769 0,0.41685 0.4811499,1.29716 1.0692218,1.95677 2.8488826,3.19263 3.207666,3.67079 3.207666,4.27031 0,0.35557 0.4276887,0.96368 0.9504194,1.35233 0.5227307,0.38867 0.9563597,1.26528 0.9646759,1.94696 0.00832,0.7761 0.5571836,1.70052 1.462458,2.46681 0.795977,0.67432 2.816806,2.60535 4.490733,4.29116 1.673927,1.68582 3.265879,3.06512 3.537937,3.06512 0.772215,0 5.701329,5.28425 5.701329,6.11183 0,1.0544 7.972831,9.09113 9.01948,9.09113 0.652226,0 5.712021,5.21191 5.712021,5.88378 0,0.28077 1.336528,1.92366 2.970062,3.65118 1.633533,1.72749 3.504671,3.81298 4.158085,4.63444 0.653414,0.82268 1.462457,1.50068 1.797481,1.50925 0.336211,0.009 1.321084,0.73195 2.188342,1.60859 0.868445,0.87661 2.037461,1.91875 2.598208,2.31477 0.560747,0.39723 1.019326,1.01885 1.019326,1.38052 0,0.36292 1.069221,1.73485 2.376047,3.04796 1.306828,1.31309 2.37605,2.6458 2.37605,2.95967 0,0.31386 0.641533,1.18804 1.425628,1.94451 0.784097,0.75646 1.42563,1.63309 1.42563,1.94819 0,0.82267 1.228418,1.97515 2.103991,1.97515 0.411057,0 0.747268,-0.22069 0.747268,-0.49042 0,-0.26973 0.320767,-0.49042 0.712814,-0.49042 0.392048,0 0.712815,-0.22069 0.712815,-0.49042 0,-0.26973 0.427689,-0.49042 0.950419,-0.49042 0.522732,0 0.950421,-0.22067 0.950421,-0.4904 0,-0.26976 0.641532,-0.49041 1.425628,-0.49041 0.784097,0 1.425629,-0.22069 1.425629,-0.49044 0,-0.26972 0.641535,-0.49041 1.42563,-0.49041 0.784097,0 1.425629,-0.22069 1.425629,-0.49043 0,-0.26972 0.983684,-0.49041 2.185965,-0.49041 1.815301,0 2.410502,-0.24889 3.516552,-1.47126 0.733011,-0.80919 1.588389,-1.47124 1.90084,-1.47124 0.828053,0 3.326467,-2.9045 3.326467,-3.86695 0,-0.45119 0.427689,-1.139 0.950421,-1.52766 0.52273,-0.38867 0.950418,-0.88888 0.950418,-1.1108 0,-0.65226 2.275068,-2.81254 2.962935,-2.81254 0.345714,0 0.937349,-0.44139 1.313957,-0.98084 0.376605,-0.53946 1.018134,-0.98084 1.425627,-0.98084 0.407493,0 1.049019,-0.44137 1.425625,-0.98083 0.376606,-0.53946 0.972988,-0.98082 1.323461,-0.98082 0.351656,0 1.681049,-1.10345 2.953431,-2.45211 1.272383,-1.34865 2.649297,-2.45208 3.057981,-2.45208 0.40867,0 0.7437,-0.3384 0.7437,-0.75158 0,-0.41439 0.69498,-1.48598 1.54443,-2.38098 0.84943,-0.89625 1.85925,-2.10265 2.24298,-2.68137 0.38493,-0.57869 0.98131,-1.05193 1.32703,-1.05193 0.69025,0 1.26643,-0.44137 3.68645,-2.81991 0.8922,-0.87662 1.864,-1.59387 2.15982,-1.59387 0.29582,0 1.13693,-0.66204 1.86995,-1.47124 0.73301,-0.8092 1.57531,-1.47126 1.87471,-1.47126 0.51915,0 6.02921,-5.64716 9.53031,-9.7679 0.91479,-1.07647 1.98996,-1.96658 2.39032,-1.98006 0.39918,-0.0123 1.02526,-0.45117 1.39117,-0.9747 0.36592,-0.52351 1.48267,-1.09487 2.48178,-1.26895 0.99794,-0.17412 1.81531,-0.5174 1.81531,-0.76384 0,-0.24645 0.42769,-0.44751 0.95042,-0.44751 0.52274,0 0.95042,-0.22069 0.95042,-0.49043 0,-0.26971 0.42769,-0.49041 0.95042,-0.49041 0.63322,0 0.95042,-0.32734 0.95042,-0.98082 0,-0.53948 0.21384,-0.98085 0.47521,-0.98085 0.26136,0 0.4752,-0.44138 0.4752,-0.98084 0,-0.53944 0.21386,-0.98083 0.47521,-0.98083 0.26137,0 0.47522,-0.39234 0.47522,-0.87295 0,-0.47938 0.42769,-1.19048 0.95042,-1.57913 0.52273,-0.38866 0.95041,-0.99924 0.95041,-1.35601 0,-0.35801 0.5346,-1.20153 1.18802,-1.87585 0.65341,-0.67432 1.18802,-1.43693 1.18802,-1.69439 0,-0.25748 0.38018,-0.46836 0.84589,-0.46836 0.46451,0 1.15357,-0.44139 1.53016,-0.98084 0.37661,-0.53944 1.06566,-0.98083 1.53019,-0.98083 0.4657,0 0.84586,-0.22067 0.84586,-0.49042 0,-0.26974 0.42769,-0.49041 0.95043,-0.49041 0.52273,0 0.95041,-0.22069 0.95041,-0.49043 0,-0.26972 0.42769,-0.49041 0.95043,-0.49041 0.63321,0 0.95042,-0.32735 0.95042,-0.98084 0,-0.53946 0.21384,-0.98085 0.47521,-0.98085 0.26137,0 0.47521,-0.33102 0.47521,-0.73562 0,-0.40458 0.21385,-0.73561 0.47522,-0.73561 0.26135,0 0.4752,-0.39235 0.4752,-0.87294 0,-0.47939 0.42769,-1.19051 0.95041,-1.57917 0.52274,-0.38865 0.95043,-0.99677 0.95043,-1.3511 0,-0.83615 3.10786,-4.0435 3.9181,-4.0435 0.34333,0 0.93259,-0.44137 1.30919,-0.98082 0.37661,-0.53948 1.06566,-0.98084 1.53019,-0.98084 0.4657,0 0.84586,-0.2207 0.84586,-0.49042 0,-0.26973 0.32076,-0.49042 0.71281,-0.49042 0.39206,0 0.71283,-0.2207 0.71283,-0.49042 0,-0.26972 0.42769,-0.49041 0.95041,-0.49041 0.63322,0 0.95043,-0.32738 0.95043,-0.98084 0,-0.53947 0.21384,-0.98083 0.47521,-0.98083 0.26136,0 0.4752,-0.44139 0.4752,-0.98084 0,-0.53946 0.21385,-0.98084 0.47522,-0.98084 0.26137,0 0.47521,-0.39234 0.47521,-0.87294 0,-0.47939 0.42769,-1.19049 0.95043,-1.57914 0.52272,-0.38866 0.95041,-0.88644 0.95041,-1.10591 0,-0.65348 3.24449,-3.79828 3.91809,-3.79828 0.34335,0 0.93261,-0.44138 1.30922,-0.98083 0.37659,-0.53946 1.06564,-0.98084 1.53016,-0.98084 0.4657,0 0.84588,-0.2207 0.84588,-0.49043 0,-0.26973 0.42769,-0.49042 0.95041,-0.49042 0.52274,0 0.95043,-0.22068 0.95043,-0.49041 0,-0.26974 0.42769,-0.49041 0.95041,-0.49041 0.63323,0 0.95042,-0.32736 0.95042,-0.98084 0,-0.53946 0.21385,-0.98083 0.47522,-0.98083 0.26137,0 0.47521,-0.42545 0.47521,-0.94529 0,-0.52108 0.32077,-1.27753 0.71281,-1.68212 0.39205,-0.40461 0.71282,-0.97961 0.71282,-1.27754 0,-0.81655 3.18984,-3.94175 4.02384,-3.94175 0.40037,0 0.72826,-0.22069 0.72826,-0.49041 0,-0.26974 0.42769,-0.49044 0.95041,-0.49044 0.52274,0 0.95043,-0.22069 0.95043,-0.49041 0,-0.26972 0.42769,-0.49042 0.95043,-0.49042 0.52272,0 0.95041,-0.22069 0.95041,-0.49042 0,-0.26972 0.62371,-0.49042 1.38642,-0.49042 1.84974,0 5.2665,-3.31646 5.2665,-5.11137 0,-0.69516 0.21385,-1.26405 0.47522,-1.26405 0.26136,0 0.47521,-0.33839 0.47521,-0.7528 0,-0.4144 0.43006,-1.24199 0.95517,-1.83908 3.81474,-4.33772 4.7616,-5.25481 5.42334,-5.25481 0.41224,0 0.74964,-0.22069 0.74964,-0.49041 0,-0.26974 0.64154,-0.49043 1.42563,-0.49043 0.7841,0 1.42563,-0.22069 1.42563,-0.49041 0,-0.26975 0.38017,-0.49042 0.84588,-0.49042 0.46451,0 1.15357,-0.44138 1.53015,-0.98085 0.37662,-0.53945 1.06567,-0.98084 1.5302,-0.98084 0.56311,0 0.84586,-0.3727 0.84586,-1.11814 0,-0.61424 0.42769,-1.4357 0.95042,-1.82435 0.52272,-0.38866 0.95041,-0.99556 0.95041,-1.34745 0,-0.87536 4.08445,-5.028 4.94576,-5.028 0.38016,0 0.82806,-0.44137 0.99438,-0.98081 0.19365,-0.6302 0.71874,-0.98085 1.46958,-0.98085 1.31158,0 5.42095,-3.89392 5.42095,-5.13591 0,-0.41196 0.21385,-0.74912 0.47522,-0.74912 0.26135,0 0.4752,-0.34818 0.4752,-0.77363 0,-1.07402 3.67812,-4.62096 4.7913,-4.62096 0.50136,0 0.91122,-0.22068 0.91122,-0.49043 0,-0.26973 0.42769,-0.4904 0.95042,-0.4904 0.52274,0 0.95042,-0.2207 0.95042,-0.49042 0,-0.26973 0.59401,-0.49042 1.32108,-0.49042 0.81738,0 1.58602,-0.40093 2.01964,-1.0544 0.38373,-0.57992 1.60739,-2.00827 2.71822,-3.17424 1.19751,-1.25793 2.01962,-2.58083 2.01962,-3.25148 0,-0.62158 0.42768,-1.44917 0.95042,-1.83782 0.52273,-0.38866 0.95043,-0.99925 0.95043,-1.356 0,-0.84231 2.14675,-3.05776 2.96293,-3.05776 0.34572,0 0.93735,-0.44139 1.31395,-0.98084 0.37661,-0.53946 1.17971,-0.98084 1.7856,-0.98084 0.6047,0 1.57295,-0.44384 2.15152,-0.98575 4.59172,-4.30097 5.09188,-4.89559 5.09188,-6.05175 0,-0.67678 0.32077,-1.56077 0.71281,-1.96536 0.39205,-0.40459 0.71282,-0.98206 0.71282,-1.28367 0,-0.76259 2.19783,-2.95478 2.96292,-2.95478 0.34572,0 0.93735,-0.44136 1.31395,-0.98084 0.37661,-0.53944 1.17614,-0.98081 1.77729,-0.98081 1.32227,0 7.25171,-5.91936 7.25171,-7.23859 0,-0.48549 0.42768,-1.20029 0.95042,-1.58894 0.52272,-0.38865 0.95041,-0.99923 0.95041,-1.35602 0,-0.88028 2.16221,-3.05774 3.03541,-3.05774 0.38609,0 0.83755,-0.44137 1.00387,-0.98084 0.19722,-0.64001 0.71876,-0.98084 1.50405,-0.98084 0.72469,0 1.73332,-0.58604 2.53523,-1.47126 0.73301,-0.80918 1.57415,-1.47124 1.86997,-1.47124 0.74606,0 3.83256,-3.25639 3.83256,-4.0435 0,-0.35432 0.42769,-0.96244 0.95042,-1.35111 0.52273,-0.38865 0.95042,-1.01883 0.95042,-1.39891 0,-0.89502 1.82005,-2.52442 2.81918,-2.52442 0.42531,0 1.0811,-0.44139 1.4577,-0.98085 0.3766,-0.53944 1.01813,-0.98083 1.42563,-0.98083 0.4075,0 1.04902,-0.44139 1.42562,-0.98084 0.37661,-0.53947 0.86608,-0.98084 1.08586,-0.98084 0.22098,0 1.44346,-1.10345 2.71582,-2.45208 1.27239,-1.34865 2.64931,-2.45209 3.05799,-2.45209 0.40868,0 0.7437,-0.33594 0.7437,-0.74667 0,-0.84598 4.93149,-6.11919 5.72271,-6.11919 0.28395,0 1.55869,-1.10344 2.83105,-2.45208 1.27239,-1.34867 2.61961,-2.45211 2.99146,-2.45211 0.37184,0 1.07872,-0.55172 1.56937,-1.22603 0.49068,-0.67433 1.16784,-1.22605 1.50642,-1.22605 0.33741,0 3.16727,-2.64826 6.28821,-5.88501 3.12094,-3.23677 5.95439,-5.88504 6.29652,-5.88504 0.34217,0 0.93024,-0.44136 1.30684,-0.98082 0.3766,-0.53947 1.06565,-0.98084 1.53019,-0.98084 0.46569,0 0.84585,-0.22069 0.84585,-0.49041 0,-0.26974 0.42769,-0.49044 0.95043,-0.49044 0.52273,0 0.95041,-0.22069 0.95041,-0.49041 0,-0.26972 0.32077,-0.49042 0.71282,-0.49042 0.39206,0 0.71283,-0.22069 0.71283,-0.49042 0,-0.26972 0.42768,-0.49042 0.95041,-0.49042 0.52749,0 0.95043,-0.32733 0.95043,-0.73561 0,-0.40461 0.21384,-0.73563 0.47521,-0.73563 0.26136,0 0.4752,-0.44138 0.4752,-0.98084 0,-0.53945 0.21384,-0.98084 0.47521,-0.98084 0.26137,0 0.47521,-0.39232 0.47521,-0.87295 0,-0.47938 0.42769,-1.19046 0.95041,-1.57913 0.52274,-0.38866 0.95043,-0.99677 0.95043,-1.3511 0,-0.35312 0.74131,-1.40873 1.64777,-2.34297 0.9053,-0.93549 1.92818,-1.70053 2.27033,-1.70053 0.34334,0 0.93259,-0.44138 1.3092,-0.98084 0.3766,-0.53946 1.06565,-0.98085 1.53018,-0.98085 0.4657,0 0.84587,-0.22068 0.84587,-0.49041 0,-0.26974 0.42769,-0.49041 0.95041,-0.49041 0.52274,0 0.95043,-0.22069 0.95043,-0.49041 0,-0.26974 0.42769,-0.49043 0.95041,-0.49043 0.59402,0 0.95043,-0.32735 0.95043,-0.87294 0,-0.47939 -0.42769,-1.19049 -0.95043,-1.57916 -0.52272,-0.38865 -0.95041,-1.05071 -0.95041,-1.47124 0,-0.42054 -0.42769,-1.08259 -0.95043,-1.47126 -0.52272,-0.38866 -0.95041,-0.98941 -0.95041,-1.33394 0,-0.34574 -0.21385,-0.62775 -0.47521,-0.62775 -0.26137,0 -0.47521,-0.66204 -0.47521,-1.47123 0,-0.8092 -0.21384,-1.47126 -0.47521,-1.47126 -0.26136,0 -0.4752,-0.44139 -0.4752,-0.98084 0,-0.53945 -0.21386,-0.98084 -0.47522,-0.98084 -0.26137,0 -0.47521,-0.77485 -0.47521,-1.72259 0,-1.714 -8.05123,-11.02827 -9.53271,-11.02827 -0.65578,0 -5.1988,-4.7117 -5.1988,-5.39093 0,-0.66208 -8.8674,-9.81202 -9.50893,-9.81202 -0.50134,0 -5.69778,-5.1494 -5.69778,-5.64717 0,-0.66574 -8.38744,-9.55581 -9.01591,-9.55581 -0.66767,0 -5.71558,-5.2168 -5.71558,-5.90586 0,-0.45976 -1.25337,-1.78511 -5.94013,-6.28347 -0.52273,-0.50146 -1.26524,-1.38544 -1.64897,-1.9629 -0.38493,-0.57747 -0.97775,-1.05073 -1.31752,-1.05073 -0.86489,0 -5.82488,-5.21068 -5.82488,-6.1192 0,-0.41071 -0.33503,-0.74665 -0.7437,-0.74665 -0.40869,0 -1.7856,-1.10344 -3.05798,-2.4521 -1.27239,-1.34864 -2.60179,-2.45208 -2.95343,-2.45208 -0.35048,0 -0.94687,-0.44139 -1.32347,-0.98084 -0.3766,-0.53946 -1.01814,-0.98085 -1.42562,-0.98085 -0.4075,0 -1.04902,-0.44136 -1.42564,-0.98081 -0.37659,-0.53947 -0.95872,-0.98084 -1.29256,-0.98084 -0.33503,0 -0.60827,-0.20599 -0.60827,-0.45733 0,-0.25133 -0.42768,-0.59707 -0.95042,-0.76872 -0.52272,-0.17165 -0.95041,-0.68903 -0.95041,-1.15126 0,-0.46099 -0.42769,-1.15739 -0.95043,-1.54603 -0.52272,-0.38866 -0.95041,-0.99311 -0.95041,-1.34253 0,-0.34942 -1.60028,-2.28658 -3.55695,-4.30465 -1.95549,-2.0193 -3.83258,-3.67077 -4.17115,-3.67077 -0.3386,0 -0.9243,-0.44139 -1.3009,-0.98084 -0.3766,-0.53946 -0.96822,-0.98084 -1.31396,-0.98084 -0.34689,0 -1.15474,-0.54191 -1.79628,-1.20397 -0.64153,-0.66206 -1.16664,-1.49577 -1.16664,-1.8538 0,-0.35676 -0.42769,-0.96734 -0.95041,-1.35599 -0.52273,-0.38866 -0.95043,-0.95509 -0.95043,-1.25915 0,-0.83248 -1.68225,-2.66419 -2.44616,-2.66419 -0.36827,0 -0.97891,-0.44139 -1.35551,-0.98084 -0.3766,-0.53947 -1.06566,-0.98085 -1.53018,-0.98085 -0.4657,0 -0.84588,-0.22068 -0.84588,-0.49041 0,-0.26974 -0.64153,-0.49041 -1.42562,-0.49041 -0.7841,0 -1.42565,-0.2207 -1.42565,-0.49041 0,-0.26974 -0.32551,-0.49043 -0.72348,-0.49043 -0.94093,0 -5.92945,-5.14817 -5.92945,-6.11919 0,-0.41072 -0.21384,-0.74668 -0.4752,-0.74668 -0.26136,0 -0.4752,-0.55905 -0.4752,-1.24197 0,-0.73195 -0.63561,-1.93102 -1.54444,-2.91677 -0.84945,-0.91953 -1.82006,-2.01562 -2.15744,-2.43493 -0.33624,-0.41929 -1.24507,-0.76259 -2.01965,-0.76259 -0.77342,0 -1.40663,-0.22069 -1.40663,-0.49042 0,-0.26972 -0.42768,-0.49042 -0.95042,-0.49042 -0.52273,0 -0.95042,-0.22069 -0.95042,-0.49041 0,-0.26974 -0.38017,-0.49044 -0.84587,-0.49044 -0.46452,0 -1.15358,-0.44136 -1.53018,-0.98082 -0.37661,-0.53947 -1.06566,-0.98083 -1.53017,-0.98083 -0.49422,0 -0.84588,-0.36291 -0.84588,-0.87294 0,-0.47939 -0.42768,-1.1905 -0.95042,-1.57916 -0.52273,-0.38866 -0.95042,-1.09975 -0.95042,-1.57914 0,-0.48062 -0.21384,-0.87294 -0.47521,-0.87294 -0.26137,0 -0.47521,-0.3384 -0.47521,-0.75158 0,-0.97592 -3.07816,-4.1526 -4.02383,-4.1526 -0.40037,0 -0.72826,-0.22069 -0.72826,-0.49043 0,-0.26973 -0.32076,-0.49042 -0.71281,-0.49042 -0.39205,0 -0.71281,-0.22069 -0.71281,-0.49042 0,-0.26973 -0.32672,-0.49042 -0.7259,-0.49042 -0.39798,0 -1.68699,-0.99309 -2.86313,-2.20688 -1.17616,-1.21378 -2.34635,-2.20689 -2.60178,-2.20689 -0.25423,0 -0.46214,-0.44137 -0.46214,-0.98081 0,-0.53947 -0.21385,-0.98084 -0.47521,-0.98084 -0.26137,0 -0.47521,-0.44139 -0.47521,-0.98084 0,-0.53945 -0.21385,-0.98084 -0.4752,-0.98084 -0.26137,0 -0.47522,-0.33839 -0.47522,-0.75157 0,-0.97593 -3.07816,-4.15261 -4.02383,-4.15261 -0.40036,0 -0.72826,-0.22069 -0.72826,-0.49042 0,-0.26974 -0.42768,-0.49041 -0.95042,-0.49041 -0.52273,0 -0.95042,-0.22069 -0.95042,-0.49041 0,-0.26974 -0.3374,-0.49042 -0.74964,-0.49042 -0.41345,0 -1.53613,-0.87541 -2.49486,-1.94576 -2.67543,-2.98419 -2.93324,-3.35077 -2.93324,-4.16363 0,-0.41562 -0.21384,-0.75647 -0.4752,-0.75647 -0.26137,0 -0.47521,-0.44137 -0.47521,-0.98085 0,-0.53946 -0.21385,-0.98082 -0.47521,-0.98082 -0.26137,0 -0.47522,-0.22806 -0.47522,-0.50636 0,-1.04092 -3.30032,-3.90739 -4.49903,-3.90739 -0.66173,0 -1.20348,-0.22069 -1.20348,-0.49044 0,-0.26972 -0.42768,-0.49041 -0.95041,-0.49041 -0.52273,0 -0.95041,-0.2207 -0.95041,-0.49042 0,-0.26973 -0.38018,-0.49042 -0.84589,-0.49042 -0.46451,0 -1.15357,-0.44139 -1.53017,-0.98084 -0.3766,-0.53947 -0.96468,-0.98082 -1.30564,-0.98082 -1.10367,0 -4.75329,-4.21026 -5.11207,-5.89729 -0.38254,-1.79493 -2.16933,-3.91108 -3.3027,-3.91108 -0.40394,0 -0.73422,-0.22069 -0.73422,-0.49042 0,-0.26972 -0.38016,-0.49042 -0.84586,-0.49042 -0.46452,0 -1.15358,-0.44138 -1.53019,-0.98083 -0.37658,-0.53947 -1.04782,-0.98085 -1.49215,-0.98085 -0.97299,0 -4.68556,-3.575142 -4.68556,-4.511841 0,-0.366587 -0.42769,-0.984514 -0.95041,-1.373171 -0.52274,-0.388657 -0.95043,-1.099761 -0.95043,-1.579145 0,-0.480609 -0.21384,-0.872944 -0.47521,-0.872944 -0.26137,0 -0.47522,-0.340842 -0.47522,-0.757699 0,-1.09363 -2.16338,-3.165648 -3.30507,-3.165648 -0.53461,0 -0.97182,-0.220688 -0.97182,-0.490418 0,-0.269729 -0.42768,-0.490418 -0.95041,-0.490418 -0.52274,0 -0.95042,-0.220688 -0.95042,-0.490418 0,-0.269728 -0.42769,-0.490418 -0.95042,-0.490418 -0.52274,0 -0.95043,-0.220688 -0.95043,-0.490417 0,-0.269729 -0.38016,-0.490418 -0.84587,-0.490418 -0.46452,0 -1.15357,-0.441375 -1.53016,-0.980837 -0.37662,-0.53946 -1.06566,-0.980837 -1.53018,-0.980837 -0.4657,0 -0.84588,-0.220688 -0.84588,-0.490418 0,-0.269729 -0.38016,-0.490418 -0.84587,-0.490418 -0.46451,0 -1.15357,-0.441376 -1.53017,-0.980836 -0.3766,-0.53946 -1.05142,-0.980837 -1.49928,-0.980837 -0.89816,0 -5.62888,-4.521654 -5.62888,-5.379886 0,-0.606893 -0.51797,-1.230948 -5.20116,-6.267542 -1.81888,-1.955543 -3.53556,-3.555533 -3.81476,-3.555533 -0.50727,0 -5.71558,-5.13713 -5.71558,-5.637356 0,-0.144675 -1.55036,-1.880754 -3.44526,-3.85714 -1.8949,-1.977609 -3.7601,-4.07047 -4.14383,-4.651615 -0.38492,-0.581147 -0.97774,-1.056852 -1.31753,-1.056852 -0.78409,0 -5.81775,-5.162876 -5.84626,-5.996587 -0.013,-0.343294 -0.87795,-1.396466 -1.9246,-2.34052 -1.04546,-0.944054 -3.06272,-2.875077 -4.48123,-4.291158 -1.41968,-1.416083 -2.85956,-2.574697 -3.19935,-2.574697 -0.33978,0 -0.93259,-0.473252 -1.31752,-1.051947 -0.38373,-0.578693 -1.39355,-1.785121 -2.24298,-2.681359 -0.84945,-0.895013 -1.54443,-1.864817 -1.54443,-2.154162 0,-0.804286 -8.493192,-9.315494 -9.29511,-9.315494 -0.927846,0 -5.911607,-5.159198 -5.911607,-6.119191 0,-0.419308 -0.415807,-0.746661 -0.950418,-0.746661 -0.522732,0 -0.950421,-0.202297 -0.950421,-0.449959 0,-0.722142 -3.663868,-4.454223 -4.371929,-4.454223 -0.35522,0 -0.953984,-0.4413757 -1.330587,-0.9808357 -0.40274,-0.5762412 -1.229606,-0.9808363 -2.005385,-0.9808363 -0.727072,0 -1.321083,-0.220688 -1.321083,-0.4904181 0,-0.2697299 -0.641534,-0.490418 -1.425631,-0.490418 -0.784094,0 -1.425628,-0.2206881 -1.425628,-0.4904181 0,-0.2697301 -0.427689,-0.4904182 -0.950419,-0.4904182 -0.522732,0 -0.950421,-0.2206882 -0.950421,-0.4904183 0,-0.2697299 -0.380167,-0.490418 -0.845873,-0.490418 -0.464517,0 -1.153572,-0.4413763 -1.530174,-0.9808362 C 67.3694,3.8743033 66.789642,3.4329267 66.458185,3.4329267 c -0.944479,0 -2.51386,-1.5987628 -2.51386,-2.56120847 C 63.944325,0.3273541 63.587918,0 62.993906,0 62.360689,0 62.043487,0.3273541 62.043487,0.98083626"
     stroke="none"
     fill="#2c5bab"
     fill-rule="evenodd"
     style="fill:#000000;fill-opacity:1;stroke-width:1.20688" />
</svg>
