<?xml version="1.0" encoding="UTF-8" standalone="no"?>
<svg
   id="svg"
   width="400"
   height="400"
   viewBox="0, 0, 400,400"
   version="1.1"
   sodipodi:docname="elements.svg"
   inkscape:version="1.1.1 (3bf5ae0d25, 2021-09-20)"
   xmlns:inkscape="http://www.inkscape.org/namespaces/inkscape"
   xmlns:sodipodi="http://sodipodi.sourceforge.net/DTD/sodipodi-0.dtd"
   xmlns="http://www.w3.org/2000/svg"
   xmlns:svg="http://www.w3.org/2000/svg">
  <defs
     id="defs7" />
  <sodipodi:namedview
     id="namedview5"
     pagecolor="#505050"
     bordercolor="#ffffff"
     borderopacity="1"
     inkscape:pageshadow="0"
     inkscape:pageopacity="0"
     inkscape:pagecheckerboard="1"
     showgrid="false"
     inkscape:zoom="2.005"
     inkscape:cx="199.75062"
     inkscape:cy="160.34913"
     inkscape:window-width="1920"
     inkscape:window-height="991"
     inkscape:window-x="-9"
     inkscape:window-y="-9"
     inkscape:window-maximized="1"
     inkscape:current-layer="svg" />
  <g
     id="svgg"
     transform="matrix(1.2586326,0,0,1.2683957,-54.321068,-54.714785)">
    <path
       id="path0"
       d="m 57.789,48.039 c -12.919,9.811 -14.652,26.096 -14.63,137.51 0.03,151.213 -1.374,147.784 60.505,147.784 37.399,0 37.512,-0.029 37.512,-9.804 0,-9.77 -0.127,-9.804 -37.31,-9.804 H 66.556 L 67.592,189.216 68.627,64.706 191.176,63.67 313.725,62.633 v 37.311 37.311 h 12.144 12.143 l -1.359,-36.946 C 335.451,67.625 334.197,62.196 325.787,53.25 L 316.28,43.137 H 190.262 c -94.757,0 -127.619,1.216 -132.473,4.902 m 110.838,119.148 c 0,5.946 44.791,180.503 46.939,182.93 1.49,1.683 12.884,-12.231 25.32,-30.919 l 22.613,-33.979 36.791,36.639 36.792,36.638 11.941,-11.44 11.941,-11.441 -37.201,-37.415 -37.202,-37.416 35.241,-23.112 c 19.382,-12.712 34.729,-23.625 34.104,-24.25 -2.1,-2.099 -187.279,-47.817 -187.279,-46.235"
       stroke="none"
       fill="currentColor"
       fill-rule="evenodd" />
  </g>
</svg>
