<?xml version="1.0" encoding="UTF-8" standalone="no"?>
<svg
   id="svg"
   width="400"
   height="354.5851528384279"
   viewBox="0, 0, 400,354.5851528384279"
   version="1.1"
   sodipodi:docname="image2vector (2).svg"
   inkscape:version="1.1.1 (3bf5ae0d25, 2021-09-20)"
   xmlns:inkscape="http://www.inkscape.org/namespaces/inkscape"
   xmlns:sodipodi="http://sodipodi.sourceforge.net/DTD/sodipodi-0.dtd"
   xmlns="http://www.w3.org/2000/svg"
   xmlns:svg="http://www.w3.org/2000/svg">
  <defs
     id="defs8" />
  <sodipodi:namedview
     id="namedview6"
     pagecolor="#505050"
     bordercolor="#ffffff"
     borderopacity="1"
     inkscape:pageshadow="0"
     inkscape:pageopacity="0"
     inkscape:pagecheckerboard="1"
     showgrid="false"
     showguides="true"
     inkscape:guide-bbox="true"
     inkscape:zoom="2.2617981"
     inkscape:cx="112.96322"
     inkscape:cy="71.403368"
     inkscape:window-width="1920"
     inkscape:window-height="991"
     inkscape:window-x="-9"
     inkscape:window-y="-9"
     inkscape:window-maximized="1"
     inkscape:current-layer="svgg" />
  <g
     id="svgg">
    <path
       id="path0"
       d="m 217.93528,1.0222291 c -3.05679,1.4278942 -5.41223,3.510766 -17.5401,15.5109729 -21.33945,21.114089 -21.49788,21.909119 -7.35573,36.817766 2.33748,2.464065 25.92568,26.24124 52.41856,52.837342 69.22248,69.49401 66.97794,67.031 66.14456,72.57409 -0.72564,4.82493 2.51599,1.30469 -53.58995,58.19827 -9.88757,10.02685 -22.69778,23.07481 -28.46597,28.99489 -5.76819,5.92007 -16.89685,17.30215 -24.73,25.29245 -27.70865,28.26411 -27.45831,25.27563 -4.05707,48.38625 19.31778,19.0786 20.86413,19.37134 34.21304,6.48976 3.20361,-3.09061 8.85561,-8.46838 12.55988,-11.94862 10.4009,-9.77307 117.78782,-116.76298 128.38625,-127.91234 5.17457,-5.44307 11.77508,-12.33297 14.66921,-15.3109 12.68559,-13.05324 12.67819,-13.31965 -0.81436,-27.50593 C 374.15481,147.02335 250.90511,23.863269 236.16618,9.9507795 225.52233,-0.09713025 222.98733,-1.33864 217.93528,1.0222291 M 34.880638,1.2370451 C 31.59253,2.5185698 28.070988,5.4922954 17.399683,15.996163 2.6713189,30.493079 0.67500391,33.107725 0.70986022,37.853684 c 0.0422502,5.592585 -1.64986416,3.765596 68.06270578,73.509166 62.606114,62.63359 60.580224,60.43383 60.580224,65.77369 0,5.32616 1.6636,3.5192 -60.491499,65.7263 -61.8910307,61.94385 -65.8054971,65.99905 -67.7722367,70.21006 -2.6944964,5.7716 -0.93478211,9.07176 11.5131367,21.59426 22.214016,22.34719 24.937031,23.56868 34.957685,15.68683 5.460817,-4.29526 125.179484,-124.0225 157.007494,-157.0178 14.91004,-15.45727 14.95018,-16.13121 1.77767,-29.67724 -3.51309,-3.61397 -10.93959,-11.27362 -16.50181,-17.02206 C 175.86586,132.19158 64.895068,21.602437 53.995613,11.256524 42.479308,0.32618347 40.235831,-0.85003906 34.880638,1.2370451"
       stroke="none"
       fill="#7c8484"
       fill-rule="evenodd"
       style="stroke-width:1.05463;fill:#000000;fill-opacity:1" />
  </g>
</svg>
