<?xml version="1.0" encoding="UTF-8" standalone="no"?>
<svg
   id="svg"
   width="400"
   height="416"
   viewBox="0, 0, 400,416"
   version="1.1"
   sodipodi:docname="i.svg"
   inkscape:version="1.1.1 (3bf5ae0d25, 2021-09-20)"
   xmlns:inkscape="http://www.inkscape.org/namespaces/inkscape"
   xmlns:sodipodi="http://sodipodi.sourceforge.net/DTD/sodipodi-0.dtd"
   xmlns="http://www.w3.org/2000/svg"
   xmlns:svg="http://www.w3.org/2000/svg">
  <defs
     id="defs8" />
  <sodipodi:namedview
     id="namedview6"
     pagecolor="#505050"
     bordercolor="#ffffff"
     borderopacity="1"
     inkscape:pageshadow="0"
     inkscape:pageopacity="0"
     inkscape:pagecheckerboard="1"
     showgrid="false"
     inkscape:zoom="1.9278846"
     inkscape:cx="199.9601"
     inkscape:cy="124.74813"
     inkscape:window-width="1920"
     inkscape:window-height="991"
     inkscape:window-x="-9"
     inkscape:window-y="-9"
     inkscape:window-maximized="1"
     inkscape:current-layer="svg" />
  <path
     id="path0"
     d="m 167.81512,0.48637964 c -4.4098,0.23295212 -7.69124,0.61149936 -7.78418,0.89783626 -0.0894,0.2729908 -0.65771,0.4962366 -1.2642,0.4962366 -2.09587,0 -8.52768,1.5663604 -9.18659,2.237311 -0.36461,0.3712674 -1.06403,0.6745905 -1.55374,0.6745905 -0.48971,0 -1.02351,0.2183926 -1.18556,0.4853169 -0.16205,0.2669243 -0.69346,0.485317 -1.1796,0.485317 -0.48733,0 -0.95679,0.2111128 -1.04496,0.4683308 -0.087,0.2584312 -1.65978,0.8590109 -3.49472,1.3346215 -1.83494,0.4768239 -3.44348,0.9888332 -3.57455,1.1392815 -0.13107,0.1504482 -2.43665,0.6782304 -5.12352,1.1732536 -2.68688,0.4950237 -4.88522,1.0410047 -4.88522,1.2120787 0,0.172288 -1.05807,0.588447 -2.35087,0.925742 -1.29279,0.337296 -2.95496,1.142922 -3.6937,1.789607 -0.73874,0.647898 -1.60021,1.176893 -1.91477,1.178106 -0.31456,0 -0.7435,0.293617 -0.95321,0.652752 -0.20971,0.359134 -1.40003,1.043431 -2.64517,1.521468 -1.24513,0.478037 -2.26388,1.014313 -2.26388,1.191453 0,0.177141 -1.60855,0.730402 -3.57455,1.229065 -1.966,0.498664 -3.57455,1.044645 -3.57455,1.213293 0,0.168647 -0.80428,0.59694 -1.78728,0.952434 -1.7694,0.640618 -2.06609,0.843238 -4.43482,3.033231 -0.669637,0.618779 -2.010093,1.557867 -2.978796,2.085649 -0.968704,0.527783 -1.761063,1.106523 -1.761063,1.28609 0,0.179567 -1.072365,0.718269 -2.383034,1.198733 -1.310668,0.47925 -2.383034,1.024019 -2.383034,1.209652 0,0.184421 -0.548097,0.476824 -1.21773,0.647899 -0.669633,0.171074 -2.437844,1.514188 -3.928432,2.984699 -1.491779,1.47051 -3.195648,2.797852 -3.786641,2.9483 -0.592183,0.151661 -1.075939,0.452558 -1.075939,0.669737 0,0.21718 -0.723251,0.638192 -1.607357,0.935449 -0.897212,0.302109 -3.203989,2.143887 -5.212887,4.162805 -1.981492,1.992226 -3.800939,3.622891 -4.041625,3.622891 -0.240687,0 -0.971087,0.491384 -1.622847,1.091963 -0.651759,0.60058 -1.970769,1.716809 -2.92994,2.47997 -0.957979,0.764374 -1.743189,1.603972 -1.743189,1.86847 0,0.509583 -2.74883,3.289235 -3.26714,3.303795 -0.377711,0.0097 -6.741603,6.523873 -6.741603,6.899993 0,0.470758 -2.747638,3.283169 -3.208755,3.283169 -0.24307,0 -1.068791,0.772867 -1.833745,1.716809 -0.766145,0.943941 -1.874256,2.287056 -2.464057,2.983486 -0.589801,0.695216 -1.073557,1.506909 -1.07594,1.800525 -0.0024,0.29483 -1.450076,1.983733 -3.217096,3.7515 -3.346971,3.3499 -4.405038,4.782798 -4.405038,5.964545 0,0.384614 -0.268092,0.988833 -0.595759,1.340688 -0.327667,0.353068 -0.916276,1.297009 -1.309477,2.097782 -0.392009,0.800773 -1.732466,2.449638 -2.978792,3.664143 -1.245136,1.215719 -2.265074,2.455704 -2.265074,2.7566 0,0.300897 -0.278815,0.835959 -0.620781,1.187813 -0.340773,0.353068 -1.004448,1.623386 -1.472715,2.824545 -0.469457,1.199946 -1.00564,2.291909 -1.191517,2.426584 -0.187068,0.133463 -0.722059,1.082257 -1.191517,2.107491 -0.468266,1.02402 -1.159346,2.22518 -1.535865,2.66924 -2.571294,3.02838 -3.057433,3.74543 -3.535231,5.2208 -0.294305,0.90754 -0.689888,1.65129 -0.879339,1.65129 -0.189452,0 -0.744699,1.63794 -1.234412,3.63988 -0.489714,2.00193 -1.025896,3.63987 -1.192709,3.63987 -0.166812,0 -0.688696,1.09197 -1.159346,2.42659 -0.47184,1.33462 -0.996108,2.42901 -1.166495,2.43144 -0.170387,0.002 -0.7304,0.97913 -1.245135,2.17179 -0.514735,1.19146 -1.17841,2.26158 -1.475098,2.37684 -0.296688,0.11648 -0.82453,1.26911 -1.173644,2.56126 -0.349115,1.29216 -0.806657,2.46784 -1.016364,2.61343 -0.209707,0.1456 -0.7554221,2.65711 -1.2117731,5.58115 -0.4551595,2.92403 -0.9961082,5.38944 -1.2022407,5.47801 -0.2049409,0.0898 -0.3729448,0.61636 -0.3729448,1.17204 0,1.86362 -1.6097395,9.58623 -1.9993655,9.58623 -0.2108985,0 -0.3836685,0.30211 -0.3836685,0.67216 0,0.93302 -1.5501636,5.82623 -1.9397897,6.12227 -0.4658831,0.35428 -1.8730647,9.21132 -1.8730647,11.78835 0,1.3322 -0.2359204,2.28463 -0.59575855,2.40717 -0.80784852,0.27421 -0.87695651,51.65835 -0.0702995,52.18977 0.28953863,0.19049 0.67201565,2.09293 0.84955165,4.22833 0.3693703,4.4273 1.2534759,9.58986 1.7038693,9.94899 0.4349037,0.347 1.9254915,5.27418 1.9254915,6.36493 0,0.50352 0.1846851,0.91483 0.4110734,0.91483 0.4182224,0 1.9731521,7.14022 1.9719606,9.05965 0,0.57753 0.1680039,1.12351 0.3729448,1.21329 0.2061325,0.0886 0.7470812,2.55398 1.2022407,5.47802 0.456351,2.92403 0.9913421,5.43555 1.1891341,5.58114 0.197792,0.1456 0.739932,1.52026 1.204624,3.05507 0.465883,1.53482 1.000874,2.79057 1.189133,2.79057 0.189452,0 0.766146,0.81898 1.282073,1.81994 0.515927,1.00097 1.187942,1.98373 1.494162,2.18271 0.30622,0.2002 0.830487,1.45596 1.166495,2.79058 0.336008,1.33583 0.742315,2.42779 0.90317,2.42779 0.159663,0 0.69108,1.63795 1.180793,3.63988 0.489714,2.00193 1.044961,3.63988 1.235604,3.63988 0.189451,0 0.473032,0.49138 0.631504,1.09196 0.296687,1.132 2.126857,3.64959 3.986816,5.48408 0.5898,0.58238 1.072365,1.26425 1.072365,1.51662 0,0.25358 0.394392,0.89177 0.876956,1.41834 0.482565,0.52657 1.261817,2.20576 1.733658,3.73087 0.470649,1.52511 1.027087,2.77359 1.235603,2.77359 0.208515,0 0.527842,0.49138 0.708952,1.09196 0.181111,0.60058 1.214156,1.96917 2.296054,3.04294 1.080705,1.07255 2.394949,2.81605 2.919216,3.87525 0.524268,1.05799 1.221305,2.21547 1.548972,2.57218 0.327667,0.35792 0.595759,0.95972 0.595759,1.33826 0,0.37976 0.428946,0.96214 0.953213,1.2958 0.524268,0.33366 0.953214,0.8493 0.953214,1.14656 0,0.29726 1.282072,1.82722 2.850109,3.40207 1.566845,1.57364 2.853683,3.04658 2.85964,3.27347 0.0048,0.22567 0.599334,1.00824 1.320201,1.73743 0.720868,0.72919 1.739615,1.9255 2.263883,2.65954 1.037811,1.45109 2.142347,2.60372 7.02995,7.33556 1.769403,1.71317 3.219479,3.28438 3.221862,3.49186 0.0083,0.57752 3.122966,3.5331 3.722299,3.5331 0.29073,0 0.758996,0.43679 1.039003,0.97064 0.280006,0.53385 0.743506,0.97063 1.02947,0.97063 0.284773,0 2.175711,1.69254 4.200098,3.76121 3.955836,4.04147 4.926923,4.91019 7.012077,6.27272 0.737549,0.48289 1.757488,1.26182 2.265074,1.73137 0.508778,0.46954 1.120026,0.85294 1.35833,0.85294 0.238303,0 1.447693,1.03737 2.685679,2.30526 3.178967,3.25283 4.776792,4.43822 6.828584,5.06671 0.983001,0.30089 1.787275,0.70735 1.787275,0.90269 0,0.19534 0.517119,0.48774 1.149814,0.64911 1.186751,0.30332 2.56057,1.34311 5.352295,4.05118 0.890063,0.86386 2.201923,1.72045 2.915638,1.90244 0.71253,0.182 1.53825,0.57753 1.83375,0.87843 0.29549,0.30089 1.47748,0.85537 2.6261,1.2327 1.14862,0.37612 2.19597,0.82383 2.32703,0.99247 0.13107,0.16865 1.25706,0.69886 2.50219,1.17811 1.24514,0.47925 2.26388,1.03373 2.26388,1.23392 0,0.19898 0.37533,0.49017 0.83406,0.6479 1.01637,0.347 2.37708,1.25575 3.484,2.32588 0.45516,0.44042 1.54659,0.9585 2.42474,1.15384 0.87934,0.19413 1.71221,0.53385 1.85161,0.75709 0.1406,0.22204 1.96362,0.78015 4.05116,1.2412 2.08873,0.45984 3.9046,0.97428 4.03567,1.14171 0.13107,0.16743 1.686,0.69764 3.4554,1.17811 1.7694,0.48046 3.21709,1.03494 3.21709,1.23149 0,0.19655 0.91152,0.76923 2.02558,1.27153 1.11407,0.50352 2.28295,1.16476 2.59632,1.47051 0.31456,0.30575 2.03034,0.83232 3.81285,1.17083 1.7837,0.3385 3.34936,0.77893 3.48042,0.9767 0.37057,0.56175 9.34507,1.36374 19.30258,1.72408 5.07467,0.18443 9.18898,0.53992 9.35817,0.80927 0.42418,0.67338 48.99399,0.70492 49.42413,0.0328 0.1823,-0.28634 3.85575,-0.63698 8.65756,-0.82625 10.93098,-0.43072 21.60221,-1.24363 21.91438,-1.67071 0.13584,-0.18684 2.05299,-0.71099 4.25968,-1.16476 2.20549,-0.45377 4.13575,-1.00339 4.28946,-1.22057 0.15251,-0.21839 1.18913,-0.80562 2.3032,-1.30671 1.11407,-0.49988 2.02558,-1.06164 2.02558,-1.24727 0,-0.36277 4.46819,-1.94127 5.49647,-1.94127 0.34077,0 0.69465,-0.22688 0.78521,-0.50473 0.0906,-0.27784 1.97434,-0.82625 4.1858,-1.21935 2.21145,-0.39311 4.13813,-0.89177 4.28231,-1.11017 0.14536,-0.21718 1.39526,-0.7668 2.77981,-1.22178 2.39852,-0.78743 3.03956,-1.19631 5.47859,-3.4955 0.58265,-0.55083 1.81111,-1.30186 2.72858,-1.67191 0.91746,-0.36885 1.78846,-0.8481 1.93621,-1.06528 0.14775,-0.21596 1.53467,-0.7304 3.08246,-1.14049 1.54897,-0.41009 2.92874,-0.90148 3.06815,-1.08954 0.13941,-0.18927 0.89721,-0.66488 1.68362,-1.05677 1.59782,-0.79714 2.11255,-1.19146 4.57304,-3.50157 2.79053,-2.61949 4.38716,-3.78183 6.03026,-4.38605 0.85313,-0.31424 1.55017,-0.72919 1.55017,-0.92089 0,-0.19291 0.73397,-0.59694 1.63119,-0.89905 0.89721,-0.30089 2.99785,-1.94005 4.66955,-3.6423 1.67051,-1.70104 3.91533,-3.4506 4.98888,-3.8886 1.19271,-0.48532 3.72826,-2.57218 6.52832,-5.37367 2.51768,-2.5188 4.84709,-4.58625 5.17595,-4.59474 0.32886,-0.01 1.3488,-0.88328 2.26627,-1.94127 2.13758,-2.46662 6.14108,-6.54328 8.56343,-8.71993 1.039,-0.93424 1.8969,-1.94733 1.90643,-2.25187 0.0215,-0.75346 5.29033,-6.28728 6.33053,-6.64884 0.45873,-0.15894 0.83406,-0.6115 0.83406,-1.00582 0,-0.39311 0.39678,-1.00097 0.88172,-1.34918 0.48495,-0.34943 1.18199,-1.48143 1.54778,-2.51516 0.3658,-1.03494 0.93415,-1.98616 1.26301,-2.11477 0.32767,-0.12861 0.59695,-0.47075 0.59695,-0.76073 0,-0.28998 1.16888,-1.68041 2.5987,-3.09026 1.68957,-1.66585 2.79887,-3.24677 3.17301,-4.51708 0.31694,-1.07377 0.71253,-1.9534 0.88053,-1.9534 0.16801,0 0.5767,-0.76438 0.90794,-1.69861 0.33243,-0.93424 1.60855,-2.76024 2.837,-4.05725 3.1742,-3.35233 4.29423,-4.89321 4.88641,-6.71922 0.28477,-0.87963 0.69227,-1.59911 0.90555,-1.59911 0.21209,0 0.77568,-1.47415 1.2511,-3.27589 0.47541,-1.80174 1.14266,-3.56466 1.48224,-3.91772 0.34078,-0.35186 0.6184,-0.89905 0.6184,-1.21451 0,-0.31546 0.6315,-1.17932 1.40242,-1.92064 0.77091,-0.74132 1.55016,-1.82237 1.73127,-2.40232 0.17992,-0.58117 0.57789,-1.30914 0.88291,-1.61975 0.30503,-0.31181 0.8579,-1.52268 1.22846,-2.69229 0.36937,-1.16962 0.82334,-2.23731 1.00802,-2.37199 0.18469,-0.13467 0.69942,-2.4278 1.14505,-5.09583 0.44444,-2.66803 0.96155,-4.95993 1.14743,-5.0934 0.18588,-0.13346 0.71729,-1.22421 1.18199,-2.42537 0.46469,-1.19994 0.9973,-2.29191 1.18317,-2.42658 0.45278,-0.32638 1.95766,-3.64716 1.95766,-4.32054 0,-0.29361 0.18469,-0.53384 0.41108,-0.53384 0.44682,0 1.97315,-7.19725 1.97196,-9.30232 0,-0.71099 0.18945,-1.36616 0.4206,-1.45595 1.71936,-0.66124 1.79562,-89.49365 0.0774,-90.67297 -0.19421,-0.13346 -0.49329,-1.9898 -0.66606,-4.1252 -0.39439,-4.91019 -1.26181,-9.46367 -1.80038,-9.46367 -0.22758,0 -0.41465,-0.24024 -0.41465,-0.53385 0,-0.73283 -1.50846,-3.94684 -2.18524,-4.65662 -0.30503,-0.3191 -0.8424,-1.57485 -1.19509,-2.79057 -0.35269,-1.21572 -0.7721,-2.21062 -0.93177,-2.21062 -0.15966,0 -0.69108,-2.07473 -1.18079,-4.61051 -0.48971,-2.53578 -1.06283,-4.61051 -1.27373,-4.61051 -0.20971,0 -0.38248,-0.5387 -0.38248,-1.19631 0,-1.60154 -1.35714,-5.59328 -2.1912,-6.44258 -0.36698,-0.37491 -0.66844,-0.98762 -0.66844,-1.36253 0,-0.37612 -0.51593,-1.02645 -1.14624,-1.44746 -0.63031,-0.4198 -1.26777,-1.25818 -1.41671,-1.8624 -0.14894,-0.60422 -0.68989,-1.59063 -1.20105,-2.19121 -0.51116,-0.60058 -1.20105,-2.16937 -1.53229,-3.48579 -0.33243,-1.31763 -0.75781,-2.39504 -0.94726,-2.39504 -0.19064,0 -0.49448,-0.89662 -0.67559,-1.99222 -0.1823,-1.09682 -0.73755,-2.407175 -1.23322,-2.911905 -0.49686,-0.505943 -0.90317,-1.107736 -0.90317,-1.337048 0,-0.229312 -0.74827,-1.157481 -1.66336,-2.062597 -0.91389,-0.905116 -1.66454,-1.925495 -1.66812,-2.267643 -0.002,-0.340935 -0.30264,-0.737682 -0.66606,-0.879637 -0.3646,-0.141955 -1.02589,-1.227852 -1.47033,-2.412025 -0.44324,-1.184173 -0.96275,-2.152381 -1.1522,-2.152381 -0.19064,0 -0.72444,-0.87357 -1.18675,-1.941267 -0.46231,-1.067698 -1.04019,-1.941268 -1.28326,-1.941268 -0.24307,0 -0.4492,-0.272991 -0.45754,-0.606646 -0.0191,-0.724336 -1.63715,-2.783293 -2.2055,-2.806345 -0.88768,-0.0364 -2.9359,-2.36228 -3.83192,-4.35208 -0.17992,-0.400386 -0.60767,-1.016739 -0.95083,-1.369807 -0.34197,-0.351854 -0.62197,-1.036151 -0.62197,-1.519042 0,-0.839598 -2.66066,-3.905588 -3.38987,-3.905588 -0.70895,0 -3.43872,-3.175186 -4.08571,-4.750039 -0.72802,-1.775047 -4.12027,-5.461029 -5.92541,-6.438942 -1.51561,-0.821399 -3.75686,-2.995619 -3.75686,-3.64473 0,-0.743748 -3.01334,-4.093648 -3.68178,-4.093648 -0.30861,0 -0.7316,-0.272991 -0.9413,-0.606647 -0.20971,-0.333655 -1.22727,-1.043431 -2.2615,-1.57728 -1.91477,-0.988833 -4.07737,-2.888849 -4.07737,-3.582852 0,-0.613926 -3.82596,-3.93956 -4.53253,-3.93956 -0.35269,0 -0.92581,-0.285124 -1.27135,-0.633338 -0.34673,-0.349429 -1.35952,-1.059205 -2.25197,-1.57728 -0.89245,-0.51929 -2.85011,-2.180287 -4.35261,-3.692049 -1.5025,-1.511762 -3.44229,-3.124228 -4.3121,-3.581639 -0.871,-0.458624 -1.87068,-1.127148 -2.22218,-1.48507 -0.35269,-0.359134 -1.4894,-0.885703 -2.52602,-1.169613 -1.03662,-0.283911 -1.88498,-0.702497 -1.88498,-0.930596 0,-0.228098 -0.53261,-0.549621 -1.18198,-0.715842 -0.65057,-0.166221 -1.99103,-1.077404 -2.97879,-2.024985 -0.98896,-0.947581 -2.1209,-2.020132 -2.51768,-2.384119 -0.39797,-0.363988 -1.73842,-0.922102 -2.97879,-1.239985 -1.24156,-0.317883 -2.25793,-0.730402 -2.25793,-0.914822 0,-0.184421 -1.34045,-0.743748 -2.97879,-1.243625 -1.63834,-0.498663 -3.26237,-1.195093 -3.6091,-1.548161 -0.34554,-0.351855 -0.93892,-0.639405 -1.31663,-0.639405 -0.88411,0 -2.70832,-1.037365 -3.20042,-1.819938 -0.2097,-0.333656 -0.65176,-0.606647 -0.98181,-0.606647 -0.33124,0 -1.04257,-0.418585 -1.58114,-0.929381 -0.97823,-0.926956 -4.803,-2.467837 -6.12797,-2.467837 -0.38367,0 -0.69823,-0.1917 -0.69823,-0.427079 0,-0.235379 -2.3592,-0.826252 -5.24267,-1.3152088 -2.88348,-0.4877436 -5.24268,-1.0300852 -5.24268,-1.2047993 0,-0.1747141 -1.30471,-0.5993664 -2.89896,-0.9439414 -1.59425,-0.344575 -3.16586,-0.8978363 -3.49114,-1.2290651 -0.32648,-0.3324421 -1.7563,-1.0082459 -3.17778,-1.5032692 -1.42267,-0.4938099 -2.72381,-1.0931763 -2.89181,-1.3297683 -0.35984,-0.5035163 -6.16134,-1.7095289 -8.35254,-1.735008 -0.82929,-0.00971 -1.57995,-0.2317388 -1.66812,-0.49381 C 242.3814,0.15879072 186.8853,-0.52065297 167.81507,0.48637964 M 199.98246,49.926828 c 0,0.266924 0.94011,0.485317 2.08992,0.485317 2.58798,0 3.7783,0.616352 6.55811,3.397218 2.725,2.723841 4.11073,3.882535 4.64811,3.882535 1.88855,0 6.24474,4.435797 6.24474,6.358865 0,0.547195 1.1379,1.958254 3.81285,4.733054 2.32584,2.410811 3.33625,4.053609 3.33625,5.423416 0,0.481677 0.26809,0.965781 0.59576,1.077404 0.79951,0.271777 0.86147,17.211764 0.0643,17.731053 -0.29192,0.190487 -0.69108,0.866291 -0.8853,1.500843 -0.19421,0.633339 -1.51084,2.293122 -2.92398,3.687195 -1.41314,1.394073 -2.5701,2.776012 -2.5701,3.069632 0,0.29361 -0.26809,0.70856 -0.59576,0.9221 -0.68512,0.44649 -1.69195,1.96068 -2.08396,3.13393 -0.14775,0.44286 -0.62317,0.92696 -1.05807,1.07741 -1.20582,0.41858 -2.613,1.42198 -3.31242,2.3647 -0.34554,0.46712 -0.93891,0.84931 -1.31782,0.84931 -0.37771,0 -0.6875,0.32273 -0.6875,0.71705 0,0.39432 -0.53618,1.07377 -1.19152,1.51177 -0.65533,0.43678 -1.19151,1.09681 -1.19151,1.46687 0,0.37005 -0.20375,0.67216 -0.45159,0.67216 -0.24903,0 -1.0533,0.56904 -1.78728,1.26547 l -1.33569,1.26546 -10.86901,-0.18806 c -7.11693,-0.12254 -10.98341,-0.37006 -11.20026,-0.71584 -0.18231,-0.28998 -1.56447,-0.89056 -3.07173,-1.33341 -1.50727,-0.44285 -2.74049,-1.01795 -2.74049,-1.2776 0,-0.25964 -0.26809,-0.47682 -0.59576,-0.4841 -0.75423,-0.0146 -11.79602,-11.28969 -11.79602,-12.04436 0,-0.30938 -0.20852,-0.56175 -0.4635,-0.56175 -0.25498,0 -0.81976,-1.255757 -1.25467,-2.790572 -0.4349,-1.534815 -0.96513,-2.904622 -1.17841,-3.045364 -1.76463,-1.16112 -1.82064,-22.56481 -0.062,-23.718651 0.24546,-0.160154 0.59338,-0.769227 0.77091,-1.351607 0.17873,-0.582381 1.49178,-2.220325 2.91684,-3.639877 1.42624,-1.419552 2.59631,-2.766307 2.59989,-2.993192 0.0107,-0.601793 2.49742,-2.839104 4.35618,-3.918934 0.8853,-0.513223 1.71579,-1.059205 1.84686,-1.213293 0.13106,-0.152875 1.04257,-0.657604 2.02557,-1.121082 0.98301,-0.462264 1.78728,-1.062844 1.78728,-1.334621 0,-0.270565 0.2812,-0.492597 0.62436,-0.492597 0.34315,0 1.27492,-0.647898 2.06966,-1.438965 1.80038,-1.792032 3.4411,-2.44357 6.15419,-2.44357 1.16292,0 2.11375,-0.218393 2.11375,-0.485317 0,-0.292404 1.98626,-0.485317 5.00437,-0.485317 3.01811,0 5.00437,0.192913 5.00437,0.485317 m 25.91192,88.877302 1.96958,2.00558 0.2669,78.4357 c 0.24902,72.80603 0.39201,81.10495 1.4048,81.10495 0.20374,0 0.5052,0.55205 0.67201,1.22543 0.16562,0.67459 0.6887,1.61974 1.16054,2.10021 0.47184,0.48046 0.98657,1.2145 1.14386,1.63066 0.23592,0.62606 1.49058,0.78986 7.25276,0.94152 4.4098,0.11526 7.09191,0.38097 7.304,0.72312 0.18468,0.29726 1.30113,0.69522 2.48074,0.8857 2.07681,0.33608 5.24267,2.87308 5.24267,4.20285 0,0.27056 0.34912,0.84809 0.77449,1.28245 0.83883,0.85294 0.65295,6.78473 -0.22997,7.35619 -0.23472,0.15287 -0.58741,1.26061 -0.78401,2.46177 -0.87934,5.39308 -0.25856,5.33848 -60.18114,5.33848 -49.6255,0 -50.47743,-0.0364 -51.72495,-2.23852 -0.20971,-0.37005 -0.68631,-0.67338 -1.05926,-0.67338 -0.41584,0 -0.983,-1.07861 -1.46914,-2.79057 -0.4349,-1.53481 -1.01874,-2.93859 -1.29756,-3.12059 -0.90436,-0.58966 -0.67916,-5.73523 0.27524,-6.27878 0.45873,-0.26208 0.83406,-0.70978 0.83406,-0.9949 0,-0.67459 3.54715,-4.28657 4.20963,-4.28657 0.28001,0 0.71849,-0.38218 0.97466,-0.8493 0.39559,-0.71948 1.33689,-0.87357 6.19113,-1.01067 l 5.72523,-0.16137 2.39615,-2.43993 c 1.31781,-1.3419 2.52482,-2.85367 2.6821,-3.35718 0.15728,-0.50473 0.46469,-0.91725 0.68393,-0.91725 1.34999,0 1.44412,-4.33995 1.44174,-66.9252 -0.002,-61.51756 -0.12511,-67.50759 -1.37382,-67.50759 -0.20733,0 -0.66487,-0.88691 -1.01637,-1.9716 -0.35149,-1.08347 -1.01279,-2.17422 -1.46914,-2.42294 -0.45635,-0.24873 -1.207,-0.83596 -1.66693,-1.30429 -0.68274,-0.69522 -1.97077,-0.89784 -6.98706,-1.09682 -4.68266,-0.18563 -6.28406,-0.41737 -6.70824,-0.97063 -0.30622,-0.39917 -1.25705,-1.12351 -2.11256,-1.60761 -0.8555,-0.48532 -2.3032,-1.66464 -3.2159,-2.62314 l -1.66097,-1.74108 v -5.30936 c 0,-4.90049 0.0727,-5.32878 0.95321,-5.56295 0.52427,-0.13953 0.95321,-0.44649 0.95321,-0.68066 0,-0.23416 1.28684,-0.79106 2.85964,-1.23634 1.57281,-0.44528 2.85964,-0.99247 2.85964,-1.21572 0,-0.22324 17.61182,-0.40524 39.13776,-0.40524 h 39.13776 l 1.96958,2.00557"
     stroke="none"
     fill="#2c53cb"
     fill-rule="evenodd"
     style="stroke-width:1" />
</svg>
