<?xml version="1.0" encoding="UTF-8" standalone="no"?>
<svg
   id="svg"
   width="400"
   height="400"
   viewBox="0, 0, 400,400"
   version="1.1"
   sodipodi:docname="settings.svg"
   inkscape:version="1.1.1 (3bf5ae0d25, 2021-09-20)"
   xmlns:inkscape="http://www.inkscape.org/namespaces/inkscape"
   xmlns:sodipodi="http://sodipodi.sourceforge.net/DTD/sodipodi-0.dtd"
   xmlns="http://www.w3.org/2000/svg"
   xmlns:svg="http://www.w3.org/2000/svg">
  <defs
     id="defs8" />
  <sodipodi:namedview
     id="namedview6"
     pagecolor="#505050"
     bordercolor="#ffffff"
     borderopacity="1"
     inkscape:pageshadow="0"
     inkscape:pageopacity="0"
     inkscape:pagecheckerboard="1"
     showgrid="false"
     inkscape:zoom="2.005"
     inkscape:cx="199.75062"
     inkscape:cy="200.24938"
     inkscape:window-width="1920"
     inkscape:window-height="991"
     inkscape:window-x="-9"
     inkscape:window-y="-9"
     inkscape:window-maximized="1"
     inkscape:current-layer="svg" />
  <path
     id="path0"
     d="M 162.55266,0.53478269 C 150.23842,3.4917645 143.71796,17.778913 141.81714,45.97378 c -0.80886,12.009282 -1.79645,13.779098 -10.21121,18.294958 -2.27655,1.221894 -6.37042,3.785297 -9.09706,5.697882 -15.00175,10.519858 -19.47005,10.675489 -42.88133,1.49071 -18.522896,-7.265764 -32.077826,-9.474175 -37.250617,-6.068308 -1.925609,1.268196 -14.404233,19.10398 -17.140006,24.499604 -0.751458,1.48042 -2.931466,4.953169 -4.845333,7.715934 -1.912563,2.76277 -4.743574,7.67864 -6.290845,10.92501 -1.547271,3.24509 -4.172152,7.87543 -5.8355337,10.28963 -11.4662442,16.64861 -10.3573231,28.78394 3.3515507,36.66837 6.772247,3.89591 9.645005,6.07603 16.314186,12.37714 3.654222,3.45345 8.333869,7.8677 10.399071,9.80987 6.515238,6.12619 6.716148,7.13457 5.585049,28.10869 -0.476184,8.83879 -0.683617,10.30764 -1.742963,12.34756 -1.979098,3.80716 -11.513211,12.66781 -17.162185,15.94892 -2.678371,1.55631 -6.465663,4.24318 -8.414754,5.97184 -1.949092,1.72866 -5.206711,4.45027 -7.236689,6.04773 -11.5549579,9.0896 -12.4394855,21.04872 -2.4878971,33.62779 3.7546761,4.74609 5.0475481,6.8619 7.3162701,11.97456 1.067173,2.4052 3.65944,6.91977 5.761171,10.03238 2.101732,3.11262 4.992754,7.74295 6.42261,10.28963 12.99786,23.13494 14.936515,24.96392 26.436679,24.94206 10.243822,-0.0193 15.232663,-1.29907 23.087738,-5.9204 7.495002,-4.4091 21.574386,-9.51404 26.190108,-9.49604 10.33384,0.0412 33.0876,13.07555 37.07319,21.23651 1.63077,3.34027 4.20085,19.10655 4.9771,30.53704 0.80364,11.82407 4.93796,19.16958 12.98612,23.07449 7.17928,3.48304 8.13295,3.55764 45.49055,3.58079 L 236.0102,400 l 2.94191,-1.17302 c 10.86351,-4.33064 16.21373,-17.07949 18.7238,-44.61582 0.94585,-10.37066 2.62489,-14.04921 7.94771,-17.41005 27.10203,-17.11294 30.27746,-17.25442 67.50198,-3.00458 15.38791,5.8921 23.12035,4.25348 29.60298,-6.27281 1.24721,-2.02577 4.12518,-6.15706 6.39651,-9.18221 5.30978,-7.07026 12.88828,-19.67248 16.17068,-26.89194 1.4142,-3.11004 4.24782,-8.12366 6.29737,-11.13981 11.01224,-16.21388 9.71676,-26.94339 -4.24782,-35.1558 -5.41414,-3.18335 -7.26669,-4.62261 -13.57189,-10.54301 -2.87145,-2.69717 -7.44543,-6.76028 -10.16294,-9.02915 -5.87728,-4.90558 -7.90334,-8.12623 -7.95553,-12.64852 -0.20221,-17.13866 0.19439,-28.00708 1.09718,-30.0007 1.49118,-3.29397 9.72328,-10.95331 17.68403,-16.45183 2.28047,-1.57688 5.88381,-4.40653 8.00641,-6.28953 2.12261,-1.883 5.38545,-4.63034 7.25104,-6.10432 8.54783,-6.75643 11.80414,-13.46398 9.67371,-19.92201 -1.35941,-4.11714 -6.10168,-13.70449 -8.85441,-17.90138 -1.34506,-2.04892 -3.92688,-6.4323 -5.73638,-9.73913 -1.8082,-3.30683 -4.82055,-8.222697 -6.69136,-10.925011 -1.87082,-2.701027 -4.6079,-7.202739 -6.0808,-10.002804 -12.20857,-23.20697 -23.53653,-27.901613 -41.50627,-17.2004 -5.38414,3.206506 -8.37431,4.256048 -15.45314,5.422634 -2.99931,0.493902 -7.65547,1.56531 -10.34558,2.378191 -9.75981,2.953123 -15.65797,1.287489 -33.28981,-9.402148 C 258.53044,58.987587 257.59764,57.222916 256.61265,38.834064 255.26238,13.620617 250.80191,5.3760527 236.35984,1.396539 231.97765,0.19008015 167.14359,-0.5674937 162.55266,0.53478269 M 218.08091,133.13464 c 4.21259,1.12543 8.58696,3.11647 13.11005,5.9667 1.50292,0.94793 5.58375,3.13062 9.06967,4.85284 7.56415,3.73771 11.44407,7.03297 15.84583,13.45369 1.65425,2.41292 4.23869,6.00786 5.74422,7.98861 9.52106,12.5302 11.6528,46.35092 3.87731,61.54613 -1.97388,3.85861 -8.49956,14.75018 -10.11336,16.88013 -2.0639,2.72418 -10.39386,9.29411 -14.97174,11.80864 -2.2609,1.24118 -6.60917,3.70426 -9.66327,5.47279 -9.46758,5.48051 -12.59735,6.40144 -25.48562,7.49857 -24.09881,2.05021 -48.0215,-8.61242 -63.60119,-28.34921 -1.89952,-2.4052 -4.4957,-5.64644 -5.769,-7.20274 -7.92292,-9.67868 -10.09249,-33.7577 -4.99406,-55.42894 2.18653,-9.29797 15.69971,-27.15304 25.38777,-33.54805 6.09646,-4.02453 21.67484,-9.80601 31.23113,-11.58998 6.17604,-1.15372 25.09684,-0.74728 30.33226,0.65082"
     stroke="none"
     fill="#6c6c6c"
     fill-rule="evenodd"
     style="stroke-width:1.29538;fill:#000000;fill-opacity:1" />
</svg>
