<?xml version="1.0" encoding="UTF-8" standalone="no"?>
<svg
   id="svg"
   width="400"
   height="400"
   viewBox="0, 0, 400,400"
   version="1.1"
   sodipodi:docname="x.svg"
   inkscape:version="1.1.1 (3bf5ae0d25, 2021-09-20)"
   xmlns:inkscape="http://www.inkscape.org/namespaces/inkscape"
   xmlns:sodipodi="http://sodipodi.sourceforge.net/DTD/sodipodi-0.dtd"
   xmlns="http://www.w3.org/2000/svg"
   xmlns:svg="http://www.w3.org/2000/svg">
  <defs
     id="defs8" />
  <sodipodi:namedview
     id="namedview6"
     pagecolor="#505050"
     bordercolor="#ffffff"
     borderopacity="1"
     inkscape:pageshadow="0"
     inkscape:pageopacity="0"
     inkscape:pagecheckerboard="1"
     showgrid="false"
     inkscape:zoom="2.005"
     inkscape:cx="199.75062"
     inkscape:cy="120.44888"
     inkscape:window-width="1920"
     inkscape:window-height="991"
     inkscape:window-x="-9"
     inkscape:window-y="-9"
     inkscape:window-maximized="1"
     inkscape:current-layer="svg" />
  <path
     id="path1"
     d="m 184.11087,0.36860272 c -3.81188,0.22414762 -7.03696,0.56543773 -7.16686,0.75804698 -0.12988,0.1937357 -1.54647,0.6228826 -3.14782,0.9540354 -1.60134,0.3311528 -3.01679,0.7602997 -3.14669,0.9517826 -0.1288,0.1926093 -1.63606,0.5755752 -3.34826,0.8504094 -1.71222,0.2748343 -3.21948,0.6735693 -3.34938,0.8853268 -0.12988,0.2117575 -1.94961,0.6341463 -4.04256,0.9382661 -2.09407,0.3052464 -3.90706,0.6983495 -4.03023,0.8740632 -0.1232,0.1757137 -3.34828,0.5710695 -7.16686,0.879695 -3.81859,0.3086253 -7.01007,0.7456569 -7.09183,0.9698045 -0.0829,0.225274 -0.95073,0.4088723 -1.92945,0.4088723 -2.27995,0 -5.81187,0.8909587 -6.57671,1.658016 -0.32476,0.327774 -0.77492,0.594724 -0.99887,0.594724 -0.22508,0 -1.1187,0.69497 -1.98769,1.543127 -0.86898,0.849282 -2.271,1.772905 -3.11534,2.053371 -0.84434,0.27934 -1.59798,0.694971 -1.67525,0.921371 -0.0773,0.227528 -1.70325,0.64541 -3.61254,0.930382 -1.9093,0.284971 -3.47145,0.664558 -3.47145,0.842525 0,0.177966 -1.10862,0.573322 -2.46361,0.878569 -1.35498,0.305246 -2.4636,0.717497 -2.4636,0.916864 0,0.198242 -0.55655,0.473076 -1.23628,0.610493 -0.68085,0.136291 -2.09966,1.074557 -3.15454,2.083785 -1.05486,1.009227 -2.0963,1.834856 -2.31467,1.834856 -0.21836,0 -0.69541,0.299614 -1.06047,0.666812 -0.36396,0.36607 -1.6383,0.920243 -2.83091,1.231122 -1.1926,0.310878 -2.26987,0.69497 -2.39305,0.853788 -0.1232,0.158818 -0.8925,0.434779 -1.709968,0.612746 -0.817472,0.179092 -1.587908,0.591344 -1.712208,0.917991 -0.12428,0.32552 -0.698768,0.711866 -1.276596,0.857167 -0.577828,0.146429 -2.341544,1.583677 -3.919372,3.194386 -1.578948,1.611835 -3.085108,2.929688 -3.349384,2.929688 -0.26316,0 -0.584548,0.278213 -0.714444,0.618377 -0.12992,0.339037 -0.780516,0.754668 -1.445692,0.922497 -0.665172,0.167829 -1.47816,0.575575 -1.806268,0.905602 -0.327,0.328899 -1.339308,0.738899 -2.24972,0.911233 -1.781636,0.335658 -2.416576,0.806481 -3.282196,2.434085 -0.830908,1.562276 -2.36506,3.219166 -2.978724,3.219166 -0.299,0 -0.655096,0.292856 -0.791712,0.651042 -0.13664,0.358185 -0.964168,0.786206 -1.839868,0.950656 -0.8757,0.165576 -1.591264,0.442663 -1.591264,0.617251 0,0.173461 -0.687568,0.587965 -1.528556,0.919117 -0.840984,0.33228 -1.798432,1.127497 -2.12766,1.767275 -1.11758,2.172768 -3.324748,4.556166 -4.219484,4.556166 -0.29676,0 -0.655096,0.30412 -0.797312,0.675823 -0.14108,0.371702 -0.592384,0.675822 -1.00224,0.675822 -0.796192,0 -4.658453,3.634796 -4.658453,4.384958 0,0.246675 -0.601348,1.13538 -1.337068,1.974526 -0.734604,0.839146 -1.339304,1.652385 -1.343784,1.807825 -0.0034,0.156565 -0.611424,0.536151 -1.350504,0.843651 -0.739084,0.307499 -1.343788,0.705107 -1.343788,0.883073 0,0.177967 -0.503916,0.555301 -1.11982,0.836894 -0.6159,0.282718 -1.11982,0.812112 -1.11982,1.177056 0,0.363818 -0.27436,0.824503 -0.608064,1.022744 -0.33484,0.198241 -0.85442,1.120738 -1.154536,2.049994 -0.30124,0.929255 -0.707724,1.689554 -0.904812,1.689554 -0.1982,0 -0.602464,0.591345 -0.900336,1.313347 -0.29788,0.724257 -1.12542,1.556644 -1.845464,1.856259 -0.717808,0.299614 -1.305712,0.689338 -1.305712,0.867304 0,0.177966 -0.49272,0.549669 -1.095184,0.82563 -0.7458,0.342416 -1.191492,1.013732 -1.39418,2.100679 -0.16348,0.878569 -0.444568,1.597193 -0.623739,1.597193 -0.180292,0 -0.589025,0.800849 -0.910414,1.778538 -0.321388,0.978816 -0.857783,1.884417 -1.191489,2.01395 -0.334828,0.128406 -0.608062,0.515877 -0.608062,0.860547 0,0.345795 -0.527436,1.010353 -1.172454,1.478923 -2.404255,1.745874 -4.150055,3.639301 -4.444568,4.817485 -0.166852,0.669063 -0.463607,1.215352 -0.658455,1.215352 -0.195968,0 -0.566629,0.608241 -0.824188,1.351645 -0.25756,0.743404 -0.648376,1.351644 -0.868981,1.351644 -0.219484,0 -0.641657,0.810986 -0.93729,1.802191 -0.294512,0.991206 -0.680852,1.802192 -0.856663,1.802192 -0.176932,0 -0.602464,0.638653 -0.946249,1.419227 -0.704367,1.601699 -1.767077,2.791149 -2.8757,3.219169 -0.412094,0.15881 -0.74916,0.59021 -0.74916,0.95741 0,0.36719 -0.306832,0.84028 -0.68309,1.0509 -0.38634,0.21852 -0.905935,1.59382 -1.198208,3.17637 -0.284436,1.53637 -0.650617,2.79227 -0.814111,2.79227 -0.163492,0 -0.563269,1.11511 -0.888017,2.47802 -0.324748,1.36291 -0.744681,2.47801 -0.932811,2.47801 -0.188132,0 -0.586787,0.7603 -0.888018,1.68956 -0.300112,0.92925 -0.819709,1.85175 -1.154535,2.04998 -0.333708,0.19825 -0.608063,0.58008 -0.608063,0.84816 0,0.26808 -0.69205,1.14439 -1.538634,1.94637 -1.199328,1.13763 -1.662934,2.06689 -2.105263,4.22051 -0.311308,1.51947 -0.699888,2.76186 -0.862262,2.76186 -0.163496,0 -0.56551,1.82472 -0.893617,4.05493 -0.3281082,2.23021 -0.7278838,4.05493 -0.8868982,4.05493 -0.159016,0 -0.5408736,1.41923 -0.8488244,3.15384 -0.307952,1.73461 -0.712206,3.15383 -0.8969764,3.15383 -0.184772,0 -0.5834268,1.11511 -0.886898,2.47802 -0.303472,1.36291 -0.7166856,2.47802 -0.9182533,2.47802 -0.202688,0 -0.4904816,0.49221 -0.6405376,1.09482 -0.150056,0.60261 -0.56215,1.38544 -0.9137736,1.73912 -0.3527436,0.3548 -0.900336,1.94074 -1.2172453,3.52328 -0.3157897,1.58368 -0.7166855,2.98263 -0.8902576,3.10878 -0.6718925,0.48998 -1.27883546,11.11165 -1.2810751,22.41026 -0.00112,7.58273 -0.162374,11.82689 -0.44904817,11.82689 C 0.15677492,192.66249 0,198.82035 0,210.23386 c 0,11.4135 0.15677492,17.57137 0.44792833,17.57137 0.26763721,0 0.44792833,1.73912 0.44792833,4.31625 0,4.64627 0.81970884,12.8868 1.31802914,13.25513 0.1679732,0.1239 0.5688689,1.44175 0.8913774,2.92856 0.3225084,1.4868 0.7133259,2.80466 0.8678611,2.92856 0.530795,0.42352 1.4020158,2.24035 1.4020158,2.92292 0,0.37509 0.187008,0.68146 0.4154536,0.68146 0.2295641,0 0.6696529,1.1658 0.9809629,2.59065 0.310192,1.42486 0.7312432,2.70667 0.93729,2.84859 0.204928,0.14192 0.6080628,2.06802 0.8958568,4.28021 0.287792,2.21219 0.661814,4.12363 0.8309072,4.24754 0.169092,0.1239 0.5520716,1.69518 0.8510634,3.49174 0.300112,1.79657 0.720045,3.26647 0.935051,3.26647 0.213884,0 0.61926,0.85718 0.899216,1.90357 0.281076,1.04753 0.893617,2.1739 1.361702,2.50392 0.468085,0.33003 0.851063,0.89208 0.851063,1.25028 0,0.35705 0.206048,0.6499 0.459127,0.6499 0.25196,0 0.650616,0.50687 0.884659,1.12638 0.234044,0.6195 0.600224,1.12637 0.812989,1.12637 0.213888,0 0.653976,1.11511 0.978725,2.47801 0.324748,1.36291 0.727883,2.47802 0.895856,2.47802 0.167972,0 0.571108,1.1151 0.895857,2.47801 0.324748,1.3629 0.75252,2.47801 0.949608,2.47801 0.197088,0 0.608063,0.86168 0.913774,1.91483 0.305712,1.05316 0.817468,2.07703 1.137737,2.27527 0.320268,0.19824 0.582307,0.65442 0.582307,1.01374 0,0.3593 0.306832,0.65329 0.681971,0.65329 0.37402,0 0.910415,0.50687 1.19149,1.12637 0.279956,0.6195 0.666293,1.12636 0.856662,1.12636 0.191488,0 0.602464,0.70962 0.913774,1.57693 0.312432,0.8673 0.696529,1.57692 0.854424,1.57692 0.156776,0 0.530795,1.09708 0.828667,2.43858 0.298992,1.34151 0.834267,2.55124 1.19149,2.68978 0.356104,0.13742 0.648375,0.55981 0.648375,0.93826 0,0.37846 1.310192,2.04549 2.911535,3.70464 1.601344,1.65914 2.911534,3.23268 2.911534,3.49738 0,0.26469 0.403136,0.73439 0.895856,1.04414 0.492722,0.30975 0.895858,0.86505 0.895858,1.2345 0,0.37058 0.206048,0.67244 0.459126,0.67244 0.25196,0 0.650616,0.50686 0.884658,1.12637 0.234044,0.6195 0.583427,1.12637 0.774916,1.12637 0.192608,0 0.62486,0.62288 0.959688,1.38544 0.667412,1.51497 2.398656,3.57059 3.007836,3.57059 0.581188,0 4.664056,4.54941 4.664056,5.19708 0,0.30975 0.30236,0.68031 0.671892,0.82336 0.36956,0.14193 0.671892,0.50913 0.671892,0.81437 0,0.59697 3.838748,4.42889 4.436732,4.42889 0.533032,0 2.73012,2.13785 2.73012,2.65598 0,0.24555 0.37404,0.71187 0.832028,1.03513 0.456888,0.3244 0.988804,1.09596 1.181412,1.71547 0.415452,1.33474 1.799553,2.71117 3.507281,3.48949 1.815228,0.82788 3.941768,2.77537 7.469204,6.84269 0.86226,0.99346 2.12206,2.03986 2.799552,2.32484 0.677492,0.28497 1.231804,0.66343 1.231804,0.84139 0,0.17797 0.511756,0.55868 1.136616,0.84478 1.178052,0.54066 1.63942,0.88195 3.74916,2.77763 0.689812,0.6195 1.687572,1.42486 2.217248,1.7898 0.529672,0.36494 1.076144,1.02387 1.215004,1.46428 0.13884,0.44041 0.530796,0.80085 0.86898,0.80085 0.33932,0 0.88018,0.36945 1.201568,0.82113 0.32252,0.45167 1.24076,1.10947 2.041432,1.46202 0.800672,0.35143 1.455768,0.76143 1.455768,0.90899 0,0.14755 0.806272,0.53614 1.791712,0.86279 0.985444,0.32665 1.791716,0.74341 1.791716,0.92475 0,0.18135 0.4972,0.45506 1.104144,0.60824 0.60806,0.15319 1.968644,1.18832 3.023516,2.30005 1.055988,1.1106 2.171332,2.02184 2.479284,2.02184 0.30796,0.001 0.559908,0.18247 0.559908,0.40324 0,0.22076 0.907056,0.67018 2.015676,0.99909 1.10862,0.32889 2.01568,0.73664 2.01568,0.90559 0,0.16896 1.00784,0.5508 2.23964,0.84816 1.2318,0.29736 2.23965,0.70736 2.23965,0.91124 0,0.20387 0.73124,0.61387 1.62597,0.9101 1.6439,0.54516 2.84659,1.35953 4.13662,2.79678 0.38968,0.43365 0.97088,0.78846 1.29339,0.78846 0.32252,0 0.69205,0.27483 0.81971,0.61162 0.1288,0.33566 1.07951,0.88533 2.11422,1.21986 1.0336,0.33452 1.98097,0.72425 2.10415,0.86617 0.12316,0.1408 2.03807,0.62852 4.25532,1.08132 2.21724,0.45393 4.13214,0.96755 4.25532,1.14101 0.1232,0.17459 1.38298,0.5722 2.79955,0.8842 1.41657,0.31314 2.57559,0.72426 2.57559,0.91462 0,0.19035 0.79619,0.60936 1.7682,0.93263 0.97312,0.32327 1.86897,0.85154 1.99215,1.17368 0.1232,0.32326 0.93953,0.722 1.81523,0.88645 0.87571,0.16557 1.59127,0.45281 1.59127,0.63978 0,0.18585 1.2598,0.60373 2.79955,0.927 1.53976,0.32327 2.90034,0.73214 3.02352,0.90786 0.30236,0.43252 9.7458,1.33023 13.98432,1.33023 1.8757,0 3.47704,0.18248 3.55991,0.40662 0.50392,1.37192 74.15342,1.3753 74.65398,0.002 0.0829,-0.22527 1.59462,-0.41113 3.35946,-0.41338 4.64614,-0.007 13.90034,-0.8842 14.18366,-1.34488 0.13328,-0.2174 1.31018,-0.53616 2.61477,-0.71074 1.3046,-0.1746 2.62262,-0.56769 2.92833,-0.8752 0.30572,-0.30749 1.19821,-0.7006 1.98321,-0.87406 0.78611,-0.17458 1.58006,-0.57557 1.76707,-0.89321 0.18588,-0.3165 1.09407,-0.82337 2.01792,-1.12524 0.92386,-0.30299 1.67973,-0.69835 1.67973,-0.87969 0,-0.18248 1.05824,-0.60036 2.35163,-0.93039 1.29339,-0.33002 2.46025,-0.76706 2.59239,-0.9698 0.131,-0.20388 2.12765,-0.69722 4.43448,-1.09821 2.30684,-0.39987 4.45689,-0.99121 4.77716,-1.31335 0.32028,-0.32327 1.27772,-0.71749 2.12878,-0.87857 0.84994,-0.15995 1.65957,-0.59022 1.79955,-0.95516 0.13884,-0.36494 0.51176,-0.66681 0.82643,-0.67132 0.3158,-0.004 1.04927,-0.51137 1.62934,-1.12636 0.58007,-0.61501 1.33594,-1.11849 1.67973,-1.11849 0.34376,0 0.62486,-0.21289 0.62486,-0.47421 0,-0.26018 0.60471,-0.68596 1.34379,-0.94501 0.73908,-0.25907 1.34378,-0.62627 1.34378,-0.8155 0,-0.19036 1.2094,-0.60374 2.68757,-0.91912 1.47816,-0.31538 2.68757,-0.72651 2.68757,-0.91236 0,-0.18698 0.71556,-0.4742 1.59127,-0.63978 0.87569,-0.16445 1.70324,-0.59247 1.83986,-0.95066 0.1366,-0.35818 0.486,-0.65103 0.77715,-0.65103 0.29004,0 1.47145,-0.8966 2.62486,-1.99256 1.15342,-1.09595 2.50728,-2.1232 3.00784,-2.28315 0.49945,-0.15994 0.9093,-0.45505 0.9093,-0.65555 0,-0.20161 0.65509,-0.63189 1.45577,-0.9574 0.80067,-0.32553 1.60805,-0.8414 1.79395,-1.14553 0.187,-0.30524 0.94289,-0.68821 1.67973,-0.85153 0.73796,-0.1622 1.34155,-0.46857 1.34155,-0.68033 0,-0.21176 0.45352,-0.52826 1.00784,-0.70398 1.09182,-0.34692 3.00335,-1.98917 3.01567,-2.59178 0.0112,-0.53953 2.54312,-3.00628 3.08623,-3.00628 0.25308,0 0.6215,-0.27596 0.81859,-0.61162 0.19708,-0.33678 1.11422,-0.85942 2.03807,-1.16128 0.92386,-0.30299 1.67973,-0.73666 1.67973,-0.9653 0,-0.22866 0.2598,-0.41563 0.57895,-0.41563 0.76484,0 3.51624,-2.65486 4.28555,-4.13491 0.33484,-0.64428 1.09071,-1.39332 1.67973,-1.66252 0.58904,-0.27032 1.07056,-0.67582 1.07056,-0.90222 0,-0.22641 0.52183,-0.54291 1.16012,-0.70398 1.21949,-0.30863 5.5588,-4.37032 5.5588,-5.20496 0,-0.26695 0.30236,-0.60261 0.67189,-0.74453 0.36956,-0.14305 0.67189,-0.56094 0.67189,-0.92925 0,-0.36833 0.40314,-0.77608 0.89586,-0.90561 0.49272,-0.12953 0.89586,-0.42126 0.89586,-0.64766 0,-0.2264 0.35272,-0.54854 0.78387,-0.71524 1.31019,-0.50462 4.9832,-4.46831 5.2934,-5.7107 0.16012,-0.64203 0.47592,-1.16692 0.70101,-1.16692 0.2262,0 0.58454,-0.46069 0.7973,-1.02274 0.21276,-0.56319 0.95633,-1.32348 1.65174,-1.68956 1.55431,-0.81887 4.21052,-3.57284 4.21052,-4.36468 0,-0.32101 0.18588,-0.58233 0.41322,-0.58233 0.22732,0 0.65846,-0.76031 0.95969,-1.68956 0.30012,-0.92926 0.81971,-1.85176 1.15454,-2.04999 0.33368,-0.19824 0.60806,-0.56882 0.60806,-0.82338 0,-0.54629 2.45241,-3.09301 2.9888,-3.10427 0.5991,-0.0124 2.23181,-1.93511 2.57671,-3.03332 0.17468,-0.55756 0.47368,-1.01373 0.66517,-1.01373 0.19036,0 0.58791,-0.81099 0.88354,-1.8022 0.29452,-0.9912 0.69205,-1.80219 0.88241,-1.80219 0.19148,0 0.62039,-0.70173 0.95409,-1.55777 0.33484,-0.85716 0.87683,-1.66252 1.20381,-1.78868 0.32812,-0.12615 0.59575,-0.47081 0.59575,-0.7648 0,-0.29398 0.79395,-1.31785 1.76372,-2.27413 0.96976,-0.95629 1.89026,-2.14124 2.04591,-2.63233 0.15564,-0.49223 0.45465,-0.89435 0.66517,-0.89435 0.21052,0 0.62934,-0.76029 0.93057,-1.68955 0.30124,-0.92925 0.68197,-1.79092 0.84659,-1.91482 0.16348,-0.1239 0.55207,-1.39107 0.86226,-2.81593 0.31132,-1.42486 0.7514,-2.59065 0.98096,-2.59065 0.22844,0 0.41545,-0.30637 0.41545,-0.68146 0,-0.86392 0.94625,-2.58614 1.67974,-3.05809 0.30796,-0.19824 0.55991,-0.58008 0.55991,-0.84929 0,-0.2692 0.45353,-0.94953 1.00784,-1.51159 1.76147,-1.78866 2.10638,-2.36537 2.66405,-4.4638 0.30012,-1.1275 0.68421,-2.05111 0.85442,-2.05111 0.16908,0 0.56327,-1.72335 0.87458,-3.82967 0.31132,-2.10631 0.70773,-3.82965 0.88131,-3.82965 0.17244,0 0.57446,-1.23338 0.89249,-2.74046 0.31804,-1.50708 0.83986,-3.00403 1.15901,-3.32504 0.31916,-0.32102 0.71781,-1.132 0.88466,-1.80107 0.16684,-0.66906 0.55096,-1.31223 0.85331,-1.42936 0.30348,-0.11714 0.81299,-1.01261 1.13437,-1.99143 0.3214,-0.97769 0.72564,-1.77853 0.8981,-1.77853 0.17356,0 0.56663,-1.57129 0.87346,-3.49175 0.30684,-1.92046 0.72452,-3.59763 0.92834,-3.72603 0.46248,-0.29173 1.32026,-17.32245 1.3225,-26.23541 0.001,-4.12928 0.1702,-6.64559 0.44905,-6.64559 0.28892,0 0.44792,-5.03149 0.44792,-14.19225 0,-9.16078 -0.159,-14.19227 -0.44792,-14.19227 -0.27212,0 -0.44793,-2.02859 -0.44793,-5.18581 0,-8.0648 -0.94737,-30.1563 -1.30459,-30.40748 -0.1758,-0.1239 -0.56775,-2.14573 -0.87235,-4.49196 -0.3046,-2.34736 -0.70996,-4.37482 -0.90144,-4.50548 -0.19036,-0.13178 -0.60694,-1.18832 -0.92386,-2.34961 -0.31804,-1.16129 -0.85666,-2.22008 -1.19932,-2.35186 -0.34156,-0.13179 -0.62151,-0.54066 -0.62151,-0.90786 0,-0.36719 -0.26764,-0.829 -0.59574,-1.02725 -0.64726,-0.39198 -2.09183,-4.4852 -2.09183,-5.92695 0,-0.48998 -0.19148,-0.95854 -0.42553,-1.0419 -0.23404,-0.0823 -0.66629,-2.07589 -0.96193,-4.43001 -0.29564,-2.35411 -0.66629,-4.38158 -0.8253,-4.50548 -0.159,-0.1239 -0.56439,-1.08694 -0.90146,-2.1401 -0.33708,-1.05315 -0.76036,-1.91483 -0.94064,-1.91483 -0.18028,0 -0.45578,-0.5125 -0.61144,-1.13989 -0.15676,-0.62626 -0.78274,-1.57579 -1.39305,-2.10856 -0.60918,-0.53278 -1.10751,-1.21535 -1.10751,-1.51497 0,-0.30074 -0.2766,-0.65329 -0.61477,-0.78395 -0.33708,-0.13066 -0.75028,-0.78509 -0.91714,-1.45415 -0.16684,-0.66907 -0.58454,-1.49919 -0.9272,-1.84387 -0.34268,-0.34466 -0.75925,-1.53637 -0.92498,-2.64922 -0.16572,-1.11173 -0.44793,-2.02183 -0.62711,-2.02183 -0.17916,0 -0.56774,-0.81099 -0.86337,-1.80219 -0.29452,-0.99121 -0.69765,-1.8022 -0.89586,-1.8022 -0.19708,0 -0.60022,-0.81098 -0.89586,-1.80219 -0.29452,-0.9912 -0.73012,-1.80219 -0.96641,-1.80219 -0.5543,0 -2.22172,-1.671534 -2.22172,-2.226834 0,-0.234285 -0.38856,-0.699475 -0.86338,-1.034007 -0.4748,-0.334532 -1.11198,-1.156783 -1.41545,-1.826973 -0.30348,-0.671316 -0.68533,-1.219858 -0.84771,-1.219858 -0.16236,0 -0.56886,-1.013734 -0.90482,-2.25274 -0.33592,-1.239008 -0.7749,-2.25274 -0.97648,-2.25274 -0.20268,0 -0.36728,-0.405494 -0.36728,-0.901097 0,-0.495602 -0.40313,-1.306589 -0.89586,-1.802191 -0.49272,-0.495603 -0.89585,-1.103843 -0.89585,-1.351644 0,-0.247802 -0.20156,-0.450548 -0.44793,-0.450548 -0.84434,0 -4.29115,-3.90062 -5.37402,-6.082398 -0.36956,-0.743404 -0.92386,-1.513841 -1.23181,-1.712082 -0.30908,-0.198241 -0.56103,-0.57107 -0.56103,-0.829008 0,-0.598103 -2.31578,-3.08175 -2.91041,-3.120045 -0.24636,-0.01577 -0.90257,-0.573323 -1.458,-1.239008 -0.55432,-0.665685 -1.81411,-2.104059 -2.79956,-3.197765 -0.98432,-1.093705 -1.79059,-2.137849 -1.79059,-2.320321 0,-0.437032 -3.12655,-3.576225 -3.56215,-3.576225 -0.5532,0 -2.8869,-2.42958 -3.54199,-3.686608 -0.33484,-0.644284 -1.13662,-1.44626 -1.78276,-1.783045 -0.64502,-0.336784 -1.87459,-1.373045 -2.73125,-2.302299 -0.85778,-0.929256 -1.70884,-1.689556 -1.89249,-1.689556 -0.42553,0 -2.61478,-2.18741 -2.61478,-2.612052 0,-0.487718 -2.54311,-2.794524 -3.07951,-2.794524 -0.2598,0 -0.68869,-0.405493 -0.95184,-0.901096 -0.26316,-0.495602 -0.78052,-0.901095 -1.15006,-0.901095 -0.36844,0 -0.78612,-0.30412 -0.92721,-0.675823 -0.14224,-0.371701 -0.49721,-0.675822 -0.78836,-0.675822 -0.73572,0 -3.49608,-2.70554 -4.26091,-4.176579 -0.34716,-0.669064 -0.97873,-1.325738 -1.40314,-1.460902 -0.42329,-0.135164 -1.22844,-0.64541 -1.78835,-1.134255 -0.55879,-0.487718 -1.57672,-0.887579 -2.26093,-0.887579 -0.68308,0 -1.51847,-0.277087 -1.85554,-0.616124 -0.33704,-0.339039 -1.1075,-0.772691 -1.7122,-0.964173 -1.07391,-0.340165 -3.11647,-2.282026 -4.45801,-4.239657 -0.36956,-0.538405 -1.52855,-1.197331 -2.57559,-1.463155 -1.04703,-0.265823 -1.90369,-0.637525 -1.90369,-0.826755 0,-0.18923 -0.90706,-0.573323 -2.01568,-0.853789 -1.10863,-0.281592 -2.01567,-0.678074 -2.01567,-0.883074 0,-0.204999 -0.80628,-0.616124 -1.79172,-0.913485 -0.98544,-0.296237 -1.79171,-0.734394 -1.79171,-0.972058 0,-0.237664 -0.25196,-0.432526 -0.55991,-0.432526 -0.30796,-0.0011 -1.14558,-0.507993 -1.86115,-1.12637 -0.71557,-0.619504 -1.47144,-1.12637 -1.67973,-1.12637 -0.20828,0 -0.37848,-0.314257 -0.37848,-0.699476 0,-0.384092 -0.60471,-0.911233 -1.34379,-1.170298 -0.73908,-0.259065 -1.34379,-0.617251 -1.34379,-0.796344 0,-0.179093 -1.61254,-0.589091 -3.58342,-0.911233 -1.97089,-0.321015 -3.58343,-0.741151 -3.58343,-0.932634 0,-0.191484 -1.31019,-0.610493 -2.91153,-0.930383 -1.60135,-0.319888 -2.91154,-0.715244 -2.91154,-0.878567 0,-0.163324 -0.80627,-0.539532 -1.79171,-0.836893 -0.98544,-0.296236 -1.79172,-0.701729 -1.79172,-0.89997 0,-0.198242 -0.54535,-0.610493 -1.21277,-0.915739 -0.66628,-0.305246 -1.48375,-0.946151 -1.81635,-1.423732 -0.3326,-0.47758 -0.89585,-0.86843 -1.25196,-0.86843 -0.35496,0 -0.64612,-0.174588 -0.64612,-0.388598 0,-0.21401 -1.2598,-0.654421 -2.79956,-0.9776891 -1.53978,-0.3232682 -2.90036,-0.7186241 -3.02354,-0.8785686 -0.12318,-0.1599446 -3.7514,-0.550795 -8.06271,-0.8684313 -4.31131,-0.3176363 -7.93953,-0.7310141 -8.06271,-0.9179915 -0.12318,-0.1881038 -2.18926,-0.6003552 -4.59127,-0.9168652 -2.40201,-0.3153836 -4.3673,-0.7107394 -4.3673,-0.8774422 0,-0.1667027 -1.51175,-0.5733223 -3.35947,-0.9033487 -1.8477,-0.3300265 -3.35946,-0.7434042 -3.35946,-0.9191179 0,-0.1745874 -1.15901,-0.5778278 -2.57558,-0.8954642 C 226.69094,1.7810707 225.4289,1.3598084 225.3046,1.1626936 224.64614,0.12305406 197.25756,-0.40408709 184.11087,0.36860272 M 138.60134,107.69927 c 0.62151,1.0509 6.54536,7.01842 6.96753,7.01842 0.46697,0 3.14334,2.63908 3.14334,3.09976 0,0.21289 1.33595,1.73236 2.96976,3.37461 1.6327,1.64337 3.14334,2.98713 3.35499,2.98713 0.458,0 3.08175,2.69203 3.08175,3.16172 0,0.54517 6.04703,6.48451 7.26763,7.13781 0.62934,0.33679 1.41881,1.14664 1.75364,1.79881 0.61366,1.19508 6.3841,7.27523 6.90482,7.27523 0.41097,0 2.8869,2.41718 2.8869,2.81705 0,0.18922 1.46136,1.75714 3.24747,3.48611 4.07616,3.94342 5.82643,5.70394 9.74692,9.80393 1.71893,1.79656 3.27772,3.26984 3.46361,3.27322 0.187,0.004 1.01231,0.60487 1.8365,1.33476 0.82307,0.72988 1.8813,1.44963 2.35163,1.60056 0.46921,0.14982 0.85442,0.44042 0.85442,0.64654 0,1.92272 7.52632,1.21311 8.57335,-0.80873 0.33484,-0.64653 0.91154,-1.51272 1.28107,-1.92383 1.07616,-1.19959 2.23965,-2.81819 2.23965,-3.11668 0,-0.15093 0.70548,-0.55305 1.56775,-0.89321 0.86226,-0.34016 1.56775,-0.78958 1.56775,-0.99908 0,-0.20951 0.35276,-0.51138 0.78388,-0.67132 1.03135,-0.38184 2.41321,-1.88555 3.24635,-3.53455 0.36956,-0.73102 0.92386,-1.49019 1.23181,-1.68843 0.30908,-0.19824 0.56103,-0.65893 0.56103,-1.025 0,-0.36494 0.50391,-0.85717 1.11982,-1.09258 0.6159,-0.23541 1.11982,-0.58684 1.11982,-0.77944 0,-0.19374 0.61814,-0.6274 1.37514,-0.96418 1.7514,-0.77945 3.28331,-2.32032 4.05823,-4.08196 0.33484,-0.76143 0.76595,-1.38318 0.95857,-1.38318 0.19148,0 0.54087,-0.50687 0.77491,-1.12637 0.23404,-0.61951 0.73349,-1.12637 1.10862,-1.12637 0.37628,0 0.68309,-0.20726 0.68309,-0.46181 0,-0.25344 0.50392,-0.65443 1.11982,-0.88984 0.61591,-0.2354 1.11982,-0.58684 1.11982,-0.77944 0,-0.19374 0.58344,-0.61163 1.29676,-0.92926 0.71221,-0.31763 1.54312,-1.17818 1.84546,-1.91258 0.30236,-0.73439 0.71333,-1.33474 0.91378,-1.33474 0.19932,0 0.49272,-0.41226 0.65173,-0.91575 0.3214,-1.01711 2.27884,-3.13919 2.89586,-3.13919 0.21724,0 0.66181,-0.25343 0.98656,-0.56318 0.32588,-0.30975 1.19149,-0.8673 1.92273,-1.23901 1.67078,-0.84928 2.5196,-1.69856 3.3729,-3.37573 0.80964,-1.59157 3.54312,-4.28359 4.34826,-4.28359 0.31916,0 0.57896,-0.18922 0.57896,-0.42013 0,-0.2309 0.40986,-0.5508 0.90929,-0.71074 1.00671,-0.32101 4.91378,-3.87584 4.91378,-4.46944 0,-0.32439 1.80514,-2.11983 3.67861,-3.65957 0.31692,-0.2602 1.58454,-0.75242 2.81634,-1.09258 1.23181,-0.34016 2.34043,-0.76255 2.46361,-0.93715 1.19261,-1.69518 7.16685,-1.64562 7.16685,0.0586 0,0.22977 0.29116,0.41788 0.64614,0.41788 0.35612,0 0.91938,0.39085 1.25196,0.86843 0.3326,0.47758 1.15005,1.11849 1.81635,1.42373 0.66741,0.30525 1.21277,0.69835 1.21277,0.87295 0,0.17346 2.72116,3.05358 6.04703,6.3989 3.32587,3.34532 6.04704,6.29077 6.04704,6.54646 0,0.25456 0.2766,0.56994 0.61477,0.7006 0.33708,0.13066 0.75029,0.78509 0.91714,1.45414 0.16684,0.66907 0.57223,1.48682 0.90033,1.81684 0.327,0.32891 0.73909,1.36854 0.9149,2.30906 0.17468,0.94165 0.53416,1.84499 0.79843,2.00944 0.31468,0.196 0.22396,0.55418 -0.2654,1.04641 -0.40985,0.41225 -0.74469,0.96417 -0.74469,1.22662 0,0.52825 -3.72563,4.41423 -4.23068,4.41423 -0.49384,0 -2.73012,2.38678 -3.06046,3.26647 -0.16236,0.43366 -0.47929,0.78847 -0.70325,0.78847 -0.22396,0 -0.64726,0.5812 -0.93953,1.29194 -0.29228,0.70961 -1.0728,1.57129 -1.73348,1.91483 -0.66182,0.34241 -1.46585,0.97769 -1.78836,1.41134 -0.3214,0.43365 -0.7738,0.78847 -1.00336,0.78847 -0.60359,0 -3.03919,2.65485 -3.35499,3.65732 -0.14668,0.46631 -0.46136,0.84815 -0.69989,0.84815 -0.2374,0 -0.56103,0.3548 -0.72004,0.78847 -0.33596,0.91911 -2.23404,2.81592 -2.81635,2.81592 -0.21948,0 -0.66293,0.3548 -0.98432,0.78845 -0.32252,0.43365 -1.13997,1.07569 -1.81747,1.42824 -0.67749,0.35143 -1.2318,0.75692 -1.23292,0.9011 0,0.14305 -0.6047,0.97093 -1.34267,1.83823 -0.73796,0.86731 -1.34266,1.71997 -1.34266,1.89456 -0.001,0.41338 -2.18701,2.61092 -2.59686,2.61092 -0.3046,0.001 -1.67078,1.05429 -4.20605,3.24282 -0.66182,0.56995 -1.21613,1.27956 -1.23181,1.57467 -0.0156,0.29624 -0.38188,0.8031 -0.81299,1.12637 -0.43113,0.32439 -1.06271,1.13313 -1.40313,1.79881 -0.34152,0.66456 -1.18366,1.44401 -1.87234,1.73011 -0.68869,0.28722 -1.36058,0.80761 -1.49384,1.15677 -0.13328,0.34806 -0.46473,0.63416 -0.73797,0.63416 -0.63605,0 -2.85218,2.23471 -3.23964,3.26647 -0.16236,0.43365 -0.47928,0.78846 -0.70325,0.78846 -0.22396,0 -0.64726,0.5812 -0.93953,1.29194 -0.29228,0.70961 -1.07278,1.57129 -1.73347,1.91483 -0.66182,0.34242 -1.46586,0.97769 -1.78836,1.41134 -0.3214,0.43366 -0.78164,0.78846 -1.02239,0.78846 -0.3908,0 -1.89698,1.46428 -3.41322,3.31603 -0.29788,0.36383 -0.67301,1.18833 -0.83315,1.83261 -0.16124,0.64428 -0.53416,1.32011 -0.82867,1.50258 -0.29452,0.18247 -0.80067,0.9912 -1.12429,1.79656 -0.32364,0.80536 -0.7514,1.46427 -0.95186,1.46427 -0.19932,0 -0.49047,0.40437 -0.64612,0.89885 -0.15564,0.49335 -0.57111,1.18719 -0.92162,1.53975 -0.55207,0.5553 0.57111,1.84612 8.32363,9.57639 10.42329,10.39189 34.29115,34.39033 42.87682,43.11294 3.26428,3.31491 5.93505,6.23559 5.93505,6.49015 0,0.25343 0.2766,0.56769 0.61478,0.69835 0.33708,0.13066 0.75029,0.78507 0.91713,1.45414 0.16684,0.66907 0.57223,1.48681 0.90034,1.81683 0.327,0.3289 0.73908,1.36855 0.9149,2.30906 0.17468,0.94165 0.53415,1.845 0.79843,2.00945 0.31468,0.19598 0.22396,0.55417 -0.2654,1.04639 -0.40986,0.41225 -0.74469,0.96418 -0.74469,1.22662 0,0.57557 -3.74804,4.41425 -4.31019,4.41425 -0.54199,0 -2.85666,2.50955 -2.85666,3.09752 0,0.26131 -0.40313,0.69271 -0.89586,0.95741 -0.49271,0.2647 -0.89585,0.69948 -0.89585,0.96643 0,0.67131 -1.89698,2.62105 -2.55991,2.63006 -0.299,0.004 -0.76036,0.41338 -1.02352,0.90899 -0.26316,0.4956 -0.68981,0.90109 -0.94625,0.90109 -0.52071,0 -3.08511,2.45437 -3.08511,2.95334 0,0.508 -3.86338,4.25543 -4.38857,4.25543 -0.26092,0 -0.80963,0.33678 -1.21949,0.74904 -0.48936,0.49222 -0.84546,0.58345 -1.04032,0.26695 -0.16348,-0.26583 -1.06158,-0.62739 -1.99775,-0.80311 -0.93506,-0.17684 -1.96865,-0.59134 -2.29563,-0.92024 -0.32812,-0.33003 -1.14111,-0.73778 -1.80627,-0.9056 -0.66518,-0.16783 -1.3158,-0.58346 -1.4457,-0.92249 -0.12992,-0.34017 -0.4468,-0.61839 -0.70548,-0.61839 -0.25756,0 -2.9776,-2.53433 -6.04367,-5.63184 -3.06607,-3.09752 -5.73013,-5.63185 -5.9205,-5.63185 -0.43785,0 -7.17918,-6.56449 -7.17918,-6.99138 0,-0.44604 -1.94064,-2.45324 -2.38073,-2.46225 -0.44009,-0.009 -6.37289,-6.09929 -7.86002,-8.06818 -0.58231,-0.77044 -1.2374,-1.40122 -1.45577,-1.40122 -0.47144,0 -7.55767,-7.05557 -7.57894,-7.54666 -0.0244,-0.53841 -1.6551,-2.36538 -2.11198,-2.36538 -0.62711,0 -6.96529,-6.42932 -7.68758,-7.79899 -0.34712,-0.65893 -0.9888,-1.31109 -1.42553,-1.45076 -1.07279,-0.34242 -7.46248,-6.80891 -7.80627,-7.90149 -0.28892,-0.91574 -1.11086,-1.2086 -1.11086,-0.39649 0,0.2602 -0.6047,0.68596 -1.34379,0.94503 -0.73908,0.25907 -1.34378,0.62964 -1.34378,0.8245 0,0.42465 -3.52296,1.36066 -5.12542,1.36066 -0.63047,0 -1.14558,0.17008 -1.14558,0.37846 0,0.20725 -0.48824,0.60148 -1.08511,0.87519 -1.52967,0.7006 -2.94624,1.9948 -2.94624,2.68977 0,0.32439 -0.26764,0.69385 -0.59575,0.82 -0.327,0.12615 -0.86898,0.9315 -1.20269,1.78754 -0.36284,0.93039 -1.11534,1.78305 -1.86786,2.11871 -0.69317,0.30863 -1.26092,0.71975 -1.26092,0.91348 0,0.19261 -0.50391,0.54404 -1.11982,0.77946 -0.6159,0.2354 -1.11982,0.61274 -1.11982,0.83689 0,0.22527 -0.41769,0.51925 -0.92945,0.65441 -0.51064,0.13404 -1.03808,0.66456 -1.17134,1.17819 -0.13436,0.51475 -0.42664,0.93488 -0.65061,0.93488 -0.22284,0 -0.59799,0.50687 -0.83203,1.12637 -0.23404,0.61951 -0.58342,1.12638 -0.77491,1.12638 -0.1926,0 -0.60134,0.57107 -0.90818,1.26829 -0.33372,0.75692 -1.18141,1.51384 -2.10638,1.87878 -0.85107,0.33566 -1.65174,0.88082 -1.77716,1.20973 -0.1254,0.33002 -0.49271,0.59922 -0.81522,0.59922 -0.69093,0 -1.97761,1.42486 -2.67414,2.96348 -0.27212,0.60035 -0.63941,1.09146 -0.81635,1.09146 -0.17692,0 -0.57223,0.60823 -0.87794,1.35164 -0.30572,0.7434 -0.73348,1.35164 -0.95073,1.35164 -0.21612,0 -0.75139,0.35481 -1.19036,0.78846 -0.43897,0.43366 -1.3897,1.09258 -2.11422,1.46428 -1.66965,0.85717 -2.51513,1.71096 -3.35835,3.39263 -0.36952,0.73552 -0.92385,1.50032 -1.2318,1.69857 -0.30908,0.19824 -0.56103,0.65892 -0.56103,1.02274 0,0.36495 -0.50392,0.89433 -1.11983,1.17705 -0.61589,0.28159 -1.11982,0.65893 -1.11982,0.83689 0,0.17798 -0.6047,0.57559 -1.34378,0.88309 -0.73908,0.30749 -1.34378,0.72425 -1.34378,0.92587 0,0.2005 -0.41434,0.49786 -0.92162,0.65893 -0.50727,0.16219 -1.10637,0.78395 -1.33258,1.38205 -0.2262,0.5981 -0.58007,1.08808 -0.78612,1.08808 -0.20716,0 -0.65285,0.70961 -0.99104,1.57579 -0.36956,0.9484 -1.11646,1.79994 -1.87458,2.13784 -0.69316,0.30863 -1.26091,0.71975 -1.26091,0.9135 0,0.1926 -0.50393,0.54403 -1.11982,0.77944 -0.61591,0.23541 -1.11983,0.61275 -1.11983,0.83689 0,0.22528 -0.4177,0.51926 -0.92945,0.65442 -0.51064,0.13404 -1.03808,0.66457 -1.17133,1.17818 -0.13436,0.51476 -0.42666,0.93489 -0.65062,0.93489 -0.22284,0 -0.59798,0.50687 -0.83202,1.12637 -0.23404,0.61951 -0.58343,1.12637 -0.77492,1.12637 -0.1926,0 -0.59798,0.55756 -0.90145,1.23901 -0.90258,2.02635 -7.73013,2.91392 -7.73013,1.00472 0,-0.20387 -0.6215,-0.50686 -1.38074,-0.6747 -0.75923,-0.16782 -2.08623,-0.99458 -2.9496,-1.83823 -0.86338,-0.84365 -1.72117,-1.53299 -1.90594,-1.53299 -0.56999,0 -6.93842,-6.52843 -7.60918,-7.79898 -0.34716,-0.65893 -0.99777,-1.31335 -1.44458,-1.4564 -0.93505,-0.29849 -7.04926,-6.33808 -7.90033,-7.80462 -0.59463,-1.02499 -0.22956,-2.24936 1.05599,-3.54356 0.31356,-0.31425 0.81747,-1.6873 1.12094,-3.05021 0.30348,-1.3629 0.69877,-2.47801 0.87794,-2.47801 0.18028,0 0.46137,-0.71976 0.62598,-1.60057 0.16348,-0.88082 0.58903,-1.71321 0.94513,-1.85063 0.35608,-0.13741 0.64725,-0.53728 0.64725,-0.8887 0,-0.35143 0.50393,-0.83126 1.11982,-1.06668 0.61591,-0.23541 1.11982,-0.58683 1.11982,-0.77945 0,-0.19373 0.61815,-0.62738 1.37515,-0.96417 1.7514,-0.77944 3.28331,-2.32032 4.05823,-4.08196 0.33484,-0.76143 0.76596,-1.38319 0.95856,-1.38319 0.19148,0 0.54088,-0.50686 0.77492,-1.12637 0.23404,-0.6195 0.73348,-1.12637 1.10863,-1.12637 0.37628,0 0.68309,-0.20724 0.68309,-0.46181 0,-0.25343 0.50391,-0.65442 1.11982,-0.88982 0.6159,-0.23542 1.11982,-0.58685 1.11982,-0.77946 0,-0.19373 0.58342,-0.61161 1.29675,-0.92926 0.7122,-0.31763 1.54311,-1.17817 1.84547,-1.91257 0.30236,-0.73439 0.71332,-1.33475 0.91377,-1.33475 0.19932,0 0.49272,-0.41225 0.65174,-0.91573 0.37176,-1.17706 2.1702,-2.98602 3.34042,-3.35996 0.50056,-0.15995 0.91041,-0.45506 0.91041,-0.65555 0,-0.20162 0.59687,-0.615 1.32699,-0.91913 0.73013,-0.30411 1.58567,-1.13988 1.90146,-1.85625 0.3158,-0.7175 0.73124,-1.30433 0.92385,-1.30433 0.19148,0 0.54087,-0.50687 0.77492,-1.12637 0.23404,-0.61951 0.63269,-1.12637 0.88465,-1.12637 0.25308,0 0.45913,-0.30863 0.45913,-0.68709 0,-0.37734 0.50392,-0.87969 1.11982,-1.11511 0.6159,-0.23541 1.11982,-0.58683 1.11982,-0.77945 0,-0.19373 0.61814,-0.62738 1.37514,-0.96417 1.7514,-0.77944 3.28332,-2.32032 4.05824,-4.08197 0.33484,-0.76142 0.76595,-1.38318 0.95856,-1.38318 0.19148,0 0.54087,-0.50686 0.77492,-1.12637 0.23404,-0.6195 0.7234,-1.12637 1.08622,-1.12637 0.36392,0 0.82195,-0.25343 1.01904,-0.56431 0.19708,-0.30975 0.95185,-0.8673 1.67861,-1.23901 1.67637,-0.85716 3.38298,-2.42394 3.38298,-3.1054 0,-0.28947 0.29004,-0.63752 0.64501,-0.77493 0.35388,-0.1363 0.7738,-0.8414 0.9317,-1.56679 0.15788,-0.72426 0.67413,-1.5251 1.14781,-1.77966 0.47257,-0.25456 0.8589,-0.76031 0.8589,-1.12299 0,-0.3627 0.29564,-0.66006 0.65622,-0.66006 0.3606,0 0.87234,-0.40549 1.1355,-0.90109 0.26316,-0.49561 0.70101,-0.9011 0.972,-0.9011 0.95857,0 2.61143,-2.29554 2.61143,-3.62804 0,-0.72988 -0.15116,-1.32798 -0.33592,-1.32911 -0.18476,0 -0.7111,-1.59945 -1.1691,-3.55483 -0.68198,-2.90716 -1.04255,-3.66521 -1.98096,-4.16644 -1.25644,-0.67019 -7.71222,-7.0736 -7.71222,-7.64918 0,-0.46407 -2.17356,-2.65035 -2.63494,-2.65035 -0.5823,0 -6.944,-6.50479 -7.62709,-7.79898 -0.34716,-0.65893 -0.9888,-1.31109 -1.42554,-1.45076 -1.03359,-0.33004 -7.45576,-6.78977 -7.78387,-7.8294 -0.13884,-0.43929 -0.8029,-1.0847 -1.47704,-1.43387 -1.28331,-0.66569 -6.73797,-6.06889 -8.5532,-8.47031 -0.5823,-0.77043 -1.2374,-1.4012 -1.45576,-1.4012 -0.51848,0 -7.56439,-7.08712 -7.56439,-7.60863 0,-0.21964 -0.63158,-0.87857 -1.40202,-1.46428 -1.92944,-1.46428 -7.65398,-7.25383 -8.3505,-8.44552 -0.59463,-1.01711 -0.22844,-2.2426 1.05599,-3.53567 0.31356,-0.31427 0.81747,-1.68731 1.12094,-3.05021 0.30348,-1.36292 0.69877,-2.47802 0.87794,-2.47802 0.18028,0 0.46137,-0.71975 0.62598,-1.60057 0.16348,-0.88083 0.58903,-1.71322 0.94513,-1.85063 0.35608,-0.13742 0.64725,-0.53727 0.64725,-0.88871 0,-0.35142 0.50393,-0.83126 1.11982,-1.06667 0.61591,-0.23541 1.11982,-0.58684 1.11982,-0.77944 0,-0.19375 0.61815,-0.6274 1.37515,-0.96418 1.7514,-0.77945 3.28331,-2.32032 4.05823,-4.08196 0.33484,-0.76143 0.76596,-1.38318 0.95856,-1.38318 0.19148,0 0.54088,-0.50687 0.77492,-1.12637 0.23404,-0.61951 0.71109,-1.12637 1.06048,-1.12637 0.3494,0 0.74692,-0.29287 0.88353,-0.65105 0.1366,-0.35819 0.96417,-0.78621 1.83987,-0.95066 0.87569,-0.16557 1.59127,-0.44041 1.59127,-0.61049 0,-0.1712 1.20268,-0.56093 2.67301,-0.86617 1.47144,-0.30526 2.83202,-0.80198 3.02352,-1.10385 1.01567,-1.59044 2.69204,-1.87428 3.45352,-0.58346"
     stroke="none"
     fill="#e93c44"
     fill-rule="evenodd"
     style="stroke-width:0.999998" />
</svg>
