<?xml version="1.0" encoding="UTF-8" standalone="no"?>
<svg
   id="svg"
   width="400"
   height="421.0526315789474"
   viewBox="0, 0, 400,421.0526315789474"
   version="1.1"
   sodipodi:docname="image2vector (1).svg"
   inkscape:version="1.1.1 (3bf5ae0d25, 2021-09-20)"
   xmlns:inkscape="http://www.inkscape.org/namespaces/inkscape"
   xmlns:sodipodi="http://sodipodi.sourceforge.net/DTD/sodipodi-0.dtd"
   xmlns="http://www.w3.org/2000/svg"
   xmlns:svg="http://www.w3.org/2000/svg">
  <defs
     id="defs8" />
  <sodipodi:namedview
     id="namedview6"
     pagecolor="#505050"
     bordercolor="#ffffff"
     borderopacity="1"
     inkscape:pageshadow="0"
     inkscape:pageopacity="0"
     inkscape:pagecheckerboard="1"
     showgrid="false"
     inkscape:zoom="1.9047499"
     inkscape:cx="199.76375"
     inkscape:cy="210.78882"
     inkscape:window-width="1920"
     inkscape:window-height="991"
     inkscape:window-x="-9"
     inkscape:window-y="-9"
     inkscape:window-maximized="1"
     inkscape:current-layer="svgg" />
  <g
     id="svgg">
    <path
       id="path1"
       d="M 42.388286,0.97885675 C 38.39007,3.4056213 31.091579,9.7901123 14.844458,25.071896 11.868361,27.871912 8.0481269,31.327331 6.3560363,32.753277 0.39748732,37.768759 -1.6734485,45.656376 1.4386761,51.482888 2.1798397,52.872141 27.034884,77.973592 71.736078,122.47777 c 72.515802,72.19688 71.775912,71.42254 71.775912,75.06268 0,3.36432 -5.49961,10.30047 -15.08643,19.02948 -1.6781,1.52843 -4.76734,4.59162 -6.86498,6.80835 -2.09763,2.21674 -5.07246,5.17617 -6.61072,6.57808 -1.53826,1.40191 -4.62751,4.46763 -6.86498,6.81215 -2.23748,2.34452 -5.19069,5.31408 -6.56368,6.59832 -1.37173,1.2855 -10.35087,10.19418 -19.952944,19.79749 -9.602074,9.6033 -17.693852,17.6883 -17.981164,17.96666 -23.506202,22.7506 -61.2356278,61.0702 -62.3378386,63.3135 -1.63488239,3.32636 -1.62471205,9.68681 0.021612,13.03975 0.9432992,1.92319 34.7431586,36.0434 39.7431526,40.12132 3.460459,2.82153 6.617079,2.81014 10.108049,-0.0367 1.342485,-1.09445 33.012929,-32.3906 70.380033,-69.54743 76.83566,-76.40259 69.86897,-70.18638 78.62437,-70.14969 8.34222,0.0354 1.81032,-5.82904 78.71208,70.65959 37.69765,37.49592 69.60201,68.87305 70.89746,69.7271 5.34324,3.52247 4.89956,3.82867 29.04649,-20.09483 21.2611,-21.06528 21.18228,-20.96279 21.1683,-27.44344 -0.0165,-6.74889 4.61733,-1.72961 -71.99204,-77.99302 -70.99534,-70.67351 -71.64116,-71.35169 -71.64116,-75.2373 0,-3.49843 2.0239,-5.61268 72.29079,-75.53842 77.53996,-77.161746 71.4403,-70.473593 71.0106,-77.853842 -0.31274,-5.37355 -1.60818,-7.467551 -8.06508,-13.032155 -2.80193,-2.414112 -5.32417,-4.815572 -5.60386,-5.335593 -0.27968,-0.520021 -3.07398,-3.084698 -6.20899,-5.698721 -3.13628,-2.614023 -6.96033,-6.047932 -8.49859,-7.63077 C 368.49266,9.5686922 360.10976,2.5832037 357.40317,0.86624881 353.2702,-1.7553654 348.51811,1.2015421 334.88349,14.880244 332.08665,17.686586 323.29312,26.24479 315.34245,33.8996 c -7.95193,7.65481 -16.89675,16.309174 -19.8792,19.231919 -2.98245,2.922746 -9.14059,8.844152 -13.68292,13.158682 -4.5436,4.314529 -11.04372,10.585147 -14.44697,13.935549 -3.40198,3.350403 -12.46884,12.11864 -20.14999,19.484971 -7.67988,7.366329 -16.61707,16.013099 -19.85887,19.214209 -19.11134,18.86752 -21.32847,20.23526 -30.42457,18.77769 -5.95601,-0.95401 -7.10399,-1.88903 -31.15812,-25.35703 -6.42003,-6.26303 -15.36993,-14.917394 -19.8881,-19.231923 C 141.33554,88.799138 134.85194,82.536111 131.44488,79.195831 124.30149,72.190098 117.12886,65.270403 97.636124,46.577484 89.957517,39.213683 80.890657,30.445446 77.484864,27.092513 74.080342,23.738315 68.463771,18.207873 65.004583,14.801798 50.628805,0.65115498 46.793315,-1.6933678 42.388286,0.97885675"
       stroke="none"
       fill="#6c6c6c"
       fill-rule="evenodd"
       style="stroke-width:1.26828;fill:#000000;fill-opacity:1" />
  </g>
</svg>
