<?xml version="1.0" encoding="UTF-8" standalone="no"?>
<svg
   id="svg"
   width="400"
   height="433.6448598130841"
   viewBox="0, 0, 400,433.6448598130841"
   version="1.1"
   sodipodi:docname="devices.svg"
   inkscape:version="1.1.1 (3bf5ae0d25, 2021-09-20)"
   xmlns:inkscape="http://www.inkscape.org/namespaces/inkscape"
   xmlns:sodipodi="http://sodipodi.sourceforge.net/DTD/sodipodi-0.dtd"
   xmlns="http://www.w3.org/2000/svg"
   xmlns:svg="http://www.w3.org/2000/svg">
  <defs
     id="defs7" />
  <sodipodi:namedview
     id="namedview5"
     pagecolor="#505050"
     bordercolor="#ffffff"
     borderopacity="1"
     inkscape:pageshadow="0"
     inkscape:pageopacity="0"
     inkscape:pagecheckerboard="1"
     showgrid="false"
     inkscape:zoom="1.8494396"
     inkscape:cx="199.79025"
     inkscape:cy="87.323748"
     inkscape:window-width="1920"
     inkscape:window-height="991"
     inkscape:window-x="-9"
     inkscape:window-y="-9"
     inkscape:window-maximized="1"
     inkscape:current-layer="svg" />
  <g
     id="svgg"
     transform="matrix(1.1504274,0,0,1.1636243,-34.366872,-38.110429)">
    <path
       id="path0"
       d="m 112.15,38.474 c -9.178,4.635 -9.38,5.693 -11.215,58.824 l -1.87,54.104 -27.942,1.115 c -43.962,1.755 -41.216,-6.771 -41.216,127.978 0,102.274 0.677,115.413 6.182,119.982 11.313,9.389 329.225,7.379 336.175,-2.126 4.399,-6.017 5.306,-36.47 5.306,-178.233 V 49.141 l -9.85,-7.748 C 355.578,31.842 130.378,29.27 112.15,38.474 M 355.14,220.561 V 385.047 H 272.897 190.654 V 277.05 c 0,-129.311 2.057,-123.078 -41.121,-124.636 l -28.038,-1.012 -1.046,-47.664 -1.046,-47.663 H 237.271 355.14 V 220.561 M 168.224,278.6 v 84.207 l -58.878,-1.03 -58.879,-1.029 -1.013,-78.408 c -0.557,-43.125 -0.189,-80.555 0.818,-83.178 1.375,-3.584 16.263,-4.769 59.891,-4.769 h 58.061 V 278.6"
       stroke="none"
       fill="#000000"
       fill-rule="evenodd" />
  </g>
</svg>
