<?xml version="1.0" encoding="UTF-8" standalone="no"?>
<svg
   id="svg"
   width="400"
   height="1400"
   viewBox="0, 0, 400,1400"
   version="1.1"
   sodipodi:docname="more.svg"
   inkscape:version="1.1.1 (3bf5ae0d25, 2021-09-20)"
   xmlns:inkscape="http://www.inkscape.org/namespaces/inkscape"
   xmlns:sodipodi="http://sodipodi.sourceforge.net/DTD/sodipodi-0.dtd"
   xmlns="http://www.w3.org/2000/svg"
   xmlns:svg="http://www.w3.org/2000/svg">
  <defs
     id="defs8">
    <clipPath
       clipPathUnits="userSpaceOnUse"
       id="clipPath1387">
      <path
         id="path1389"
         style="fill:#ff0000;fill-opacity:1;fill-rule:nonzero;stroke:none;stroke-width:1"
         d="m 0,0 v 1400 h 400 v -105.5 c -5.75209,2.1089 -12.96651,-2.0244 -12.96651,-12.418 0,-1.1414 1.7e-4,-2.2824 0,-3.4238 0,-3.019 0.001,-6.0375 0.002,-9.0566 -2.5e-4,-0.2656 0.001,-0.5313 0.002,-0.7969 -0.28287,0.2957 -0.55359,0.5677 -0.74107,0.7871 h -0.002 c -0.0723,0.085 -0.14708,0.1624 -0.22098,0.2363 -0.002,0 -5.3e-4,0.01 -0.002,0.01 0.0448,0.093 0.0489,0.2934 0.067,0.5371 0.0538,0.7304 0.0207,0.1171 0.0536,0.9414 8e-5,0.097 0.0303,0.199 0.002,0.293 -0.20233,0.6962 -0.42787,1.1479 -0.90625,1.582 -0.0661,0.4402 -0.0757,0.5154 -0.18973,0.6504 0.13824,1.1411 -0.10674,1.9516 -0.91965,2.9922 -0.0776,0.088 -0.15453,0.1776 -0.23214,0.2656 -1.83702,2.0871 -3.99947,0.891 -3.21429,-0.9941 -0.16181,-0.015 -0.23456,-0.2272 -0.16294,-0.7559 0.0727,-0.5365 -0.13705,-1.1664 0.21652,-1.6094 0.0409,-0.051 0.18468,-0.1228 0.35491,-0.1972 -7.1e-4,-0.01 -0.002,-0.013 -0.005,-0.02 -0.0176,-0.2128 0.21473,-0.8461 0.27679,-1.0351 0.12793,-0.3941 0.36897,-0.9265 0.43527,-1.3535 0.0315,-0.2032 -0.0125,-0.4164 0.0447,-0.6153 0.10172,-0.3544 0.26992,-0.6903 0.41518,-1.0332 -0.0634,-0.4714 -0.24847,-1.0844 -0.14063,-1.373 0.18784,-0.5027 0.51321,-0.9565 0.78572,-1.4297 0.005,-0.05 0.008,-0.1137 0.0114,-0.1211 0.0114,-0.01 0.0167,-0.011 0.0335,-0.027 -0.003,-0.2551 -0.006,-0.5172 -0.005,-0.5879 0.007,-0.532 0.0744,-1.0499 -0.009,-1.5782 0.30747,-0.5538 -0.78028,1.4338 0,-1.2421 0.0716,-0.246 0.29101,-0.4344 0.47544,-0.6368 -0.007,0.051 -0.0311,0.1466 -0.007,0.1153 0.0525,-0.067 0.0672,-0.1511 0.096,-0.2285 -0.0127,0.015 -0.0208,0.024 -0.0313,0.035 0.0103,-0.013 0.0186,-0.026 0.029,-0.039 10e-4,0 0.003,-0.01 0.007,-0.014 h 0.005 c 9.3e-4,0 10e-4,0 0.002,0 0.16835,0.121 0.016,0.025 0.0871,-0.3926 0.0669,-0.3941 0.15933,-0.9302 0.43303,-1.2637 0.009,-0.01 0.005,0.026 0.007,0.039 -0.0554,-0.8403 -0.27409,-1.5937 0.26116,-2.3594 0.0189,0.052 0.0389,0.2083 0.0581,0.1563 0.0737,-0.2011 -0.0103,-0.8718 0.0267,-1.1875 -0.0562,-0.4831 -0.25733,-1.2786 -0.0803,-1.6915 0.10149,-0.2367 0.24816,-0.4539 0.39733,-0.6718 0.006,-0.078 0.0134,-0.1666 0.0134,-0.2149 v -1.5117 -2.5527 -1.9024 -3.4726 -1.7559 c 0,-0.897 2e-5,-1.7925 0,-2.6894 0,-0.6181 -4e-5,-1.2373 0,-1.8555 -9e-5,-0.7152 -4.1e-4,-1.4293 0,-2.1445 9.9e-4,-0.757 9.9e-4,-1.5145 0,-2.2715 0.003,-0.9277 0.0191,-1.8556 -0.009,-2.7832 -0.003,-0.1969 0.002,-0.3932 0.005,-0.5899 -0.26233,-1.2507 -0.52695,-2.7583 -0.81251,-4.9726 -0.244,-0.9012 -0.2555,-1.1616 -0.40624,-2.2168 h -0.002 c -0.0233,-0.1633 -0.0296,-0.3151 -0.0312,-0.4629 -0.57688,-4.2467 -1.26325,-8.3248 -2.16518,-8.25 -14.13179,1.171 -1.10016,-10.0204 9.6116,-10.3047 3.69317,-0.098 7.10913,1.1042 9.04241,4.5527 V 711.21875 c -0.16032,0.0217 -0.25939,0.0449 -0.45981,0.0684 -0.0352,0.81676 0.0382,1.64352 0.0469,2.45898 -0.0119,1.44785 -0.0126,2.89586 -0.0114,4.34375 9.8e-4,0.95148 0.002,1.90399 0.002,2.85547 -8e-5,0.20271 0.0191,0.40574 -0.002,0.60742 -0.10605,0.91644 -0.179,1.07268 -0.41072,1.85938 0.0143,0.23271 -0.0873,0.44284 -0.19865,0.65039 -0.006,0.83722 -0.0445,1.65773 -0.13616,2.47656 0.0193,0.25518 0.035,0.51058 0.0581,0.76563 -0.0358,1.33041 -0.56238,2.58075 -0.87054,3.86719 -0.13796,0.57609 -0.21978,1.08782 -0.3192,1.6621 -0.0375,0.26975 -0.0917,0.53662 -0.14731,0.80274 0.0423,0.834 0.0803,0.8132 -0.18974,1.9082 -0.091,0.36911 -0.44498,0.68479 -0.53571,1.06055 0.0267,0.75755 0.057,0.83719 -0.0782,1.70508 -0.117,0.75108 -0.50844,1.50883 -0.57813,2.27343 -0.18904,0.74589 -0.21529,0.91575 -0.52679,1.74024 -0.32393,0.8574 -0.31268,0.42734 -0.60044,1.47461 -0.0769,0.28004 -0.0823,0.57313 -0.14732,0.85547 -0.0679,0.2945 -0.15463,0.58514 -0.2366,0.87695 0.0125,0.1472 0.0175,0.29367 -0.002,0.43945 -0.18734,1.26307 -0.34601,1.47341 -0.81473,2.40625 -0.0675,0.43966 -0.13452,0.87356 -0.23661,1.26367 -0.63839,1.5993 -0.25571,1.61701 -3.58035,0.52149 -0.25456,-0.0839 -0.14949,-0.46315 -0.15178,-0.70117 -0.008,-0.76532 0.2375,-1.32265 0.56473,-1.95313 0.15607,-0.77642 0.35481,-1.54216 0.66293,-2.28125 -1.8e-4,-0.004 0,-0.008 0,-0.0117 -0.0447,-1.00514 -0.19662,-1.76177 0.23885,-2.74218 -0.0537,0.27945 0.15237,-0.28282 0.25223,-0.63282 0.18777,-0.65773 0.37524,-1.3153 0.56473,-1.97265 0.0733,-0.25421 0.14423,-0.50914 0.21653,-0.76367 -0.2083,-0.0147 -0.41694,-0.026 -0.62501,-0.043 -0.0528,9e-4 -0.1056,0.003 -0.15848,0.004 -0.0472,0.0982 -0.0903,0.1983 -0.14063,0.29493 -0.0698,0.13396 -0.16099,0.28364 -0.31473,0.34374 -0.006,0.002 -0.009,-0.009 -0.0134,-0.01 0.10914,0.719 0.37164,1.34312 -0.29017,2.10742 -0.15894,0.21181 -0.36172,0.50728 -0.56473,0.71289 -0.015,0.14909 -0.0163,0.0971 -0.0357,0.35156 -0.22384,1.03461 -0.22279,1.43157 -0.73885,1.40821 1.34676,0.95209 1.94752,2.93564 -0.13169,2.21094 -0.13666,-0.0476 -0.26819,0.0303 -0.39955,0.16015 0.0103,0.21819 -0.005,0.43662 0.009,0.65039 0.18435,0.6744 -0.2496,1.27055 -0.48214,1.8711 -0.10663,0.27539 -0.17752,0.56022 -0.24777,0.8457 -0.006,0.0148 -0.007,0.0377 -0.0134,0.0508 -0.0517,0.20792 -0.1024,0.41715 -0.17857,0.61914 -0.27022,-0.0831 -0.53186,-0.18191 -0.81028,-0.25 -0.0255,0.76659 -0.0339,0.91979 -0.71651,1.26563 0.17819,-0.33171 0.45817,-0.81041 0.27902,-0.62305 -0.0549,0.0574 -0.21204,0.37791 -0.41518,0.71484 0.0593,-0.0282 0.0755,-0.0452 0.12501,-0.0703 -0.0313,0.0586 -0.0792,0.13688 -0.0982,0.17773 -0.033,0.006 -0.0671,0.007 -0.10045,0.0117 0.0269,-0.0416 0.0488,-0.0779 0.0736,-0.11914 -0.0792,0.0376 -0.22176,0.10475 -0.31696,0.14844 0.0806,-0.01 0.16138,-0.0176 0.24106,-0.0293 -0.31157,0.48291 -0.73918,0.95785 -1.27455,0.78516 -1.96063,-0.63243 -1.96794,-0.73176 -2.02902,-1.38086 -0.49451,-0.60308 -0.79214,-1.2941 -1.25892,-1.9082 -0.0903,-0.1155 -0.42,-0.39636 -0.27009,-0.34766 0.17609,0.0572 0.182,0.33565 0.36384,0.37695 3.91937,0.89112 -0.96304,-1.41042 -1.09822,-1.5332 -0.202,-0.18349 0.0934,-0.48834 0.17634,-0.74414 -0.0416,-0.25038 -0.0382,-0.5245 -0.0402,-0.76563 0.009,-1.20028 -0.0209,-0.9447 0.91518,-2 0.0642,-0.5071 0.34375,-0.93382 0.65625,-1.35742 0.06,-0.0806 0.25777,-0.17548 0.17857,-0.24218 -0.13171,-0.11108 -0.27249,0.49054 -0.2366,0.27734 0.14611,-0.86821 0.26721,-1.17551 0.74553,-1.90039 0.11483,-0.1527 0.17931,-0.23988 0.25224,-0.32813 -0.12336,-0.51149 0.0638,-0.95021 0.32589,-1.36328 -5e-5,-0.34568 0.006,-0.69102 0,-1.03711 -0.0251,-1.20412 -0.10012,-2.39542 0.19643,-3.58007 0.0577,-0.23055 -0.016,-0.60459 0.24107,-0.67579 0.3157,-0.0874 0.64215,-0.13231 0.97099,-0.16406 4e-4,-0.0273 0,-0.0547 0,-0.082 -0.0555,-0.76835 0.0185,-1.46917 0.20089,-2.22852 0.28208,-1.17434 0.16678,-0.20769 0.24553,-1.07617 -0.0542,-0.63673 0.17218,-1.27327 0.27902,-1.89843 0.0224,-0.13158 0.036,-0.26377 0.0469,-0.39649 -0.002,-0.026 -0.007,-0.0521 -0.009,-0.0781 -9.9e-4,-0.0174 0.0134,0.0353 0.0134,0.0527 -7.1e-4,0.008 10e-4,0.0169 0,0.0254 0.007,0.0752 0.0146,0.15137 0.0223,0.22656 0.21656,-0.52972 0.43078,-1.06013 0.64732,-1.58984 -0.005,-0.0533 -0.002,-0.10687 -0.009,-0.16016 -0.12394,0.0648 -0.23838,0.11813 -0.31473,0.0391 -0.20093,-0.20875 -0.0137,-0.54805 0.009,-0.82032 0.0713,-0.86899 0.13507,-1.11512 0.27679,-1.74218 -7.6e-4,-0.0471 0,-0.071 0,-0.12305 -0.001,-0.53897 -4.8e-4,-1.07822 0,-1.61719 -0.006,-0.1036 -0.0178,-0.2067 -0.0178,-0.31055 0.0332,-0.36888 0.0174,-0.73736 0.0157,-1.10742 0.002,-0.009 0.001,10e-4 0.002,-0.008 3e-5,-0.0501 0,-0.10027 0,-0.15039 0.0431,-0.58373 -0.0681,-1.18215 0,-1.76367 0.10742,-0.91724 0.19368,-1.18202 0.39285,-2.00391 0.17473,-0.88959 -0.0485,-1.77349 -0.0625,-2.66015 -0.0114,-0.57529 0.0817,-0.93371 0.33482,-1.52149 0.0688,-0.15971 0.21958,-0.28743 0.27455,-0.45117 0.012,-0.0358 -0.10171,0.0383 -0.12722,0.01 -0.0417,-0.049 -0.0114,-0.12084 -0.0178,-0.18164 -0.22173,-0.72043 0.32001,-1.59506 1.07366,-2.02343 0.0534,-0.0658 0.10491,-0.13018 0.12723,-0.20703 0.0103,-0.0358 -0.10411,0.004 -0.12277,-0.0293 -0.0375,-0.0676 -0.0121,-0.14961 -0.0178,-0.22461 -0.16912,-0.93892 -0.11143,-1.89271 -0.0915,-2.83985 -0.0417,-0.96825 0.0145,-1.63426 0.60715,-2.5332 0.10091,-0.40636 -0.15507,0.20517 -0.16742,0.13867 -0.0971,-0.52489 -0.10594,-1.08121 -0.10937,-1.61132 -0.95262,0.24767 -0.28071,-0.4587 0.46651,-1.06055 -0.0103,-0.0529 -0.016,-0.11721 -0.0335,-0.15625 -4.3e-4,-9.4e-4 4e-4,-0.003 0,-0.004 -0.14333,-1.03044 -0.0535,-2.07817 -0.0536,-3.11523 -0.007,-0.57505 -0.0103,-1.14954 -0.009,-1.72461 7.2e-4,-0.73156 0,-1.46376 0,-2.19531 -0.13898,-0.21302 0.0771,-0.47228 0,-0.69336 -0.009,-0.027 -0.0624,-0.0145 -0.0937,-0.0215 -0.0395,-0.0756 -0.0946,-0.14656 -0.12054,-0.22656 -0.23385,-0.72259 -0.19322,-0.63506 -0.22768,-1.27734 -0.0129,0.0516 -0.0249,0.10269 -0.0379,0.15429 -0.007,0.004 -0.0155,0.0177 -0.0201,0.0117 -0.56222,-0.71479 -0.67856,-1.25856 -0.63616,-2.13476 -0.0692,-0.29859 0.15163,-0.60304 0.10263,-0.90235 -0.008,-0.0477 -0.0904,-0.0567 -0.12276,-0.0957 -0.11659,-0.1404 -0.16643,-0.29647 -0.32143,-0.41797 -0.80135,-2.46133 -0.29402,-0.35684 -0.36831,-1.95508 -0.002,-0.0434 -0.0867,0.14208 -0.0982,0.0996 -0.24327,-0.928 -0.19944,-0.70134 -0.23662,-1.45312 0.0883,-0.84575 0.0841,-1.69234 0.067,-2.54102 -0.0305,-0.0464 -0.051,-0.0952 -0.0782,-0.14258 -0.90274,-0.0172 -1.57996,-0.33441 -2.3192,-0.95117 -0.14042,-0.34817 -0.31537,-0.6857 -0.42187,-1.04297 -0.0354,-0.11889 5e-4,-0.24627 0,-0.36914 -0.002,-0.59952 -0.0217,-1.19929 -0.0178,-1.79883 0.0342,-1.13937 0.21444,-2.29327 -0.0982,-3.41601 -0.0487,-0.34633 -0.10949,-0.69151 -0.14509,-1.03906 -0.0829,-0.80839 0.20473,0.39118 -0.0469,-0.89649 -0.17374,-0.88973 -0.54542,-1.77118 -0.4174,-2.69141 0.0559,-1.41672 0.25014,-2.82501 -0.19866,-4.2207 -0.0502,-0.51431 -0.13407,-1.02702 -0.15179,-1.54297 -0.008,-0.22485 0.0536,-0.44776 0.0759,-0.67187 0.0346,-0.34821 0.0662,-0.69638 0.096,-1.04492 0.0701,-0.81901 0.0192,-1.63409 -0.11608,-2.44141 -0.0209,-0.0264 -0.0338,-0.0416 -0.0558,-0.0703 -0.0623,-0.0914 -0.15654,-0.17247 -0.18751,-0.27539 -0.12189,-0.40501 -0.21994,-0.81767 -0.26785,-1.23438 -0.0606,-0.52656 0.1958,-0.73517 -0.25224,-1.16797 -0.41796,-0.89442 -0.49806,-1.07214 -0.42411,-1.90625 0.0287,-0.32422 0.13298,-0.64178 0.12054,-0.96679 -0.0971,-0.193 0.0818,-0.51367 -0.0357,-0.69336 -0.0303,-0.0462 -0.0295,0.10259 -0.0447,0.15429 -0.35668,-0.33539 -0.0515,-0.0314 -0.37724,-1.16601 -0.0615,-0.58463 0.0329,-1.16662 0.0804,-1.74805 -3e-4,-0.0458 -0.0103,-0.0904 -0.007,-0.13672 -0.0114,-0.0856 0.005,-0.17165 0.0114,-0.25781 -0.0125,-0.0418 -0.0266,-0.0834 0.009,-0.082 0.14984,0.005 0.29898,0.0199 0.44866,0.0273 0.73224,-0.0232 1.46493,-0.0642 2.19643,-0.0644 0.29434,-8e-5 0.58797,0.008 0.8817,0.0273 0.10731,0.007 0.003,0.18715 0,0.28125 -0.002,0.0686 -0.0137,0.13663 -0.0178,0.20508 0.18094,0.88356 0.11943,-0.0861 0.29911,1.04102 0.64566,4.04999 0.15649,1.39943 0.39063,3.3457 0.35322,-0.51221 0.81004,-0.9891 1.37276,-1.32617 0.66456,-0.39811 2.10804,0.41092 2.42635,0.93164 0.0376,0.0945 0.0755,0.18894 0.11383,0.2832 -0.002,-0.003 -0.005,-0.006 -0.007,-0.008 -0.0238,-0.0154 -0.0553,-0.0197 -0.0803,-0.0332 0.0427,0.0513 0.0846,0.10264 0.12277,0.15429 0.008,0.007 0.006,0.005 0.0134,0.01 0.002,0.006 0.005,0.0118 0.007,0.0176 0.0613,0.0846 0.0968,0.15387 0.1451,0.23437 -0.0313,-0.0363 -0.0718,-0.086 -0.0937,-0.11133 0.0512,0.12736 0.10332,0.25466 0.15179,0.38282 0.0464,0.12263 0.0209,-0.0533 -0.0447,-0.25586 -8.8e-4,-0.001 0.001,-0.002 0,-0.004 v -0.002 c -10e-4,-10e-4 -0.007,-0.003 -0.009,-0.004 -0.0216,-0.066 -0.0415,-0.13373 -0.0714,-0.19531 0.0787,0.0545 0.15593,0.1111 0.23438,0.16601 -0.0557,-0.20844 -0.11577,-0.40702 -0.17188,-0.61718 -0.0145,-0.21957 -0.22986,-0.51195 -0.0447,-0.66016 0.74064,-0.59102 1.57135,-1.36937 2.57365,-1.35937 0.47901,0.005 0.75965,0.38862 0.9375,0.9082 0.12709,-0.0548 0.25183,-0.11402 0.37948,-0.16797 -0.0163,-0.44826 -0.0296,-0.89579 -0.0513,-1.34375 0.0146,-0.56671 0.0128,-1.13491 0.0424,-1.70117 0.0235,-0.44947 0.0648,-0.89804 0.11608,-1.3457 0.0232,-0.20192 0.069,-0.40142 0.10709,-0.60157 0.0127,-0.0664 -0.0283,-0.21126 0.0469,-0.19726 2.83652,0.52626 3.38032,0.15133 3.43304,0.61718 0.008,3e-4 0.0138,0.002 0.0223,0.002 0.003,10e-5 -0.0191,0.0926 -0.0267,0.12109 -3.7e-4,0.11626 0.007,0.20075 -0.0114,0.41211 0.79902,2.21363 1.29696,4.48777 1.68527,6.7793 0.29201,-0.0376 0.59139,0.0193 0.87052,0.15234 V 204.7207 c -1.35803,0.86644 -2.86237,1.23214 -4.34597,1.09571 -1.00736,0.42268 -1.94096,0.17847 -2.77232,-0.87696 -0.29568,-0.1663 -0.54639,-0.45988 -0.82813,-0.67187 -0.009,-0.002 -0.0224,-0.004 -0.0313,-0.006 -0.50699,0.0199 -1.35908,0.39705 -1.41518,-0.0762 -0.064,-0.53891 -0.13327,-1.01969 -0.20089,-1.51953 -1.23598,-1.57214 -2.14368,-3.74765 -2.56249,-6.51758 -0.16175,0.36561 -0.13435,-0.33651 -0.17189,-0.56836 -0.19904,0.0469 -0.22744,-0.16029 -0.35267,-0.55078 -0.0709,-0.22032 -0.14759,-0.43877 -0.22099,-0.65821 -0.0771,-0.20131 -0.18185,-0.45815 -0.28348,-0.71679 -0.0449,0.0705 -0.0937,0.13898 -0.14732,0.20312 -0.003,0.14364 -0.008,0.28672 -0.009,0.42969 0.005,0.3662 -0.003,0.47076 -0.14955,0.66992 0.003,0.14035 0.009,0.31237 0,0.31445 -0.1394,0.0358 -0.20934,0.0517 -0.3259,0.082 -0.0205,0.0234 -0.0295,0.033 -0.0513,0.0586 -0.0448,0.0518 -0.24059,0.11545 -0.19419,0.0644 0.0297,-0.0322 0.0674,-0.0572 0.10046,-0.0859 -0.50086,0.12846 -0.76733,0.17443 -0.92188,0.0996 2.4e-4,0.22941 0,0.45789 0,0.6875 0.0237,0.34091 -0.0681,0.59719 -0.27009,0.84375 0.0398,-0.0481 0.0286,-0.0659 0.0782,-0.26367 0.36848,-1.48232 -1.78881,1.50742 -1.54241,0 0.0717,-0.43844 0.0139,-0.30628 0.20312,-0.58398 v -0.002 c 0.003,-0.0324 10e-4,-0.0409 -0.0114,0.008 -3.3e-4,-0.10685 7.2e-4,-0.21356 0,-0.32031 -0.0961,-0.006 -0.2032,-0.0389 -0.29688,-0.0371 -0.83851,0.0136 -0.21147,-0.49855 0.27679,-0.9336 -0.003,-0.0352 -0.005,-0.0702 -0.005,-0.10547 -0.0213,-0.0155 -0.0387,-0.0309 -0.0513,-0.0449 -0.0447,-0.05 -0.0844,-0.0966 -0.12054,-0.14258 0.009,-6.7e-4 0.0185,-0.003 0.029,-0.006 0.0482,0.0324 0.10217,0.0592 0.15625,0.0859 0.0147,-0.15345 0.0473,-0.25283 0.0937,-0.37109 1.4e-4,9.7e-4 -9.8e-4,-0.004 0,-0.004 -0.0248,0.002 -0.0494,0.004 -0.0782,0.008 -0.13681,0.0168 -0.2238,0.0244 -0.28124,0.0332 -0.005,0.005 -0.009,0.0103 -0.0134,0.0156 -0.006,0.0364 -0.0123,0.069 -0.0134,0.0996 -0.0103,-0.015 -0.0158,-0.0303 -0.0246,-0.0449 -0.0298,0.0392 -0.0637,0.0749 -0.0982,0.10937 v 0.002 c -0.0326,0.12098 -0.1032,0.32827 -0.33259,0.69336 -0.022,0.0347 -0.0208,-0.0805 -0.0267,-0.1211 -0.0103,-0.0734 -0.0312,-0.1469 -0.0246,-0.2207 0.0125,-0.13749 0.0536,-0.27087 0.0803,-0.40625 0.0307,-0.0226 0.0642,-0.0428 0.096,-0.0644 0.0199,-0.0449 0.0417,-0.0833 0.067,-0.10352 0.0366,-0.0295 0.0754,-0.0554 0.11608,-0.0781 0.003,-0.007 0.0103,-0.0177 0.0134,-0.0234 0.002,-0.004 0.007,-0.006 0.009,-0.01 -0.0885,-0.28931 0.0161,-0.54449 0.21874,-0.93359 0.0957,-0.1839 0.20743,-0.35905 0.31028,-0.53906 v -0.002 c 0.11268,-0.19718 0.25283,-0.32183 0.40848,-0.39257 0.0103,-0.0665 -0.0434,-0.0465 0.1674,-0.52344 0.009,-0.003 0.0198,-0.008 0.029,-0.01 0.0481,-0.15423 0.1112,-0.30309 0.18751,-0.44726 v -0.002 c 0.0829,-0.21838 0.17183,-0.37614 0.33705,-0.5332 0.0126,-0.0174 0.0256,-0.0354 0.0379,-0.0527 0.075,-0.0757 0.14116,-0.16137 0.22546,-0.22657 0.20945,-0.16211 0.33131,-0.20897 0.51115,-0.20703 -9.8e-4,-0.13647 -0.0155,-0.27837 -0.0134,-0.40625 -0.0312,-0.46777 0.006,-0.52497 0.12723,-0.84765 0.002,-0.0367 0.002,-0.0463 0.009,-0.0684 0.002,-0.009 0.008,-0.0114 0.0134,-0.0254 0.005,-0.0483 0.0121,-0.0964 0.0178,-0.14454 0.0442,-0.0659 0.0882,-0.13224 0.13393,-0.19726 -0.0103,-0.0425 -0.008,-0.0427 -0.0581,-0.25586 0.0799,-0.57791 0.0846,-0.64149 0.40402,-1.12305 0.0193,-0.0292 0.0417,-0.0812 0.0759,-0.0742 0.0421,0.009 0.0526,0.14157 0.0759,0.10547 0.0348,-0.054 -0.0139,-0.1274 -0.0201,-0.1914 -0.0119,-0.11489 -0.0505,-0.45954 -0.0379,-0.54492 0.0476,-0.3267 0.18274,-0.50515 0.28125,-0.79102 0.11303,-0.24936 -0.0506,0.14586 0.0558,-0.34961 0.0321,-0.14949 0.0866,-0.2941 0.13393,-0.43945 0.005,-0.0148 -0.0103,0.0312 -0.009,0.0469 0.002,0.0316 0.0103,0.12585 0.0157,0.0937 0.0114,-0.0763 -9.9e-4,-0.15337 0,-0.23047 0.0303,-0.2202 0.0385,-0.36537 0.10709,-0.56445 0.008,-0.0223 0.0274,-0.0377 0.0335,-0.0606 0.0381,-0.13679 0.0314,-0.28951 0.096,-0.41601 0.0231,-0.0455 0.0584,-0.0823 0.0915,-0.1211 0.007,-0.10954 0.0125,-0.20481 0.0134,-0.28515 -0.0285,-0.32135 -0.0357,-0.55743 -0.0469,-0.88086 -0.0103,-0.30036 0.0103,-0.5979 0.12501,-0.88086 0.009,-0.18385 0.0557,-0.33545 0.0759,-0.51172 -1.8e-4,-0.0519 -9.8e-4,-0.10253 0,-0.15625 10e-4,-0.0254 -0.0147,-0.0965 0,-0.0762 0.007,0.009 0.0144,0.0324 0.0223,0.0469 9.7e-4,-0.007 10e-4,-0.0143 0.002,-0.0215 -0.0122,-0.0219 -0.0255,-0.0439 -0.0357,-0.0664 -0.0496,-0.3155 -0.0359,-0.5366 0.0536,-0.84961 0.0213,-0.0744 0.0854,-0.13278 0.0982,-0.20898 0.0115,-0.0669 0,-0.13523 0,-0.20313 0,-0.30508 -0.005,-0.61111 0.009,-0.91601 0.0163,-0.42735 -0.0655,-0.84754 -0.0201,-1.27344 0.0366,-0.0464 0.0758,-0.0914 0.11382,-0.13672 v -2.32226 -0.70899 c 0,-1.3817 0.13947,-2.61085 0.36831,-3.73437 6.9e-4,-0.2547 -6.6e-4,-0.50948 0.009,-0.76368 -0.0247,-0.56629 -0.15534,-1.18598 0.0937,-1.72265 0.1267,-0.20716 0.0552,-0.83918 0.0357,-1.10938 -0.0374,-0.36502 3.5e-4,-0.54315 0.16741,-0.8164 -0.0251,-0.35677 -0.10114,-0.841 -0.0134,-1.13867 0.0358,-0.11907 0.0904,-0.23066 0.14286,-0.34375 -0.037,-0.3956 -0.0419,-0.8437 0.12499,-1.20118 0.14031,-0.25167 0.009,-0.80048 0.0491,-1.10937 8e-5,-0.21914 8.8e-4,-0.43906 0,-0.6582 0,-0.13457 0.001,-0.26976 0.002,-0.4043 -0.005,-0.20011 -0.039,-0.41946 -0.009,-0.61719 0.005,-0.0244 0.0103,-0.0481 0.0157,-0.0723 -0.10035,-0.22478 -0.19109,-0.4555 -0.16295,-0.70899 2.4e-4,-0.29123 -0.0186,-0.60446 0.009,-0.88476 -0.0288,-0.0813 -0.0776,-0.1849 -0.10491,-0.26563 -0.008,-0.0206 -0.0161,-0.042 -0.0223,-0.0625 -0.33696,-1.00852 -0.49026,-2.38543 -0.58258,-3.57227 -0.16766,-0.45696 -0.27638,-0.93385 -0.41295,-1.40039 -0.22351,-0.64878 -0.35942,-1.32273 -0.52009,-1.98828 -0.0203,-0.0818 -0.0466,-0.16104 -0.0602,-0.24414 -0.0131,-0.0775 -0.0216,-0.15602 -0.029,-0.23437 -0.0171,-0.0134 -0.0344,-0.0254 -0.0513,-0.0391 -0.0345,-0.13078 -0.0874,-0.25849 -0.10492,-0.39258 -0.006,-0.0495 0.007,-0.0986 0.0134,-0.14844 -0.10125,-0.13163 -0.16465,-0.24071 -0.17857,-0.53125 -0.003,-0.087 0.0209,-0.17231 0.0379,-0.25781 0.003,-0.0157 0.0135,-0.0327 0.0223,-0.0488 -0.0103,-0.0236 -0.0152,-0.0484 -0.0246,-0.0723 -0.0152,0.018 -0.0326,0.0416 -0.0469,0.0527 -0.0777,-0.29831 -0.12839,-0.61377 -0.14063,-0.92969 -0.0209,-0.0355 -0.0402,-0.0716 -0.0602,-0.10742 -0.009,-0.016 -0.22838,-0.40254 -0.23438,-0.42774 -0.0322,-0.14581 -0.0439,-0.21294 -0.0625,-0.30859 -9.8e-4,-0.0137 -0.23645,-0.38497 -0.13616,-0.23828 8.8e-4,-0.0495 0.019,-0.11682 0.029,-0.17578 -0.0163,-0.0644 -0.0318,-0.12848 -0.0469,-0.19336 -0.008,-0.0109 -0.0127,-0.0129 -0.0157,-0.0215 -0.003,-0.0108 -0.003,-0.0151 -0.009,-0.0332 -0.015,-0.0292 -0.0278,-0.0585 -0.0424,-0.0879 -0.0411,-0.13148 -0.0799,-0.26431 -0.125,-0.39453 -0.0129,-0.0373 0.0147,0.0776 0.0267,0.11523 0.027,0.0839 -0.0774,-0.16049 -0.0982,-0.24609 -0.0328,-0.13362 -0.0448,-0.27156 -0.0625,-0.4082 -0.15484,-0.278 -0.24246,-0.75702 -0.35714,-1.00586 -0.0251,-0.0694 -0.0488,-0.13959 -0.0736,-0.20899 -0.0274,-0.0551 -0.0608,-0.10841 -0.0826,-0.16601 -0.45387,-1.20036 0.15125,0.31831 -0.19643,-0.53516 -0.0134,-0.1211 -0.0289,-0.24219 -0.0424,-0.36328 -0.003,-0.006 -0.007,-0.009 -0.009,-0.0137 -0.003,-0.009 9.8e-4,-0.0144 0,-0.0293 -0.10926,-0.2084 -0.23096,-0.41259 -0.28126,-0.64648 -0.006,-0.12979 -0.0114,-0.25892 -0.0178,-0.38868 0.0654,0.10745 0.23314,0.37549 -0.0491,-0.0742 -0.19237,-0.4242 -0.23077,-0.62321 -0.27009,-1.0625 -5.1e-4,-0.006 -0.002,-0.008 -0.009,-0.0137 -0.15144,-0.23674 -0.18369,-0.52848 -0.22768,-0.81054 -0.32605,-0.19577 -0.64294,-0.46668 -0.48885,-0.3711 -0.1936,-0.40201 0.11669,0.27855 0.0893,-0.0234 -0.005,-0.0528 -0.1032,-0.0453 -0.1317,-0.0899 -0.1312,-0.2053 -0.19655,-0.45065 -0.34151,-0.64648 -0.0338,-0.0457 0.0178,0.1339 0.0402,0.21289 -0.14903,-0.3448 -0.16422,-0.32304 -0.22991,-0.76172 -0.0114,-0.0729 3.8e-4,-0.147 0,-0.2207 -9.8e-4,-0.19992 -4e-4,-0.39976 -0.007,-0.59961 -0.10686,-0.0576 -0.20922,-0.12848 -0.30803,-0.19922 -0.0231,-0.0165 -0.0582,-0.0393 -0.0916,-0.0625 -0.0404,-0.0122 -0.0793,-0.0262 -0.11829,-0.043 -0.0737,-0.0319 -0.26551,-0.13344 -0.18751,-0.15234 0.0829,-0.0201 0.13128,0.10868 0.2076,0.14648 0.0147,0.007 0.0399,0.0164 0.0647,0.0254 -0.047,-0.0366 -0.0778,-0.0726 -0.0402,-0.0957 0.0145,-0.009 0.0274,-0.007 0.0402,-0.002 -0.0945,-0.11101 -0.19448,-0.21805 -0.29688,-0.32226 -0.10902,-0.0736 -0.2171,-0.16147 -0.27009,-0.22461 -0.0232,-0.0277 -0.0368,-0.0607 -0.0447,-0.0957 -0.024,-0.0248 -0.0479,-0.0491 -0.0714,-0.0742 0.002,-0.0529 -0.0114,-0.15444 -0.0157,-0.23047 -0.0415,-0.0426 -0.0819,-0.0866 -0.11608,-0.13477 -0.0403,-0.0574 -0.003,-0.48005 0,-0.56445 0.0137,-0.0774 0.0177,-0.1347 0.0201,-0.17773 -0.0634,-0.0455 -0.12511,-0.092 -0.18527,-0.14063 -0.0365,-0.22715 -0.0144,-0.44584 0.0223,-0.66601 -0.006,-0.007 -0.005,-0.0121 -0.0114,-0.0195 -0.16272,-0.11012 -0.32912,-0.21998 -0.64955,-0.43359 -0.99288,-0.66193 -0.6867,-1.59007 0.10046,-1.56055 0.22037,0.008 0.47869,0.092 0.75669,0.27735 0.0765,0.051 0.0944,0.0624 0.15626,0.10351 0.10114,-0.0925 0.21509,-0.14738 0.33258,-0.16797 0.0851,-0.27779 0.0855,-0.67017 0.34822,-0.65039 0.30716,0.0231 0.64764,0.26628 0.87276,0.79297 0.11656,0.27265 0.0533,0.11572 0.18527,0.47071 0.0129,0.0465 0.0274,0.0941 0.0402,0.14062 -0.053,-0.0325 -0.16151,-0.1592 -0.15848,-0.0977 0.003,0.0698 0.11246,0.0844 0.16071,0.13477 0.1588,0.16558 0.26448,0.33888 0.36607,0.54101 0.0377,0.0763 0.0663,0.15657 0.10045,0.23438 0.0567,-0.0107 0.10137,-0.0823 0.15848,-0.0762 0.33657,0.0362 0.65765,0.3683 0.70089,1.03515 0.008,0.13044 0.0631,0.25114 0.0848,0.37891 0.0455,-0.0562 0.0958,-0.10641 0.14956,-0.14453 -3.1e-4,-0.0992 0.005,-0.1995 0.009,-0.30274 0.002,-0.10758 0.002,-0.0913 0.009,-0.12304 -0.0199,-0.12188 -0.0258,-0.21592 -0.0335,-0.45313 0.0318,-0.44445 0.0762,-0.60074 0.28794,-0.58593 0.15538,0.0109 0.40324,0.11677 0.79911,0.26367 0.27449,-3.19661 1.06475,-5.83647 2.35267,-7.64063 1.47347,-4.67448 4.67629,-7.02148 7.88616,-7.02148 1.28453,0 2.5678,0.38422 3.74108,1.13281 V 0 Z m 383.56026,1262.3555 c -0.001,0 10e-4,0.01 0,0 0.0151,-0.018 0.061,-0.074 0.0469,-0.055 -0.0131,0.019 -0.0321,0.033 -0.0469,0.051 z m -0.56249,4.1797 c 3.8e-4,0.032 -3.1e-4,0.045 0,0.074 0.0275,-0.049 0.0614,-0.096 0.0871,-0.1465 0.0165,-0.032 -0.0431,0.03 -0.0871,0.072 z m 0,0.074 c -0.0139,0.025 -0.0303,0.049 -0.0447,0.074 -0.0103,0.1134 -0.0145,0.2569 0.0469,0.2207 10e-4,-7e-4 -0.001,-0.181 -0.002,-0.2949 z M 381.41965,136.19922 c -10e-4,0.008 -10e-4,0.0325 0.007,0.0664 9.9e-4,-0.0384 8.4e-4,-0.0612 -0.007,-0.0664 z m 0.0114,0.0957 c 0.0306,0.11981 0.1245,0.33928 0.3884,0.58789 0.0965,0.0907 0.47515,0.16056 0.39286,0.0566 -0.21023,-0.26428 -0.50439,-0.44632 -0.78126,-0.64453 z m 0.15626,0.94531 c 0.005,0.0779 -0.003,0.16034 0.0134,0.23243 0.104,0.10767 0.20976,0.2135 0.31473,0.32031 0.1678,0.11329 0.33195,0.19121 0.27902,0.0762 -0.12187,-0.26551 -0.38773,-0.42857 -0.60715,-0.62891 z m 0.74777,1.01954 c 0.007,0.01 0.0146,0.0183 0.0223,0.0254 0.0685,0.0152 0.22015,0.0576 0.28572,0.0723 -5e-5,-0.003 3e-5,-0.007 0,-0.01 -0.0999,-0.0381 -0.204,-0.0613 -0.30804,-0.0879 z m 1.6116,3.55664 c 8.9e-4,0.002 -9.5e-4,0.004 0,0.006 0.005,0.008 0.0114,0.0138 0.0156,0.0215 -0.006,-0.009 -0.0103,-0.0185 -0.0156,-0.0273 z m 0.60938,2.05468 c -0.005,-0.0407 -7.9e-4,0.0604 0.009,0.12305 0.002,0.005 -0.001,0.009 0.007,0.0137 -0.005,-0.0456 -0.0103,-0.0912 -0.0157,-0.13672 z m 0.0157,0.13672 c 9.9e-4,0.01 0.001,0.0196 0.002,0.0293 0.0242,0.0524 0.0867,0.14614 0.0691,0.10742 -0.021,-0.0464 -0.0466,-0.0913 -0.0691,-0.13672 z m 0.7366,2.19922 c -0.003,-0.0255 0.0103,0.0525 0.0134,0.0781 0.001,0.002 -5.2e-4,0.004 0.007,0.006 -0.005,-0.0281 -0.0114,-0.056 -0.0157,-0.084 z m 0.30358,1.03906 c -0.009,-0.03 0.005,0.0418 0.0157,0.0918 0.005,0.0104 0.0103,0.0209 0.0156,0.0312 -0.0103,-0.0413 -0.02,-0.0823 -0.0312,-0.12305 z m 0.0312,0.12305 c 0.002,0.008 0.005,0.0156 0.007,0.0234 0.008,0.0108 0.0191,0.0298 0.0156,0.0215 -0.006,-0.0155 -0.015,-0.0299 -0.0223,-0.0449 z m 0.98438,3.44531 c 7.4e-4,0.003 10e-4,0.003 0.002,0.006 0.0129,0.0161 0.0406,0.0511 0.038,0.0469 -0.0197,-0.027 -0.0233,-0.0298 -0.0401,-0.0527 z m 0.25445,0.40235 c 0.0161,0.0766 0.0599,0.22493 0.0737,0.14453 -0.0138,-0.0387 -0.0309,-0.0745 -0.0469,-0.11133 -0.009,-0.0113 -0.0176,-0.0213 -0.0246,-0.0332 z m -0.15401,0.0644 c 0.009,0.0273 0.016,0.0555 0.0312,0.0801 0.0437,0.0697 0.18041,0.16829 0.27456,0.22265 -0.009,-0.0239 -0.0165,-0.048 -0.0246,-0.0723 -0.0905,-0.0802 -0.1833,-0.15826 -0.28124,-0.23047 z m 0.59822,1.42578 c -0.007,0.0324 -0.008,0.0555 -0.005,0.0742 0.003,-0.0154 0.0114,-0.037 0.0157,-0.0547 -0.003,-0.006 -0.007,-0.0125 -0.0114,-0.0195 z m 1.25223,7.61328 c 0.003,-0.0121 -0.005,0.0234 -0.009,0.0352 -6.3e-4,0.006 9.7e-4,0.0117 0,0.0176 0.005,-0.0176 0.008,-0.0351 0.0114,-0.0527 z m -2.45536,27.92578 c 0.0362,-0.0622 -0.12369,0.0915 -0.14509,0.16016 -0.007,0.0234 -0.007,0.0483 -0.0114,0.0723 0.0527,-0.0773 0.10926,-0.15162 0.15626,-0.23243 z m -0.35937,0.63282 c 0.0115,-0.0337 -0.0266,0.0423 -0.0491,0.0937 -0.002,0.0229 -0.006,0.0455 -0.009,0.0684 0.0237,-0.0633 0.0262,-0.069 0.0581,-0.16211 z m -0.0581,0.16211 c -0.003,0.01 -0.005,0.0162 -0.009,0.0254 -0.003,0.0493 -0.008,0.12175 -0.005,0.0918 0.007,-0.0387 0.009,-0.0781 0.0134,-0.11718 z m 0.47098,1.38867 c 0.0227,0.007 0.0728,0.0303 0.0536,0.0234 -0.0191,-0.007 -0.0352,-0.0144 -0.0536,-0.0234 z m -2.49554,3.42969 c -0.033,0.003 -0.0623,0.006 -0.0848,0.006 -0.0226,0.0314 -0.0461,0.0646 -0.067,0.0977 -0.005,-0.0144 -0.0726,0.003 -0.14063,0.0312 -0.0139,0.0418 -0.0278,0.0873 -0.0424,0.13477 0.0609,-0.0462 0.1191,-0.0953 0.17411,-0.14844 -0.0234,0.0377 -0.0489,0.0747 -0.0714,0.11328 0.0783,-0.0253 0.1574,-0.0499 0.23437,-0.0781 -0.002,-0.0443 -0.003,-0.0886 0,-0.13281 4e-4,-0.008 -10e-4,-0.0156 0,-0.0234 z m 2.75894,1.19531 c -0.013,0.0157 -0.039,0.0453 -0.0536,0.0625 0.0194,-0.0145 0.0417,-0.028 0.0602,-0.043 0.0114,-0.0183 0.0103,-0.0148 0.0134,-0.0195 -0.006,0 -0.012,-1e-5 -0.0178,0 z m 0.0335,0 c 7.9e-4,0.008 -5.9e-4,0.0155 0.009,0.0273 0.006,0.007 0.009,-0.0273 0,-0.0273 z m 4.15625,8.91406 c -0.0981,-0.0197 -0.009,0.0137 0.26117,0.13281 0.0904,0.0105 0.26632,0.123 0.27232,0.0312 9.8e-4,-0.0167 10e-4,-0.0302 0.002,-0.0469 -0.20579,-0.0459 -0.47532,-0.10503 -0.53572,-0.11719 z m 4.19867,450.88477 c -0.0433,-0.005 -0.0745,-0.002 -0.0558,0.0195 0.0971,0.11029 0.20357,0.21397 0.30357,0.32226 -0.0306,-0.12848 -0.039,-0.18289 -0.0693,-0.30469 -0.008,-0.002 -0.0447,-0.0124 -0.0491,-0.0137 -0.0291,-0.008 -0.0862,-0.0189 -0.12946,-0.0234 z m -1.26563,0.8164 c 0.0157,0.1099 0.0408,0.2134 0.0513,0.32617 0.0499,-0.091 0.0114,-0.20649 -0.0513,-0.32617 z m -3.83482,0.63672 c 0.0469,0.0372 0.0901,0.0957 0.12724,0.17188 -0.017,-0.0118 -0.0345,-0.0231 -0.0513,-0.0352 -0.0295,-0.0213 -0.0103,-0.009 -0.0312,-0.0254 -0.015,-0.0371 -0.0295,-0.0743 -0.0447,-0.11133 z m 0.20759,0.37891 c 0.0655,0.10868 0.11826,0.20788 0.16518,0.30273 6e-4,-0.0372 10e-4,-0.0706 0.002,-0.10742 -0.0734,-0.0863 -0.11497,-0.13533 -0.1674,-0.19531 z m -3.44643,0.51562 c -0.0555,-0.2448 -0.0592,-0.31108 0.0558,0.33594 0.006,0.005 0.0329,0.0254 0.0402,0.0312 -0.0357,-0.12685 -0.0705,-0.26357 -0.0937,-0.36719 z m 2.09821,8.20899 c 0.0225,0.0857 0.0503,0.17076 0.0693,0.25781 -3.2e-4,-0.0169 2.6e-4,-0.0339 0,-0.0508 -0.007,-0.0181 -0.0127,-0.0366 -0.0201,-0.0547 -0.016,-0.0506 -0.0334,-0.10164 -0.0491,-0.15234 z m -0.57143,46.75781 c 4.6e-4,0.0162 -0.008,0.038 -0.002,0.0547 0.002,-0.004 0.008,-0.015 0.0114,-0.0195 -0.003,-0.0123 -0.006,-0.0231 -0.009,-0.0352 z m -6.0625,32.03515 c -0.0114,0.009 -0.0272,0.0123 -0.0379,0.0215 -0.009,0.008 -0.0137,0.0342 -0.0223,0.0469 0.0218,-0.0251 0.0378,-0.0417 0.0602,-0.0684 z m 2.45536,2.2461 -0.002,0.002 c 2e-5,0.0195 0.005,0.039 0.005,0.0586 7e-5,-0.0202 0,-0.0403 0,-0.0606 z m -3.45982,0.57226 c -0.0288,0.0119 -0.0237,0.0648 -0.0246,0.11133 0.001,-0.006 0.008,-0.0134 0.009,-0.0195 0.006,-0.031 0.0478,-0.1052 0.0156,-0.0918 z m 12.42411,2.31641 c -0.0412,0.072 -0.0886,0.14194 -0.10046,0.2207 -0.008,0.0499 0.26462,-0.17827 0.15625,-0.20507 -0.0209,-0.005 -0.0329,-0.0105 -0.0536,-0.0156 z m -9.51563,0.58789 c -9.1e-4,10e-4 10e-4,5.1e-4 -0.005,0.002 10e-4,-3.2e-4 -0.001,3.3e-4 0.005,0 z m 2.5,0.57617 c 0.0351,0.10085 0.0678,0.20245 0.10492,0.30274 0.0353,0.0955 0.008,-0.23677 -0.0871,-0.29297 -0.006,-0.003 -0.0121,-0.006 -0.0178,-0.01 z m -3.4241,0.29883 c -0.0283,-0.14314 0.0266,0.29077 0.0401,0.43555 0.008,0.0163 0.009,0.0234 0.0223,0.0488 -0.0135,-0.1426 -0.021,-0.275 -0.0625,-0.48438 z m 2.29687,503.38087 c -0.0151,-0.026 -0.3035,0.3597 -0.4241,0.4922 -0.007,0.077 -0.002,0.1563 -0.005,0.2344 0.15361,-0.2235 0.30674,-0.4488 0.41741,-0.6894 0.0103,-0.023 0.013,-0.034 0.0114,-0.037 z m -2.91965,15.3125 c -0.0213,0.055 -0.0447,0.1143 -0.067,0.1719 0.0264,0.067 0.0701,0.2692 0.0804,0.1992 0.0152,-0.1009 0.005,-0.2312 -0.0134,-0.3711 z m -0.60267,3.793 c -0.13104,0.039 -0.11086,0.034 -0.30134,0.09 -0.0165,0.024 -0.0311,0.05 -0.0469,0.074 0.17163,-0.067 0.17171,-0.063 0.33929,-0.1211 0.002,-0.014 0.006,-0.029 0.009,-0.043 z m -0.52679,0.4413 c -0.0168,0.026 -0.036,0.051 -0.0536,0.076 0.13717,0.2943 0.19718,1.0049 0.24108,0.7441 0.0465,-0.2763 -0.10835,-0.5454 -0.18751,-0.8203 z m 3.77232,0.3027 c -0.0701,0.09 -0.132,0.1656 -0.25668,0.3516 -0.0602,0.09 0.16357,-0.155 0.21651,-0.248 0.0235,-0.042 0.0248,-0.068 0.0401,-0.1036 z" />
    </clipPath>
  </defs>
  <sodipodi:namedview
     id="namedview6"
     pagecolor="#505050"
     bordercolor="#ffffff"
     borderopacity="1"
     inkscape:pageshadow="0"
     inkscape:pageopacity="0"
     inkscape:pagecheckerboard="1"
     showgrid="false"
     inkscape:zoom="0.40507117"
     inkscape:cx="211.07402"
     inkscape:cy="724.56403"
     inkscape:window-width="1920"
     inkscape:window-height="991"
     inkscape:window-x="-9"
     inkscape:window-y="-9"
     inkscape:window-maximized="1"
     inkscape:current-layer="svg" />
  <path
     id="path0"
     d="M 160.04648,0.68322833 C 124.37068,2.5333802 115.47049,5.1588206 97.183329,19.231903 92.2623,23.018195 84.072253,28.764207 78.979522,31.999892 42.746943,55.026932 32.698174,65.768631 22.210981,92.684596 19.467074,99.724604 14.644398,110.09877 11.492072,115.73937 3.3587045,130.29094 0.50310728,140.31699 0.45476383,154.4816 l -0.0366743,10.93449 4.26422517,8.90819 c 4.0541814,8.47131 15.9900113,37.64656 22.5280453,55.07183 9.890402,26.35981 23.404895,39.57578 55.448264,54.22443 11.00897,5.03175 13.891239,6.84445 25.668706,16.12711 15.76163,12.42403 30.36468,15.09108 82.65228,15.09108 43.61913,0 65.0036,-4.1358 83.44746,-16.13682 10.15045,-6.6059 15.93333,-9.77085 28.88604,-15.8095 7.55158,-3.52001 10.92895,-5.96931 27.92084,-20.24627 25.05524,-21.05206 25.11525,-21.12418 33.33364,-40.39683 6.83143,-16.0217 16.64181,-29.19745 22.41135,-30.10172 1.00521,-0.15811 1.82705,-0.34257 1.82705,-0.41053 0,-0.3176 4.25256,-0.83215 7.54325,-0.91259 L 400,190.7357 v -24.91047 -24.91048 l -5.59784,-0.51316 c -3.07731,-0.28293 -6.16795,-0.57141 -6.8681,-0.64076 -1.21859,-0.12066 -1.96708,-0.7101 -7.32653,-5.75571 -4.30924,-4.05813 -9.57867,-15.97733 -14.8031,-33.48997 C 355.80409,68.33582 345.70031,56.535901 306.55045,31.783533 301.46439,28.567264 293.5644,23.041773 288.99345,19.503739 275.20723,8.828612 268.76588,5.760744 255.22305,3.4196224 237.90276,0.42526113 191.02296,-0.9214386 160.04648,0.68322833 M 170.26861,541.20356 c -0.8035,0.16366 -6.05959,0.90427 -11.68244,1.64489 -17.85707,2.35499 -26.95564,4.73217 -46.25801,12.09117 -29.934591,11.41158 -31.953347,12.5336 -43.789156,24.35849 -4.280895,4.27587 -11.067314,10.00801 -15.083154,12.73886 -14.629727,9.94977 -16.463444,12.08562 -27.962516,32.55102 -11.339038,20.18108 -12.409262,22.73302 -16.2117239,38.65625 -1.842052,7.7085 -4.5759572,19.1187 -6.077938,25.35429 -5.8878982,24.45557 -4.7993372,29.84237 12.9993859,64.38501 2.410504,4.67808 6.703068,13.88168 9.540328,20.45569 5.879563,13.61817 10.223805,19.56806 18.058778,24.72324 10.75725,7.08023 17.885407,12.83872 24.411772,19.72062 8.440099,8.90264 13.051064,11.70284 29.212777,17.7401 7.638267,2.8529 17.980427,7.61419 25.143597,11.57385 39.57494,21.88145 68.87107,21.35303 135.72838,-2.44652 7.99501,-2.84597 20.26091,-6.83475 27.25737,-8.86381 18.34217,-5.31884 24.63849,-8.29656 32.9619,-15.58483 3.85747,-3.37992 12.32591,-10.4338 18.81893,-15.67497 12.66932,-10.22993 15.34655,-13.55992 22.02461,-27.39584 1.84038,-3.81265 5.15108,-9.50179 7.35487,-12.64317 3.65743,-5.21066 5.96125,-7.8153 13.63119,-15.41146 1.43863,-1.42575 3.48406,-3.4992 4.54261,-4.60874 1.33862,-1.40217 2.14545,-1.72116 2.64722,-1.05128 0.44176,0.58944 0.97021,-0.0596 1.36029,-1.66847 0.35174,-1.44794 1.22692,-2.63237 1.94707,-2.63237 1.01188,0 1.37862,-2.34112 1.61367,-10.32562 l 0.30507,-10.32563 0.21004,10.32563 c 0.28839,14.00373 2.09711,13.69306 2.35883,-0.40498 l 0.20004,-10.73061 0.57345,10.9331 0.57346,10.93309 0.20004,-10.26737 c 0.15336,-7.8791 0.54011,-10.55169 1.66034,-11.4837 C 399.77995,716.83762 400,712.52013 400,689.16162 V 661.6687 l -5.11107,-0.44937 c -13.18442,-1.15946 -14.10462,-2.16498 -30.1113,-32.90052 -11.06398,-21.24485 -12.72099,-23.07836 -33.89209,-37.51481 -3.47906,-2.37302 -10.29215,-8.43664 -15.1365,-13.47532 -14.18796,-14.75545 -18.96896,-16.94123 -51.55911,-23.56933 -11.23402,-2.28564 -27.21736,-6.02755 -35.51577,-8.31597 l -15.08815,-4.15938 -20.92938,-0.19 c -11.51074,-0.10402 -21.58451,-0.0541 -22.38802,0.10956 m -0.77516,540.67844 c -21.78289,2.1067 -37.65287,6.9249 -51.79083,15.7277 -9.30695,5.7945 -14.89645,8.4255 -25.797061,12.1411 -19.140671,6.5254 -20.952716,7.5948 -40.39845,23.8259 -20.689328,17.2699 -22.629734,19.6332 -29.302796,35.6868 -2.58054,6.2065 -6.748078,15.2146 -9.261937,20.0175 -7.2465159,13.847 -7.1614982,13.295 -7.1731673,46.2357 -0.013336,33.2293 -0.5117737,30.1808 8.8551853,54.2605 11.400718,29.3112 14.643063,33.5344 46.052966,59.9608 45.10443,37.9516 49.48702,39.5965 130.93239,49.1496 12.52762,1.4701 24.98522,1.484 32.68517,0.036 47.91835,-9.0122 54.48973,-11.4075 75.16738,-27.3945 11.35405,-8.7792 19.15401,-14.245 30.05296,-21.0562 18.49887,-11.5641 24.82186,-20.7095 34.29717,-49.6046 4.68431,-14.2866 16.63015,-31.3055 22.69308,-32.3319 0.73015,-0.1234 2.20213,-0.5395 3.27402,-0.925 1.07022,-0.387 3.80746,-0.6685 6.08294,-0.6269 l 4.13753,0.073 v -25.0062 -25.0062 h -2.76558 c -15.78663,0 -23.2732,-10.1855 -33.21361,-45.1845 -8.79184,-30.956 -25.93376,-47.4784 -62.33804,-60.0855 -13.30112,-4.606 -18.57222,-7.4464 -29.25112,-15.7582 -10.1788,-7.9221 -16.17672,-10.6446 -26.85228,-12.1883 -17.43032,-2.5214 -59.1107,-3.5879 -76.08592,-1.9472"
     stroke="none"
     fill="#6c6c6c"
     fill-rule="evenodd"
     style="stroke-width:1.52053;fill:#000000;fill-opacity:1"
     clip-path="url(#clipPath1387)"
     transform="scale(0.875,1)" />
</svg>
